<svg version="1.1" xmlns="http://www.w3.org/2000/svg" viewBox="0 0 622.4269509661053 518" width="622.4269509661053" height="518">
  <!-- svg-source:excalidraw -->
  
  <defs>
    <style class="style-fonts">
      @font-face {
        font-family: "Virgil";
        src: url("https://excalidraw.com/Virgil.woff2");
      }
      @font-face {
        font-family: "Cascadia";
        src: url("https://excalidraw.com/Cascadia.woff2");
      }
      @font-face {
        font-family: "Assistant";
        src: url("https://excalidraw.com/Assistant-Regular.woff2");
      }
    </style>
    
  </defs>
  <rect x="0" y="0" width="622.4269509661053" height="518" fill="#ffffff"></rect><g stroke-linecap="round" transform="translate(21.426950966105323 10) rotate(0 295.5 30.5)"><path d="M0 0 C216.99 0, 433.97 0, 591 0 M0 0 C217.24 0, 434.47 0, 591 0 M591 0 C591 15.13, 591 30.26, 591 61 M591 0 C591 18.29, 591 36.58, 591 61 M591 61 C374.69 61, 158.37 61, 0 61 M591 61 C387.29 61, 183.58 61, 0 61 M0 61 C0 45.89, 0 30.77, 0 0 M0 61 C0 45.78, 0 30.56, 0 0" stroke="#1e1e1e" stroke-width="1" fill="none"></path></g><g transform="translate(279.12909940360527 29) rotate(0 37.7978515625 11.5)"><text x="37.7978515625" y="0" font-family="Helvetica, Segoe UI Emoji" font-size="20px" fill="#1e1e1e" text-anchor="middle" style="white-space: pre;" direction="ltr" dominant-baseline="text-before-edge">Decoder</text></g><g stroke-linecap="round" transform="translate(69.42695096610532 134) rotate(0 63.99999999999997 30.5)"><path d="M0 0 C26.67 0, 53.34 0, 128 0 M0 0 C42.75 0, 85.51 0, 128 0 M128 0 C128 13.15, 128 26.3, 128 61 M128 0 C128 13.33, 128 26.66, 128 61 M128 61 C84.71 61, 41.42 61, 0 61 M128 61 C77.11 61, 26.22 61, 0 61 M0 61 C0 47.58, 0 34.15, 0 0 M0 61 C0 47.2, 0 33.39, 0 0" stroke="#1e1e1e" stroke-width="1" fill="none"></path></g><g transform="translate(115.64960721610527 155.3) rotate(0 17.77734375 9.199999999999989)"><text x="17.77734375" y="0" font-family="Helvetica, Segoe UI Emoji" font-size="16px" fill="#1e1e1e" text-anchor="middle" style="white-space: pre;" direction="ltr" dominant-baseline="text-before-edge">RAM</text></g><g stroke-linecap="round" transform="translate(260.42695096610527 133) rotate(0 64 30.5)"><path d="M0 0 C45.8 0, 91.59 0, 128 0 M0 0 C28.61 0, 57.22 0, 128 0 M128 0 C128 18.57, 128 37.15, 128 61 M128 0 C128 18.38, 128 36.75, 128 61 M128 61 C91.73 61, 55.46 61, 0 61 M128 61 C78.08 61, 28.15 61, 0 61 M0 61 C0 41.86, 0 22.71, 0 0 M0 61 C0 42.09, 0 23.17, 0 0" stroke="#1e1e1e" stroke-width="1" fill="none"></path></g><g transform="translate(300.87226346610527 154.3) rotate(0 23.5546875 9.199999999999989)"><text x="23.5546875" y="0" font-family="Helvetica, Segoe UI Emoji" font-size="16px" fill="#1e1e1e" text-anchor="middle" style="white-space: pre;" direction="ltr" dominant-baseline="text-before-edge">DMAC</text></g><g stroke-linecap="round" transform="translate(454.42695096610527 133) rotate(0 64 30.5)"><path d="M0 0 C35.48 0, 70.96 0, 128 0 M0 0 C36.99 0, 73.98 0, 128 0 M128 0 C128 13.76, 128 27.52, 128 61 M128 0 C128 15.14, 128 30.28, 128 61 M128 61 C83.14 61, 38.28 61, 0 61 M128 61 C99.72 61, 71.44 61, 0 61 M0 61 C0 39.4, 0 17.8, 0 0 M0 61 C0 38.65, 0 16.3, 0 0" stroke="#1e1e1e" stroke-width="1" fill="none"></path></g><g transform="translate(505.53241971610527 154.3) rotate(0 12.89453125 9.199999999999989)"><text x="12.89453125" y="0" font-family="Helvetica, Segoe UI Emoji" font-size="16px" fill="#1e1e1e" text-anchor="middle" style="white-space: pre;" direction="ltr" dominant-baseline="text-before-edge">VIA</text></g><g stroke-linecap="round" transform="translate(21.426950966105323 291.00000000000006) rotate(0 295.5 30.5)"><path d="M0 0 C208.26 0, 416.51 0, 591 0 M0 0 C217.53 0, 435.07 0, 591 0 M591 0 C591 17.24, 591 34.48, 591 61 M591 0 C591 22.89, 591 45.78, 591 61 M591 61 C410.94 61, 230.89 61, 0 61 M591 61 C417.19 61, 243.39 61, 0 61 M0 61 C0 39.35, 0 17.7, 0 0 M0 61 C0 39.49, 0 17.98, 0 0" stroke="#1e1e1e" stroke-width="1" fill="none"></path></g><g transform="translate(299.69550565360527 310.00000000000006) rotate(0 17.2314453125 11.5)"><text x="17.2314453125" y="0" font-family="Helvetica, Segoe UI Emoji" font-size="20px" fill="#1e1e1e" text-anchor="middle" style="white-space: pre;" direction="ltr" dominant-baseline="text-before-edge">Bus</text></g><g stroke-linecap="round" transform="translate(237.42695096610527 447.00000000000006) rotate(0 88 30.5)"><path d="M0 0 C42.85 0, 85.71 0, 176 0 M0 0 C55 0, 109.99 0, 176 0 M176 0 C176 15.02, 176 30.05, 176 61 M176 0 C176 17.1, 176 34.2, 176 61 M176 61 C106.53 61, 37.06 61, 0 61 M176 61 C136.93 61, 97.87 61, 0 61 M0 61 C0 44.31, 0 27.61, 0 0 M0 61 C0 44.61, 0 28.22, 0 0" stroke="#1e1e1e" stroke-width="1" fill="none"></path></g><g transform="translate(308.53632596610527 468.3) rotate(0 16.890625 9.199999999999989)"><text x="16.890625" y="0" font-family="Helvetica, Segoe UI Emoji" font-size="16px" fill="#1e1e1e" text-anchor="middle" style="white-space: pre;" direction="ltr" dominant-baseline="text-before-edge">CPU</text></g><g stroke-linecap="round"><g transform="translate(33.42695096610532 289) rotate(0 0 -107.5)"><path d="M0 0 C0 -73.73, 0 -147.45, 0 -215 M0 0 C0 -85.59, 0 -171.18, 0 -215" stroke="#1e1e1e" stroke-width="1" fill="none"></path></g><g transform="translate(33.42695096610532 289) rotate(0 0 -107.5)"><path d="M0 -215 L6.34 -201.41 L-6.34 -201.41 L0 -215" stroke="none" stroke-width="0" fill="#1e1e1e" fill-rule="evenodd"></path><path d="M0 -215 C2.17 -210.34, 4.35 -205.68, 6.34 -201.41 M0 -215 C2.52 -209.59, 5.05 -204.18, 6.34 -201.41 M6.34 -201.41 C3.13 -201.41, -0.07 -201.41, -6.34 -201.41 M6.34 -201.41 C2.67 -201.41, -1.01 -201.41, -6.34 -201.41 M-6.34 -201.41 C-4.67 -204.98, -3 -208.56, 0 -215 M-6.34 -201.41 C-4.17 -206.07, -1.99 -210.73, 0 -215 M0 -215 C0 -215, 0 -215, 0 -215 M0 -215 C0 -215, 0 -215, 0 -215" stroke="#1e1e1e" stroke-width="1" fill="none"></path></g></g><mask></mask><g stroke-linecap="round"><g transform="translate(77.42695096610532 290) rotate(0 0 -46)"><path d="M0 0 C0 -25.69, 0 -51.38, 0 -92 M0 0 C0 -25.56, 0 -51.12, 0 -92" stroke="#1e1e1e" stroke-width="1" fill="none"></path></g><g transform="translate(77.42695096610532 290) rotate(0 0 -46)"><path d="M0 -92 L6.34 -78.41 L-6.34 -78.41 L0 -92" stroke="none" stroke-width="0" fill="#1e1e1e" fill-rule="evenodd"></path><path d="M0 -92 C1.77 -88.2, 3.54 -84.41, 6.34 -78.41 M0 -92 C1.76 -88.22, 3.52 -84.45, 6.34 -78.41 M6.34 -78.41 C2.83 -78.41, -0.68 -78.41, -6.34 -78.41 M6.34 -78.41 C3.63 -78.41, 0.92 -78.41, -6.34 -78.41 M-6.34 -78.41 C-4.19 -83.02, -2.03 -87.64, 0 -92 M-6.34 -78.41 C-4.85 -81.6, -3.36 -84.8, 0 -92 M0 -92 C0 -92, 0 -92, 0 -92 M0 -92 C0 -92, 0 -92, 0 -92" stroke="#1e1e1e" stroke-width="1" fill="none"></path></g></g><mask></mask><g stroke-linecap="round"><g transform="translate(186.42695096610527 290) rotate(0 0 -45.5)"><path d="M0 0 C0 -35.63, 0 -71.25, 0 -91 M0 0 C0 -31.8, 0 -63.59, 0 -91" stroke="#1e1e1e" stroke-width="1" fill="none"></path></g><g transform="translate(186.42695096610527 290) rotate(0 0 -45.5)"><path d="M0 -91 L6.34 -77.41 L-6.34 -77.41 L0 -91" stroke="none" stroke-width="0" fill="#1e1e1e" fill-rule="evenodd"></path><path d="M0 -91 C2.48 -85.68, 4.96 -80.36, 6.34 -77.41 M0 -91 C2.22 -86.25, 4.43 -81.5, 6.34 -77.41 M6.34 -77.41 C2.41 -77.41, -1.52 -77.41, -6.34 -77.41 M6.34 -77.41 C1.65 -77.41, -3.04 -77.41, -6.34 -77.41 M-6.34 -77.41 C-4.09 -82.22, -1.85 -87.04, 0 -91 M-6.34 -77.41 C-3.81 -82.84, -1.27 -88.27, 0 -91 M0 -91 C0 -91, 0 -91, 0 -91 M0 -91 C0 -91, 0 -91, 0 -91" stroke="#1e1e1e" stroke-width="1" fill="none"></path></g></g><mask></mask><g stroke-linecap="round"><g transform="translate(345.42695096610527 290) rotate(0 0 -46.5)"><path d="M0 0 C0 -34.45, 0 -68.89, 0 -93 M0 0 C0 -25.23, 0 -50.46, 0 -93" stroke="#1e1e1e" stroke-width="1" fill="none"></path></g><g transform="translate(345.42695096610527 290) rotate(0 0 -46.5)"><path d="M0 -93 L6.34 -79.41 L-6.34 -79.41 L0 -93" stroke="none" stroke-width="0" fill="#1e1e1e" fill-rule="evenodd"></path><path d="M0 -93 C2.35 -87.96, 4.7 -82.93, 6.34 -79.41 M0 -93 C1.72 -89.31, 3.44 -85.62, 6.34 -79.41 M6.34 -79.41 C2.14 -79.41, -2.06 -79.41, -6.34 -79.41 M6.34 -79.41 C3.1 -79.41, -0.13 -79.41, -6.34 -79.41 M-6.34 -79.41 C-4.9 -82.49, -3.46 -85.58, 0 -93 M-6.34 -79.41 C-4.64 -83.05, -2.94 -86.7, 0 -93 M0 -93 C0 -93, 0 -93, 0 -93 M0 -93 C0 -93, 0 -93, 0 -93" stroke="#1e1e1e" stroke-width="1" fill="none"></path></g></g><mask></mask><g stroke-linecap="round"><g transform="translate(381.42695096610527 289) rotate(0 0 -47)"><path d="M0 0 C0 -19.28, 0 -38.56, 0 -94 M0 0 C0 -28.39, 0 -56.79, 0 -94" stroke="#1e1e1e" stroke-width="1" fill="none"></path></g><g transform="translate(381.42695096610527 289) rotate(0 0 -47)"><path d="M0 0 L-6.34 -13.59 L6.34 -13.59 L0 0" stroke="none" stroke-width="0" fill="#1e1e1e" fill-rule="evenodd"></path><path d="M0 0 C-1.3 -2.79, -2.6 -5.58, -6.34 -13.59 M0 0 C-1.91 -4.11, -3.83 -8.21, -6.34 -13.59 M-6.34 -13.59 C-2.15 -13.59, 2.04 -13.59, 6.34 -13.59 M-6.34 -13.59 C-1.51 -13.59, 3.33 -13.59, 6.34 -13.59 M6.34 -13.59 C4.5 -9.66, 2.67 -5.72, 0 0 M6.34 -13.59 C4.29 -9.2, 2.24 -4.8, 0 0 M0 0 C0 0, 0 0, 0 0 M0 0 C0 0, 0 0, 0 0" stroke="#1e1e1e" stroke-width="1" fill="none"></path></g></g><mask></mask><g stroke-linecap="round"><g transform="translate(131.42695096610532 290) rotate(0 0 -45.5)"><path d="M0 0 C0 -29.71, 0 -59.41, 0 -91 M0 0 C0 -34.85, 0 -69.7, 0 -91" stroke="#1e1e1e" stroke-width="1" fill="none"></path></g><g transform="translate(131.42695096610532 290) rotate(0 0 -45.5)"><path d="M0 0 L-6.34 -13.59 L6.34 -13.59 L0 0" stroke="none" stroke-width="0" fill="#1e1e1e" fill-rule="evenodd"></path><path d="M0 0 C-2.07 -4.44, -4.14 -8.88, -6.34 -13.59 M0 0 C-2.43 -5.21, -4.86 -10.41, -6.34 -13.59 M-6.34 -13.59 C-2.86 -13.59, 0.62 -13.59, 6.34 -13.59 M-6.34 -13.59 C-1.29 -13.59, 3.76 -13.59, 6.34 -13.59 M6.34 -13.59 C4.62 -9.9, 2.89 -6.21, 0 0 M6.34 -13.59 C4.63 -9.94, 2.93 -6.28, 0 0 M0 0 C0 0, 0 0, 0 0 M0 0 C0 0, 0 0, 0 0" stroke="#1e1e1e" stroke-width="1" fill="none"></path></g><g transform="translate(131.42695096610532 290) rotate(0 0 -45.5)"><path d="M0 -91 L6.34 -77.41 L-6.34 -77.41 L0 -91" stroke="none" stroke-width="0" fill="#1e1e1e" fill-rule="evenodd"></path><path d="M0 -91 C2.07 -86.56, 4.14 -82.12, 6.34 -77.41 M0 -91 C2.43 -85.79, 4.86 -80.59, 6.34 -77.41 M6.34 -77.41 C2.86 -77.41, -0.62 -77.41, -6.34 -77.41 M6.34 -77.41 C1.29 -77.41, -3.76 -77.41, -6.34 -77.41 M-6.34 -77.41 C-4.62 -81.1, -2.89 -84.79, 0 -91 M-6.34 -77.41 C-4.63 -81.06, -2.93 -84.72, 0 -91 M0 -91 C0 -91, 0 -91, 0 -91 M0 -91 C0 -91, 0 -91, 0 -91" stroke="#1e1e1e" stroke-width="1" fill="none"></path></g></g><mask></mask><g stroke-linecap="round"><g transform="translate(268.42695096610527 288) rotate(0 0 -45)"><path d="M0 0 C0 -32.46, 0 -64.92, 0 -90 M0 0 C0 -34.65, 0 -69.3, 0 -90" stroke="#1e1e1e" stroke-width="1" fill="none"></path></g><g transform="translate(268.42695096610527 288) rotate(0 0 -45)"><path d="M0 0 L-6.34 -13.59 L6.34 -13.59 L0 0" stroke="none" stroke-width="0" fill="#1e1e1e" fill-rule="evenodd"></path><path d="M0 0 C-2.29 -4.9, -4.57 -9.81, -6.34 -13.59 M0 0 C-2.44 -5.23, -4.88 -10.47, -6.34 -13.59 M-6.34 -13.59 C-2.74 -13.59, 0.86 -13.59, 6.34 -13.59 M-6.34 -13.59 C-3.68 -13.59, -1.02 -13.59, 6.34 -13.59 M6.34 -13.59 C4.49 -9.63, 2.64 -5.66, 0 0 M6.34 -13.59 C4.89 -10.5, 3.45 -7.4, 0 0 M0 0 C0 0, 0 0, 0 0 M0 0 C0 0, 0 0, 0 0" stroke="#1e1e1e" stroke-width="1" fill="none"></path></g><g transform="translate(268.42695096610527 288) rotate(0 0 -45)"><path d="M0 -90 L6.34 -76.41 L-6.34 -76.41 L0 -90" stroke="none" stroke-width="0" fill="#1e1e1e" fill-rule="evenodd"></path><path d="M0 -90 C2.29 -85.1, 4.57 -80.19, 6.34 -76.41 M0 -90 C2.44 -84.77, 4.88 -79.53, 6.34 -76.41 M6.34 -76.41 C2.74 -76.41, -0.86 -76.41, -6.34 -76.41 M6.34 -76.41 C3.68 -76.41, 1.02 -76.41, -6.34 -76.41 M-6.34 -76.41 C-4.49 -80.37, -2.64 -84.34, 0 -90 M-6.34 -76.41 C-4.89 -79.5, -3.45 -82.6, 0 -90 M0 -90 C0 -90, 0 -90, 0 -90 M0 -90 C0 -90, 0 -90, 0 -90" stroke="#1e1e1e" stroke-width="1" fill="none"></path></g></g><mask></mask><g stroke-linecap="round"><g transform="translate(308.42695096610527 288) rotate(0 0 -46)"><path d="M0 0 C0 -26.87, 0 -53.74, 0 -92 M0 0 C0 -35.39, 0 -70.77, 0 -92" stroke="#1e1e1e" stroke-width="1" fill="none"></path></g><g transform="translate(308.42695096610527 288) rotate(0 0 -46)"><path d="M0 0 L-6.34 -13.59 L6.34 -13.59 L0 0" stroke="none" stroke-width="0" fill="#1e1e1e" fill-rule="evenodd"></path><path d="M0 0 C-1.85 -3.97, -3.7 -7.94, -6.34 -13.59 M0 0 C-2.44 -5.23, -4.88 -10.46, -6.34 -13.59 M-6.34 -13.59 C-3.48 -13.59, -0.62 -13.59, 6.34 -13.59 M-6.34 -13.59 C-1.76 -13.59, 2.82 -13.59, 6.34 -13.59 M6.34 -13.59 C4.23 -9.08, 2.13 -4.56, 0 0 M6.34 -13.59 C3.85 -8.26, 1.36 -2.93, 0 0 M0 0 C0 0, 0 0, 0 0 M0 0 C0 0, 0 0, 0 0" stroke="#1e1e1e" stroke-width="1" fill="none"></path></g><g transform="translate(308.42695096610527 288) rotate(0 0 -46)"><path d="M0 -92 L6.34 -78.41 L-6.34 -78.41 L0 -92" stroke="none" stroke-width="0" fill="#1e1e1e" fill-rule="evenodd"></path><path d="M0 -92 C1.85 -88.03, 3.7 -84.06, 6.34 -78.41 M0 -92 C2.44 -86.77, 4.88 -81.54, 6.34 -78.41 M6.34 -78.41 C3.48 -78.41, 0.62 -78.41, -6.34 -78.41 M6.34 -78.41 C1.76 -78.41, -2.82 -78.41, -6.34 -78.41 M-6.34 -78.41 C-4.23 -82.92, -2.13 -87.44, 0 -92 M-6.34 -78.41 C-3.85 -83.74, -1.36 -89.07, 0 -92 M0 -92 C0 -92, 0 -92, 0 -92 M0 -92 C0 -92, 0 -92, 0 -92" stroke="#1e1e1e" stroke-width="1" fill="none"></path></g></g><mask></mask><g stroke-linecap="round"><g transform="translate(129.42695096610527 72) rotate(0 0 30.5)"><path d="M0 0 C0 13.73, 0 27.47, 0 61 M0 0 C0 13.72, 0 27.44, 0 61" stroke="#1e1e1e" stroke-width="1" fill="none"></path></g><g transform="translate(129.42695096610527 72) rotate(0 0 30.5)"><path d="M0 61 L-6.34 47.41 L6.34 47.41 L0 61" stroke="none" stroke-width="0" fill="#1e1e1e" fill-rule="evenodd"></path><path d="M0 61 C-1.43 57.94, -2.85 54.88, -6.34 47.41 M0 61 C-1.43 57.94, -2.85 54.88, -6.34 47.41 M-6.34 47.41 C-1.82 47.41, 2.7 47.41, 6.34 47.41 M-6.34 47.41 C-2.59 47.41, 1.16 47.41, 6.34 47.41 M6.34 47.41 C4.74 50.84, 3.14 54.27, 0 61 M6.34 47.41 C3.81 52.83, 1.28 58.26, 0 61 M0 61 C0 61, 0 61, 0 61 M0 61 C0 61, 0 61, 0 61" stroke="#1e1e1e" stroke-width="1" fill="none"></path></g></g><mask></mask><g mask="url(#mask-CPP7CqAVJytpiaO98jWfM)" stroke-linecap="round"><g transform="translate(324.4068633846278 72) rotate(0 0.5097622892538993 30)"><path d="M0 0 C0.31 18.34, 0.62 36.69, 1.02 60 M0 0 C0.38 22.37, 0.76 44.74, 1.02 60" stroke="#1e1e1e" stroke-width="1" fill="none"></path></g><g transform="translate(324.4068633846278 72) rotate(0 0.5097622892538993 30)"><path d="M1.02 60 L-5.55 46.52 L7.13 46.3 L1.02 60" stroke="none" stroke-width="0" fill="#1e1e1e" fill-rule="evenodd"></path><path d="M1.02 60 C-0.99 55.88, -3 51.75, -5.55 46.52 M1.02 60 C-1.43 54.97, -3.88 49.94, -5.55 46.52 M-5.55 46.52 C-0.98 46.44, 3.59 46.36, 7.13 46.3 M-5.55 46.52 C-1.44 46.45, 2.68 46.38, 7.13 46.3 M7.13 46.3 C4.9 51.3, 2.67 56.3, 1.02 60 M7.13 46.3 C4.8 51.52, 2.48 56.73, 1.02 60 M1.02 60 C1.02 60, 1.02 60, 1.02 60 M1.02 60 C1.02 60, 1.02 60, 1.02 60" stroke="#1e1e1e" stroke-width="1" fill="none"></path></g></g><mask id="mask-CPP7CqAVJytpiaO98jWfM"><rect x="0" y="0" fill="#fff" width="425.4263879631356" height="232"></rect><rect x="315.13146942388164" y="92.80000000000001" fill="#000" width="19.5703125" height="18.4" opacity="1"></rect></mask><g transform="translate(315.13146942388175 92.80000000000001) rotate(0 9.78515625 9.199999999999989)"><text x="9.78515625" y="0" font-family="Helvetica, Segoe UI Emoji" font-size="16px" fill="#1e1e1e" text-anchor="middle" style="white-space: pre;" direction="ltr" dominant-baseline="text-before-edge">En</text></g><g stroke-linecap="round"><g transform="translate(518.4269509661053 74) rotate(0 0.5 28)"><path d="M0 0 C0.39 22.02, 0.79 44.04, 1 56 M0 0 C0.36 19.93, 0.71 39.86, 1 56" stroke="#1e1e1e" stroke-width="1" fill="none"></path></g><g transform="translate(518.4269509661053 74) rotate(0 0.5 28)"><path d="M1 56 L-5.58 42.52 L7.1 42.29 L1 56" stroke="none" stroke-width="0" fill="#1e1e1e" fill-rule="evenodd"></path><path d="M1 56 C-1.59 50.7, -4.18 45.4, -5.58 42.52 M1 56 C-1.34 51.2, -3.68 46.41, -5.58 42.52 M-5.58 42.52 C-1.65 42.45, 2.28 42.38, 7.1 42.29 M-5.58 42.52 C-2.43 42.46, 0.72 42.41, 7.1 42.29 M7.1 42.29 C5.33 46.28, 3.55 50.26, 1 56 M7.1 42.29 C4.7 47.68, 2.31 53.06, 1 56 M1 56 C1 56, 1 56, 1 56 M1 56 C1 56, 1 56, 1 56" stroke="#1e1e1e" stroke-width="1" fill="none"></path></g></g><mask></mask><g stroke-linecap="round"><g transform="translate(462.42695096610527 290) rotate(0 0 -46)"><path d="M0 0 C0 -25.4, 0 -50.8, 0 -92 M0 0 C0 -33.63, 0 -67.26, 0 -92" stroke="#1e1e1e" stroke-width="1" fill="none"></path></g><g transform="translate(462.42695096610527 290) rotate(0 0 -46)"><path d="M0 -92 L6.34 -78.41 L-6.34 -78.41 L0 -92" stroke="none" stroke-width="0" fill="#1e1e1e" fill-rule="evenodd"></path><path d="M0 -92 C1.75 -88.25, 3.5 -84.49, 6.34 -78.41 M0 -92 C2.32 -87.03, 4.63 -82.06, 6.34 -78.41 M6.34 -78.41 C3.79 -78.41, 1.23 -78.41, -6.34 -78.41 M6.34 -78.41 C1.8 -78.41, -2.74 -78.41, -6.34 -78.41 M-6.34 -78.41 C-3.94 -83.56, -1.53 -88.71, 0 -92 M-6.34 -78.41 C-4.12 -83.16, -1.91 -87.91, 0 -92 M0 -92 C0 -92, 0 -92, 0 -92 M0 -92 C0 -92, 0 -92, 0 -92" stroke="#1e1e1e" stroke-width="1" fill="none"></path></g></g><mask></mask><g stroke-linecap="round"><g transform="translate(246.41099665065207 446.00000000000006) rotate(0 -0.25832782743310645 -47)"><path d="M0 0 C-0.16 -29.54, -0.32 -59.07, -0.52 -94 M0 0 C-0.11 -19.94, -0.22 -39.89, -0.52 -94" stroke="#1e1e1e" stroke-width="1" fill="none"></path></g><g transform="translate(246.41099665065207 446.00000000000006) rotate(0 -0.25832782743310645 -47)"><path d="M-0.52 -94 L5.9 -80.44 L-6.78 -80.37 L-0.52 -94" stroke="none" stroke-width="0" fill="#1e1e1e" fill-rule="evenodd"></path><path d="M-0.52 -94 C1.5 -89.74, 3.51 -85.48, 5.9 -80.44 M-0.52 -94 C0.84 -91.12, 2.21 -88.25, 5.9 -80.44 M5.9 -80.44 C1.08 -80.41, -3.74 -80.39, -6.78 -80.37 M5.9 -80.44 C2.84 -80.42, -0.22 -80.41, -6.78 -80.37 M-6.78 -80.37 C-4.51 -85.31, -2.24 -90.24, -0.52 -94 M-6.78 -80.37 C-4.6 -85.12, -2.42 -89.87, -0.52 -94 M-0.52 -94 C-0.52 -94, -0.52 -94, -0.52 -94 M-0.52 -94 C-0.52 -94, -0.52 -94, -0.52 -94" stroke="#1e1e1e" stroke-width="1" fill="none"></path></g></g><mask></mask><g stroke-linecap="round"><g transform="translate(323.42696759150266 446.00000000000006) rotate(0 -0.000006052977653325797 -46.5)"><path d="M0 0 C0 -28, 0 -55.99, 0 -93 M0 0 C0 -23.54, 0 -47.09, 0 -93" stroke="#1e1e1e" stroke-width="1" fill="none"></path></g><g transform="translate(323.42696759150266 446.00000000000006) rotate(0 -0.000006052977653325797 -46.5)"><path d="M0 -93 L6.34 -79.41 L-6.34 -79.41 L0 -93" stroke="none" stroke-width="0" fill="#1e1e1e" fill-rule="evenodd"></path><path d="M0 -93 C1.91 -88.91, 3.82 -84.81, 6.34 -79.41 M0 -93 C1.6 -89.56, 3.21 -86.12, 6.34 -79.41 M6.34 -79.41 C1.7 -79.41, -2.94 -79.41, -6.34 -79.41 M6.34 -79.41 C3.63 -79.41, 0.92 -79.41, -6.34 -79.41 M-6.34 -79.41 C-4.07 -84.28, -1.79 -89.16, 0 -93 M-6.34 -79.41 C-4.39 -83.58, -2.44 -87.76, 0 -93 M0 -93 C0 -93, 0 -93, 0 -93 M0 -93 C0 -93, 0 -93, 0 -93" stroke="#1e1e1e" stroke-width="1" fill="none"></path></g></g><mask></mask><g stroke-linecap="round"><g transform="translate(364.4270261306113 446.00000000000006) rotate(0 -0.000026488252217404806 -46.5)"><path d="M0 0 C0 -35.34, 0 -70.68, 0 -93 M0 0 C0 -22.85, 0 -45.7, 0 -93" stroke="#1e1e1e" stroke-width="1" fill="none"></path></g><g transform="translate(364.4270261306113 446.00000000000006) rotate(0 -0.000026488252217404806 -46.5)"><path d="M0 -93 L6.34 -79.41 L-6.34 -79.41 L0 -93" stroke="none" stroke-width="0" fill="#1e1e1e" fill-rule="evenodd"></path><path d="M0 -93 C2.41 -87.83, 4.82 -82.67, 6.34 -79.41 M0 -93 C1.56 -89.66, 3.12 -86.32, 6.34 -79.41 M6.34 -79.41 C1.66 -79.41, -3.01 -79.41, -6.34 -79.41 M6.34 -79.41 C1.54 -79.41, -3.25 -79.41, -6.34 -79.41 M-6.34 -79.41 C-3.84 -84.76, -1.35 -90.11, 0 -93 M-6.34 -79.41 C-4.47 -83.42, -2.59 -87.44, 0 -93 M0 -93 C0 -93, 0 -93, 0 -93 M0 -93 C0 -93, 0 -93, 0 -93" stroke="#1e1e1e" stroke-width="1" fill="none"></path></g></g><mask></mask><g stroke-linecap="round"><g transform="translate(404.7303656812218 446.00000000000006) rotate(0 -0.5184660175907538 -47)"><path d="M0 0 C-0.26 -23.28, -0.51 -46.57, -1.04 -94 M0 0 C-0.26 -23.48, -0.52 -46.95, -1.04 -94" stroke="#1e1e1e" stroke-width="1" fill="none"></path></g><g transform="translate(404.7303656812218 446.00000000000006) rotate(0 -0.5184660175907538 -47)"><path d="M0 0 L-6.49 -13.52 L6.19 -13.66 L0 0" stroke="none" stroke-width="0" fill="#1e1e1e" fill-rule="evenodd"></path><path d="M0 0 C-1.61 -3.35, -3.21 -6.7, -6.49 -13.52 M0 0 C-1.62 -3.38, -3.24 -6.76, -6.49 -13.52 M-6.49 -13.52 C-2.4 -13.57, 1.68 -13.61, 6.19 -13.66 M-6.49 -13.52 C-2.99 -13.56, 0.5 -13.6, 6.19 -13.66 M6.19 -13.66 C4.25 -9.38, 2.31 -5.09, 0 0 M6.19 -13.66 C3.81 -8.4, 1.42 -3.15, 0 0 M0 0 C0 0, 0 0, 0 0 M0 0 C0 0, 0 0, 0 0" stroke="#1e1e1e" stroke-width="1" fill="none"></path></g></g><mask></mask><g stroke-linecap="round"><g transform="translate(284.3338702568008 444.00000000000006) rotate(0 0.3669419198494097 -45.5)"><path d="M0 0 C0.21 -25.63, 0.41 -51.27, 0.73 -91 M0 0 C0.17 -20.67, 0.33 -41.33, 0.73 -91" stroke="#1e1e1e" stroke-width="1" fill="none"></path></g><g transform="translate(284.3338702568008 444.00000000000006) rotate(0 0.3669419198494097 -45.5)"><path d="M0 0 L-6.23 -13.65 L6.45 -13.54 L0 0" stroke="none" stroke-width="0" fill="#1e1e1e" fill-rule="evenodd"></path><path d="M0 0 C-1.75 -3.84, -3.51 -7.69, -6.23 -13.65 M0 0 C-1.41 -3.1, -2.83 -6.2, -6.23 -13.65 M-6.23 -13.65 C-2.32 -13.61, 1.59 -13.58, 6.45 -13.54 M-6.23 -13.65 C-3.23 -13.62, -0.23 -13.6, 6.45 -13.54 M6.45 -13.54 C4.52 -9.48, 2.58 -5.43, 0 0 M6.45 -13.54 C4.51 -9.47, 2.57 -5.39, 0 0 M0 0 C0 0, 0 0, 0 0 M0 0 C0 0, 0 0, 0 0" stroke="#1e1e1e" stroke-width="1" fill="none"></path></g><g transform="translate(284.3338702568008 444.00000000000006) rotate(0 0.3669419198494097 -45.5)"><path d="M0.73 -91 L6.96 -77.35 L-5.71 -77.46 L0.73 -91" stroke="none" stroke-width="0" fill="#1e1e1e" fill-rule="evenodd"></path><path d="M0.73 -91 C2.49 -87.16, 4.24 -83.31, 6.96 -77.35 M0.73 -91 C2.15 -87.9, 3.56 -84.8, 6.96 -77.35 M6.96 -77.35 C3.05 -77.39, -0.86 -77.42, -5.71 -77.46 M6.96 -77.35 C3.96 -77.38, 0.96 -77.4, -5.71 -77.46 M-5.71 -77.46 C-3.78 -81.52, -1.85 -85.57, 0.73 -91 M-5.71 -77.46 C-3.77 -81.53, -1.83 -85.61, 0.73 -91 M0.73 -91 C0.73 -91, 0.73 -91, 0.73 -91 M0.73 -91 C0.73 -91, 0.73 -91, 0.73 -91" stroke="#1e1e1e" stroke-width="1" fill="none"></path></g></g><mask></mask><g stroke-linecap="round"><g transform="translate(518.4269509661053 290) rotate(0 0 -46)"><path d="M0 0 C0 -28.27, 0 -56.53, 0 -92 M0 0 C0 -22.78, 0 -45.57, 0 -92" stroke="#1e1e1e" stroke-width="1" fill="none"></path></g><g transform="translate(518.4269509661053 290) rotate(0 0 -46)"><path d="M0 0 L-6.34 -13.59 L6.34 -13.59 L0 0" stroke="none" stroke-width="0" fill="#1e1e1e" fill-rule="evenodd"></path><path d="M0 0 C-1.95 -4.18, -3.9 -8.35, -6.34 -13.59 M0 0 C-1.57 -3.37, -3.14 -6.73, -6.34 -13.59 M-6.34 -13.59 C-1.68 -13.59, 2.98 -13.59, 6.34 -13.59 M-6.34 -13.59 C-2.26 -13.59, 1.82 -13.59, 6.34 -13.59 M6.34 -13.59 C4.66 -9.99, 2.98 -6.39, 0 0 M6.34 -13.59 C4.29 -9.19, 2.24 -4.79, 0 0 M0 0 C0 0, 0 0, 0 0 M0 0 C0 0, 0 0, 0 0" stroke="#1e1e1e" stroke-width="1" fill="none"></path></g><g transform="translate(518.4269509661053 290) rotate(0 0 -46)"><path d="M0 -92 L6.34 -78.41 L-6.34 -78.41 L0 -92" stroke="none" stroke-width="0" fill="#1e1e1e" fill-rule="evenodd"></path><path d="M0 -92 C1.95 -87.82, 3.9 -83.65, 6.34 -78.41 M0 -92 C1.57 -88.63, 3.14 -85.27, 6.34 -78.41 M6.34 -78.41 C1.68 -78.41, -2.98 -78.41, -6.34 -78.41 M6.34 -78.41 C2.26 -78.41, -1.82 -78.41, -6.34 -78.41 M-6.34 -78.41 C-4.66 -82.01, -2.98 -85.61, 0 -92 M-6.34 -78.41 C-4.29 -82.81, -2.24 -87.21, 0 -92 M0 -92 C0 -92, 0 -92, 0 -92 M0 -92 C0 -92, 0 -92, 0 -92" stroke="#1e1e1e" stroke-width="1" fill="none"></path></g></g><mask></mask><g stroke-linecap="round"><g transform="translate(573.4269509661053 290) rotate(0 0 -46)"><path d="M0 0 C0 -20.64, 0 -41.29, 0 -92 M0 0 C0 -21.04, 0 -42.08, 0 -92" stroke="#1e1e1e" stroke-width="1" fill="none"></path></g><g transform="translate(573.4269509661053 290) rotate(0 0 -46)"><path d="M0 -92 L6.34 -78.41 L-6.34 -78.41 L0 -92" stroke="none" stroke-width="0" fill="#1e1e1e" fill-rule="evenodd"></path><path d="M0 -92 C1.42 -88.95, 2.85 -85.9, 6.34 -78.41 M0 -92 C1.45 -88.89, 2.9 -85.78, 6.34 -78.41 M6.34 -78.41 C3.46 -78.41, 0.58 -78.41, -6.34 -78.41 M6.34 -78.41 C3.22 -78.41, 0.11 -78.41, -6.34 -78.41 M-6.34 -78.41 C-4.52 -82.3, -2.7 -86.2, 0 -92 M-6.34 -78.41 C-4.87 -81.55, -3.41 -84.7, 0 -92 M0 -92 C0 -92, 0 -92, 0 -92 M0 -92 C0 -92, 0 -92, 0 -92" stroke="#1e1e1e" stroke-width="1" fill="none"></path></g></g><mask></mask><g transform="translate(-9.929705718623325 170.55112536212914) rotate(270.4260078206093 29.34765625 9.199999999999989)"><text x="0" y="0" font-family="Helvetica, Segoe UI Emoji" font-size="16px" fill="#1e1e1e" text-anchor="start" style="white-space: pre;" direction="ltr" dominant-baseline="text-before-edge">Address</text></g><g transform="translate(46.42695096610527 237.00000000000006) rotate(270.4260078206093 16.8984375 9.199999999999989)"><text x="0" y="0" font-family="Helvetica, Segoe UI Emoji" font-size="16px" fill="#1e1e1e" text-anchor="start" style="white-space: pre;" direction="ltr" dominant-baseline="text-before-edge">Addr</text></g><g transform="translate(215.42695096610527 391.00000000000006) rotate(270.4260078206093 16.8984375 9.199999999999989)"><text x="0" y="0" font-family="Helvetica, Segoe UI Emoji" font-size="16px" fill="#1e1e1e" text-anchor="start" style="white-space: pre;" direction="ltr" dominant-baseline="text-before-edge">Addr</text></g><g transform="translate(293.7645871619732 394.3476189990793) rotate(270.4260078206093 15.55078125 9.199999999999989)"><text x="0" y="0" font-family="Helvetica, Segoe UI Emoji" font-size="16px" fill="#1e1e1e" text-anchor="start" style="white-space: pre;" direction="ltr" dominant-baseline="text-before-edge">R/W</text></g><g transform="translate(237.42695096610527 236.00000000000006) rotate(270.4260078206093 16.8984375 9.199999999999989)"><text x="0" y="0" font-family="Helvetica, Segoe UI Emoji" font-size="16px" fill="#1e1e1e" text-anchor="start" style="white-space: pre;" direction="ltr" dominant-baseline="text-before-edge">Addr</text></g><g transform="translate(437.16909359242555 241.78499634097489) rotate(270.4260078206093 11.11328125 9.199999999999989)"><text x="0" y="0" font-family="Helvetica, Segoe UI Emoji" font-size="16px" fill="#1e1e1e" text-anchor="start" style="white-space: pre;" direction="ltr" dominant-baseline="text-before-edge">RS</text></g><g transform="translate(487.42695096610527 237.00000000000006) rotate(270.4260078206093 16.8984375 9.199999999999989)"><text x="0" y="0" font-family="Helvetica, Segoe UI Emoji" font-size="16px" fill="#1e1e1e" text-anchor="start" style="white-space: pre;" direction="ltr" dominant-baseline="text-before-edge">Data</text></g><g transform="translate(542.7645871619732 237.34761899907926) rotate(270.4260078206093 15.55078125 9.199999999999989)"><text x="0" y="0" font-family="Helvetica, Segoe UI Emoji" font-size="16px" fill="#1e1e1e" text-anchor="start" style="white-space: pre;" direction="ltr" dominant-baseline="text-before-edge">R/W</text></g><g transform="translate(276.42695096610527 237.00000000000006) rotate(270.4260078206093 16.8984375 9.199999999999989)"><text x="0" y="0" font-family="Helvetica, Segoe UI Emoji" font-size="16px" fill="#1e1e1e" text-anchor="start" style="white-space: pre;" direction="ltr" dominant-baseline="text-before-edge">Data</text></g><g transform="translate(310.01856732928803 232.55871651607816) rotate(270.4260078206093 21.33984375 9.199999999999989)"><text x="0" y="0" font-family="Helvetica, Segoe UI Emoji" font-size="16px" fill="#1e1e1e" text-anchor="start" style="white-space: pre;" direction="ltr" dominant-baseline="text-before-edge">HLDA</text></g><g transform="translate(330.01856732928803 388.5587165160783) rotate(270.4260078206093 21.33984375 9.199999999999989)"><text x="0" y="0" font-family="Helvetica, Segoe UI Emoji" font-size="16px" fill="#1e1e1e" text-anchor="start" style="white-space: pre;" direction="ltr" dominant-baseline="text-before-edge">HLDA</text></g><g transform="translate(348.55457953401736 236.12111804407886) rotate(270.4260078206093 17.77734375 9.199999999999989)"><text x="0" y="0" font-family="Helvetica, Segoe UI Emoji" font-size="16px" fill="#1e1e1e" text-anchor="start" style="white-space: pre;" direction="ltr" dominant-baseline="text-before-edge">HRQ</text></g><g transform="translate(368.13844148447055 386.6720222761044) rotate(270.4260078206093 22.2265625 9.199999999999989)"><text x="0" y="0" font-family="Helvetica, Segoe UI Emoji" font-size="16px" fill="#1e1e1e" text-anchor="start" style="white-space: pre;" direction="ltr" dominant-baseline="text-before-edge">HOLD</text></g><g transform="translate(100.42695096610527 239.00000000000006) rotate(270.4260078206093 16.8984375 9.199999999999989)"><text x="0" y="0" font-family="Helvetica, Segoe UI Emoji" font-size="16px" fill="#1e1e1e" text-anchor="start" style="white-space: pre;" direction="ltr" dominant-baseline="text-before-edge">Data</text></g><g transform="translate(254.42695096610527 393.00000000000006) rotate(270.4260078206093 16.8984375 9.199999999999989)"><text x="0" y="0" font-family="Helvetica, Segoe UI Emoji" font-size="16px" fill="#1e1e1e" text-anchor="start" style="white-space: pre;" direction="ltr" dominant-baseline="text-before-edge">Data</text></g><g transform="translate(155.76458716197322 238.34761899907932) rotate(270.4260078206093 15.55078125 9.199999999999989)"><text x="0" y="0" font-family="Helvetica, Segoe UI Emoji" font-size="16px" fill="#1e1e1e" text-anchor="start" style="white-space: pre;" direction="ltr" dominant-baseline="text-before-edge">R/W</text></g></svg>