<?xml version="1.0" encoding="UTF-8" standalone="no"?>
<svg style="background-color: white;" xmlns="http://www.w3.org/2000/svg" version="1.1" viewBox="0 0 1753 523">
   <polyline fill="none" points="694,336 904,336" stroke="rgb(0, 0, 0)" stroke-linecap="square" stroke-width="4.0"/>
   <polyline fill="none" points="394,256 1054,256" stroke="rgb(0, 0, 0)" stroke-linecap="square" stroke-width="4.0"/>
   <polyline fill="none" points="934,326 964,326" stroke="rgb(0, 0, 0)" stroke-linecap="square" stroke-width="4.0"/>
   <polyline fill="none" points="154,446 154,496 1524,496" stroke="rgb(0, 100, 0)" stroke-linecap="square" stroke-width="3.0"/>
   <polyline fill="none" points="134,386 144,386" stroke="rgb(0, 0, 0)" stroke-linecap="square" stroke-width="4.0"/>
   <polyline fill="none" points="1424,486 1524,486" stroke="rgb(0, 100, 0)" stroke-linecap="square" stroke-width="3.0"/>
   <polyline fill="none" points="1594,456 1554,456 1554,476" stroke="rgb(0, 100, 0)" stroke-linecap="square" stroke-width="3.0"/>
   <polyline fill="none" points="384,86 384,76 1014,76" stroke="rgb(0, 100, 0)" stroke-linecap="square" stroke-width="3.0"/>
   <polyline fill="none" points="904,116 834,116 834,246 394,246" stroke="rgb(0, 0, 0)" stroke-linecap="square" stroke-width="4.0"/>
   <polyline fill="none" points="994,186 1034,186" stroke="rgb(0, 0, 0)" stroke-linecap="square" stroke-width="4.0"/>
   <polyline fill="none" points="394,126 604,126" stroke="rgb(0, 0, 0)" stroke-linecap="square" stroke-width="4.0"/>
   <polyline fill="none" points="394,266 1054,266" stroke="rgb(0, 100, 0)" stroke-linecap="square" stroke-width="3.0"/>
   <polyline fill="none" points="214,56 214,486 344,486 344,296" stroke="rgb(0, 100, 0)" stroke-linecap="square" stroke-width="3.0"/>
   <polyline fill="none" points="1574,506 1594,506" stroke="rgb(0, 100, 0)" stroke-linecap="square" stroke-width="3.0"/>
   <polyline fill="none" points="374,296 374,416 1594,416" stroke="rgb(0, 100, 0)" stroke-linecap="square" stroke-width="3.0"/>
   <polyline fill="none" points="844,106 904,106" stroke="rgb(0, 0, 0)" stroke-linecap="square" stroke-width="4.0"/>
   <polyline fill="none" points="1184,266 1184,486 1424,486 1424,246" stroke="rgb(0, 100, 0)" stroke-linecap="square" stroke-width="3.0"/>
   <polyline fill="none" points="1304,236 1274,236 1274,396 1594,396" stroke="rgb(0, 0, 0)" stroke-linecap="square" stroke-width="4.0"/>
   <polyline fill="none" points="994,96 1014,96" stroke="rgb(0, 210, 0)" stroke-linecap="square" stroke-width="3.0"/>
   <polyline fill="none" points="344,486 504,486" stroke="rgb(0, 100, 0)" stroke-linecap="square" stroke-width="3.0"/>
   <polyline fill="none" points="394,236 524,236 1054,236" stroke="rgb(0, 0, 0)" stroke-linecap="square" stroke-width="4.0"/>
   <polyline fill="none" points="1084,76 1094,76 1094,26 244,26" stroke="rgb(0, 100, 0)" stroke-linecap="square" stroke-width="3.0"/>
   <polyline fill="none" points="394,96 604,96" stroke="rgb(0, 0, 0)" stroke-linecap="square" stroke-width="4.0"/>
   <polyline fill="none" points="394,136 604,136" stroke="rgb(0, 100, 0)" stroke-linecap="square" stroke-width="3.0"/>
   <polyline fill="none" points="1304,226 1264,226 1264,376 834,376 834,246 1054,246" stroke="rgb(0, 0, 0)" stroke-linecap="square" stroke-width="4.0"/>
   <polyline fill="none" points="934,186 964,186" stroke="rgb(0, 0, 0)" stroke-linecap="square" stroke-width="4.0"/>
   <polyline fill="none" points="1584,376 1594,376" stroke="rgb(0, 0, 0)" stroke-linecap="square" stroke-width="4.0"/>
   <polyline fill="none" points="364,296 364,396 1274,396" stroke="rgb(0, 0, 0)" stroke-linecap="square" stroke-width="4.0"/>
   <polyline fill="none" points="384,296 384,346 604,346" stroke="rgb(0, 0, 0)" stroke-linecap="square" stroke-width="4.0"/>
   <polyline fill="none" points="1384,236 1414,236" stroke="rgb(0, 0, 0)" stroke-linecap="square" stroke-width="4.0"/>
   <polyline fill="none" points="244,16 1464,16 1464,246 1504,246" stroke="rgb(0, 0, 0)" stroke-linecap="square" stroke-width="4.0"/>
   <polyline fill="none" points="244,46 1144,46 1144,256 1174,256" stroke="rgb(0, 0, 0)" stroke-linecap="square" stroke-width="4.0"/>
   <polyline fill="none" points="244,36 824,36 824,196 824,376 174,376" stroke="rgb(0, 0, 0)" stroke-linecap="square" stroke-width="4.0"/>
   <polyline fill="none" points="204,56 204,456 334,456" stroke="rgb(0, 100, 0)" stroke-linecap="square" stroke-width="3.0"/>
   <polyline fill="none" points="824,196 904,196" stroke="rgb(0, 0, 0)" stroke-linecap="square" stroke-width="4.0"/>
   <polyline fill="none" points="1264,376 1564,376" stroke="rgb(0, 0, 0)" stroke-linecap="square" stroke-width="4.0"/>
   <polyline fill="none" points="854,96 904,96" stroke="rgb(0, 0, 0)" stroke-linecap="square" stroke-width="4.0"/>
   <polyline fill="none" points="694,96 854,96 854,176 904,176" stroke="rgb(0, 0, 0)" stroke-linecap="square" stroke-width="4.0"/>
   <polyline fill="none" points="1434,246 1434,456 1194,456 1194,266" stroke="rgb(0, 100, 0)" stroke-linecap="square" stroke-width="3.0"/>
   <polyline fill="none" points="354,296 354,426 1524,426 1524,276" stroke="rgb(0, 0, 0)" stroke-linecap="square" stroke-width="4.0"/>
   <polyline fill="none" points="694,106 844,106 844,316 904,316" stroke="rgb(0, 0, 0)" stroke-linecap="square" stroke-width="4.0"/>
   <polyline fill="none" points="1444,236 1504,236" stroke="rgb(0, 0, 0)" stroke-linecap="square" stroke-width="4.0"/>
   <polyline fill="none" points="604,116 494,116 494,406 1554,406 1554,256 1544,256" stroke="rgb(0, 0, 0)" stroke-linecap="square" stroke-width="4.0"/>
   <polyline fill="none" points="974,196 974,336 974,486 504,486 504,146 604,146" stroke="rgb(0, 100, 0)" stroke-linecap="square" stroke-width="3.0"/>
   <polyline fill="none" points="1434,456 1554,456" stroke="rgb(0, 100, 0)" stroke-linecap="square" stroke-width="3.0"/>
   <polyline fill="none" points="974,486 1184,486" stroke="rgb(0, 100, 0)" stroke-linecap="square" stroke-width="3.0"/>
   <polyline fill="none" points="334,296 334,456 514,456 984,456 1194,456" stroke="rgb(0, 100, 0)" stroke-linecap="square" stroke-width="3.0"/>
   <polyline fill="none" points="1204,256 1234,256 1504,256" stroke="rgb(0, 0, 0)" stroke-linecap="square" stroke-width="4.0"/>
   <polyline fill="none" points="604,156 514,156 514,456" stroke="rgb(0, 100, 0)" stroke-linecap="square" stroke-width="3.0"/>
   <polyline fill="none" points="394,106 604,106" stroke="rgb(0, 0, 0)" stroke-linecap="square" stroke-width="4.0"/>
   <polyline fill="none" points="524,236 524,336 604,336" stroke="rgb(0, 0, 0)" stroke-linecap="square" stroke-width="4.0"/>
   <polyline fill="none" points="1234,256 1234,446 184,446 184,396 174,396" stroke="rgb(0, 0, 0)" stroke-linecap="square" stroke-width="4.0"/>
   <polyline fill="none" points="994,326 1014,326 1014,366 1464,366 1464,266 1504,266" stroke="rgb(0, 0, 0)" stroke-linecap="square" stroke-width="4.0"/>
   <polyline fill="none" points="1114,256 1144,256" stroke="rgb(0, 0, 0)" stroke-linecap="square" stroke-width="4.0"/>
   <polyline fill="none" points="1574,486 1594,486" stroke="rgb(0, 100, 0)" stroke-linecap="square" stroke-width="3.0"/>
   <polyline fill="none" points="844,316 844,436 1594,436" stroke="rgb(0, 0, 0)" stroke-linecap="square" stroke-width="4.0"/>
   <polyline fill="none" points="984,196 984,336 984,456" stroke="rgb(0, 100, 0)" stroke-linecap="square" stroke-width="3.0"/>
   <polyline fill="none" points="224,56 224,436 314,436 314,296" stroke="rgb(0, 100, 0)" stroke-linecap="square" stroke-width="3.0"/>
   <polyline fill="none" points="324,466 1544,466 1544,476" stroke="rgb(0, 100, 0)" stroke-linecap="square" stroke-width="3.0"/>
   <polyline fill="none" points="1014,326 1034,326" stroke="rgb(0, 0, 0)" stroke-linecap="square" stroke-width="4.0"/>
   <ellipse cx="974.0" cy="336.0" fill="rgb(0, 100, 0)" rx="5.0" ry="5.0" stroke="none" stroke-width="3.0"/>
   <ellipse cx="1184.0" cy="486.0" fill="rgb(0, 100, 0)" rx="5.0" ry="5.0" stroke="none" stroke-width="3.0"/>
   <ellipse cx="1424.0" cy="486.0" fill="rgb(0, 100, 0)" rx="5.0" ry="5.0" stroke="none" stroke-width="3.0"/>
   <ellipse cx="1194.0" cy="456.0" fill="rgb(0, 100, 0)" rx="5.0" ry="5.0" stroke="none" stroke-width="3.0"/>
   <ellipse cx="524.0" cy="236.0" fill="rgb(0, 0, 0)" rx="6.0" ry="6.0" stroke="none" stroke-width="3.0"/>
   <ellipse cx="1434.0" cy="456.0" fill="rgb(0, 100, 0)" rx="5.0" ry="5.0" stroke="none" stroke-width="3.0"/>
   <ellipse cx="1234.0" cy="256.0" fill="rgb(0, 0, 0)" rx="6.0" ry="6.0" stroke="none" stroke-width="3.0"/>
   <ellipse cx="844.0" cy="316.0" fill="rgb(0, 0, 0)" rx="6.0" ry="6.0" stroke="none" stroke-width="3.0"/>
   <ellipse cx="984.0" cy="336.0" fill="rgb(0, 100, 0)" rx="5.0" ry="5.0" stroke="none" stroke-width="3.0"/>
   <ellipse cx="1144.0" cy="256.0" fill="rgb(0, 0, 0)" rx="6.0" ry="6.0" stroke="none" stroke-width="3.0"/>
   <ellipse cx="1264.0" cy="376.0" fill="rgb(0, 0, 0)" rx="6.0" ry="6.0" stroke="none" stroke-width="3.0"/>
   <ellipse cx="824.0" cy="196.0" fill="rgb(0, 0, 0)" rx="6.0" ry="6.0" stroke="none" stroke-width="3.0"/>
   <ellipse cx="344.0" cy="486.0" fill="rgb(0, 100, 0)" rx="5.0" ry="5.0" stroke="none" stroke-width="3.0"/>
   <ellipse cx="154.0" cy="496.0" fill="rgb(0, 100, 0)" rx="5.0" ry="5.0" stroke="none" stroke-width="3.0"/>
   <ellipse cx="844.0" cy="106.0" fill="rgb(0, 0, 0)" rx="6.0" ry="6.0" stroke="none" stroke-width="3.0"/>
   <ellipse cx="854.0" cy="96.0" fill="rgb(0, 0, 0)" rx="6.0" ry="6.0" stroke="none" stroke-width="3.0"/>
   <ellipse cx="1274.0" cy="396.0" fill="rgb(0, 0, 0)" rx="6.0" ry="6.0" stroke="none" stroke-width="3.0"/>
   <ellipse cx="974.0" cy="486.0" fill="rgb(0, 100, 0)" rx="5.0" ry="5.0" stroke="none" stroke-width="3.0"/>
   <ellipse cx="504.0" cy="486.0" fill="rgb(0, 100, 0)" rx="5.0" ry="5.0" stroke="none" stroke-width="3.0"/>
   <ellipse cx="984.0" cy="456.0" fill="rgb(0, 100, 0)" rx="5.0" ry="5.0" stroke="none" stroke-width="3.0"/>
   <ellipse cx="834.0" cy="246.0" fill="rgb(0, 0, 0)" rx="6.0" ry="6.0" stroke="none" stroke-width="3.0"/>
   <ellipse cx="1554.0" cy="456.0" fill="rgb(0, 100, 0)" rx="5.0" ry="5.0" stroke="none" stroke-width="3.0"/>
   <ellipse cx="514.0" cy="456.0" fill="rgb(0, 100, 0)" rx="5.0" ry="5.0" stroke="none" stroke-width="3.0"/>
   <ellipse cx="324.0" cy="466.0" fill="rgb(0, 100, 0)" rx="5.0" ry="5.0" stroke="none" stroke-width="3.0"/>
   <ellipse cx="1014.0" cy="326.0" fill="rgb(0, 0, 0)" rx="6.0" ry="6.0" stroke="none" stroke-width="3.0"/>
   <ellipse cx="334.0" cy="456.0" fill="rgb(0, 100, 0)" rx="5.0" ry="5.0" stroke="none" stroke-width="3.0"/>
   <polyline fill="none" points="121,496 124,496 154,496" stroke="rgb(0, 100, 0)" stroke-linecap="square" stroke-width="3.0"/>
   <polygon fill="none" points="95,505 85,496 95,487 119,487 119,505" stroke="rgb(0, 0, 0)" stroke-linecap="square" stroke-width="2.0"/>
   <text fill="rgb(0, 0, 255)" font-family="Segoe UI" font-size="12" x="109.0" y="503.0">b</text>
   <text fill="rgb(0, 0, 0)" font-family="Segoe UI" font-size="12" x="101.0" y="500.0">0</text>
   <text fill="rgb(0, 0, 255)" font-family="Segoe UI" font-size="16" font-weight="bold" x="37.0" y="504.0">HLDA</text>
   <ellipse cx="124.0" cy="496.0" fill="rgb(0, 100, 0)" rx="2.0" ry="2.0" stroke="none" stroke-width="2.0"/>
   <polyline fill="none" points="1584,376 1570,376" stroke="rgb(0, 0, 0)" stroke-linecap="square" stroke-width="3.0"/>
   <polyline fill="none" points="1565,376 1570,376" stroke="rgb(0, 0, 0)" stroke-linecap="square" stroke-width="5.0"/>
   <ellipse cx="1570.0" cy="375.0" fill="rgb(0, 0, 0)" rx="3.5" ry="3.5" stroke="none" stroke-width="5.0"/>
   <text fill="rgb(0, 0, 0)" font-family="SansSerif" font-size="7" x="1573.0" y="373.0">1-0</text>
   <ellipse cx="1564.0" cy="376.0" fill="rgb(0, 0, 0)" rx="2.0" ry="2.0" stroke="none" stroke-width="5.0"/>
   <ellipse cx="1584.0" cy="376.0" fill="rgb(0, 0, 0)" rx="2.0" ry="2.0" stroke="none" stroke-width="5.0"/>
   <polyline fill="none" points="1598,376 1597,376" stroke="rgb(0, 0, 0)" stroke-linecap="square" stroke-width="4.0"/>
   <polygon fill="none" points="1624,367 1634,376 1624,385 1600,385 1600,367" stroke="rgb(0, 0, 0)" stroke-linecap="square" stroke-width="2.0"/>
   <text fill="rgb(0, 0, 255)" font-family="Segoe UI" font-size="12" x="1619.0" y="383.0">h</text>
   <text fill="rgb(0, 0, 0)" font-family="Segoe UI" font-size="12" x="1612.0" y="381.0">0</text>
   <text fill="rgb(0, 0, 255)" font-family="Segoe UI" font-size="16" font-weight="bold" x="1636.0" y="384.0">DataAlign</text>
   <ellipse cx="1594.0" cy="376.0" fill="rgb(0, 0, 0)" rx="2.0" ry="2.0" stroke="none" stroke-width="2.0"/>
   <polyline fill="none" points="1598,396 1595,396" stroke="rgb(0, 0, 0)" stroke-linecap="square" stroke-width="4.0"/>
   <polygon fill="none" points="1610,387 1600,396 1610,405 1684,405 1684,387" stroke="rgb(0, 0, 0)" stroke-linecap="square" stroke-width="2.0"/>
   <text fill="rgb(0, 0, 255)" font-family="Segoe UI" font-size="12" x="1674.0" y="403.0">h</text>
   <text fill="rgb(0, 0, 0)" font-family="Segoe UI" font-size="12" x="1667.0" y="401.0">0</text>
   <text fill="rgb(0, 0, 0)" font-family="Segoe UI" font-size="12" x="1659.0" y="401.0">0</text>
   <text fill="rgb(0, 0, 0)" font-family="Segoe UI" font-size="12" x="1651.0" y="401.0">0</text>
   <text fill="rgb(0, 0, 0)" font-family="Segoe UI" font-size="12" x="1643.0" y="401.0">0</text>
   <text fill="rgb(0, 0, 0)" font-family="Segoe UI" font-size="12" x="1635.0" y="401.0">0</text>
   <text fill="rgb(0, 0, 0)" font-family="Segoe UI" font-size="12" x="1627.0" y="401.0">0</text>
   <text fill="rgb(0, 0, 0)" font-family="Segoe UI" font-size="12" x="1619.0" y="401.0">0</text>
   <text fill="rgb(0, 0, 0)" font-family="Segoe UI" font-size="12" x="1611.0" y="401.0">0</text>
   <text fill="rgb(0, 0, 255)" font-family="Segoe UI" font-size="16" font-weight="bold" x="1686.0" y="404.0">DataIn</text>
   <ellipse cx="1594.0" cy="396.0" fill="rgb(0, 0, 0)" rx="2.0" ry="2.0" stroke="none" stroke-width="2.0"/>
   <polyline fill="none" points="1598,416 1595,416" stroke="rgb(0, 100, 0)" stroke-linecap="square" stroke-width="3.0"/>
   <polygon fill="none" points="1624,407 1634,416 1624,425 1600,425 1600,407" stroke="rgb(0, 0, 0)" stroke-linecap="square" stroke-width="2.0"/>
   <text fill="rgb(0, 0, 255)" font-family="Segoe UI" font-size="12" x="1619.0" y="423.0">b</text>
   <text fill="rgb(0, 0, 0)" font-family="Segoe UI" font-size="12" x="1611.0" y="420.0">0</text>
   <text fill="rgb(0, 0, 255)" font-family="Segoe UI" font-size="16" font-weight="bold" x="1636.0" y="424.0">RW</text>
   <ellipse cx="1594.0" cy="416.0" fill="rgb(0, 100, 0)" rx="2.0" ry="2.0" stroke="none" stroke-width="2.0"/>
   <polyline fill="none" points="1598,436 1597,436" stroke="rgb(0, 0, 0)" stroke-linecap="square" stroke-width="4.0"/>
   <polygon fill="none" points="1674,427 1684,436 1674,445 1600,445 1600,427" stroke="rgb(0, 0, 0)" stroke-linecap="square" stroke-width="2.0"/>
   <text fill="rgb(0, 0, 255)" font-family="Segoe UI" font-size="12" x="1669.0" y="443.0">h</text>
   <text fill="rgb(0, 0, 0)" font-family="Segoe UI" font-size="12" x="1662.0" y="441.0">0</text>
   <text fill="rgb(0, 0, 0)" font-family="Segoe UI" font-size="12" x="1654.0" y="441.0">0</text>
   <text fill="rgb(0, 0, 0)" font-family="Segoe UI" font-size="12" x="1646.0" y="441.0">0</text>
   <text fill="rgb(0, 0, 0)" font-family="Segoe UI" font-size="12" x="1638.0" y="441.0">0</text>
   <text fill="rgb(0, 0, 0)" font-family="Segoe UI" font-size="12" x="1630.0" y="441.0">0</text>
   <text fill="rgb(0, 0, 0)" font-family="Segoe UI" font-size="12" x="1622.0" y="441.0">0</text>
   <text fill="rgb(0, 0, 0)" font-family="Segoe UI" font-size="12" x="1614.0" y="441.0">0</text>
   <text fill="rgb(0, 0, 0)" font-family="Segoe UI" font-size="12" x="1606.0" y="441.0">0</text>
   <text fill="rgb(0, 0, 255)" font-family="Segoe UI" font-size="16" font-weight="bold" x="1686.0" y="444.0">DataOut</text>
   <ellipse cx="1594.0" cy="436.0" fill="rgb(0, 0, 0)" rx="2.0" ry="2.0" stroke="none" stroke-width="2.0"/>
   <polyline fill="none" points="1600,456 1595,456" stroke="rgb(0, 100, 0)" stroke-linecap="square" stroke-width="3.0"/>
   <polygon fill="none" points="1610,447 1600,456 1610,465 1634,465 1634,447" stroke="rgb(0, 0, 0)" stroke-linecap="square" stroke-width="2.0"/>
   <text fill="rgb(0, 0, 255)" font-family="Segoe UI" font-size="12" x="1624.0" y="463.0">b</text>
   <ellipse cx="1619.0" cy="455.0" fill="rgb(0, 100, 0)" rx="4.5" ry="7.0" stroke="none" stroke-width="2.0"/>
   <text fill="rgb(255, 255, 255)" font-family="Segoe UI" font-size="12" x="1616.0" y="460.0">0</text>
   <text fill="rgb(0, 0, 255)" font-family="Segoe UI" font-size="16" font-weight="bold" x="1636.0" y="464.0">RST</text>
   <ellipse cx="1594.0" cy="456.0" fill="rgb(0, 100, 0)" rx="2.0" ry="2.0" stroke="none" stroke-width="2.0"/>
   <polyline fill="none" points="1600,486 1595,486" stroke="rgb(0, 100, 0)" stroke-linecap="square" stroke-width="3.0"/>
   <polygon fill="none" points="1610,477 1600,486 1610,495 1634,495 1634,477" stroke="rgb(0, 0, 0)" stroke-linecap="square" stroke-width="2.0"/>
   <text fill="rgb(0, 0, 255)" font-family="Segoe UI" font-size="12" x="1624.0" y="493.0">b</text>
   <ellipse cx="1619.0" cy="485.0" fill="rgb(0, 100, 0)" rx="4.5" ry="7.0" stroke="none" stroke-width="2.0"/>
   <text fill="rgb(255, 255, 255)" font-family="Segoe UI" font-size="12" x="1616.0" y="490.0">0</text>
   <text fill="rgb(0, 0, 255)" font-family="Segoe UI" font-size="16" font-weight="bold" x="1636.0" y="494.0">CLK</text>
   <ellipse cx="1594.0" cy="486.0" fill="rgb(0, 100, 0)" rx="2.0" ry="2.0" stroke="none" stroke-width="2.0"/>
   <polyline fill="none" points="1600,506 1595,506" stroke="rgb(0, 100, 0)" stroke-linecap="square" stroke-width="3.0"/>
   <polygon fill="none" points="1610,497 1600,506 1610,515 1634,515 1634,497" stroke="rgb(0, 0, 0)" stroke-linecap="square" stroke-width="2.0"/>
   <text fill="rgb(0, 0, 255)" font-family="Segoe UI" font-size="12" x="1624.0" y="513.0">b</text>
   <ellipse cx="1619.0" cy="505.0" fill="rgb(0, 100, 0)" rx="4.5" ry="7.0" stroke="none" stroke-width="2.0"/>
   <text fill="rgb(255, 255, 255)" font-family="Segoe UI" font-size="12" x="1616.0" y="510.0">0</text>
   <text fill="rgb(0, 0, 255)" font-family="Segoe UI" font-size="16" font-weight="bold" x="1636.0" y="514.0">Hold</text>
   <ellipse cx="1594.0" cy="506.0" fill="rgb(0, 100, 0)" rx="2.0" ry="2.0" stroke="none" stroke-width="2.0"/>
   <polyline fill="none" points="131,386 132,386" stroke="rgb(0, 0, 0)" stroke-linecap="square" stroke-width="4.0"/>
   <polygon fill="none" points="55,395 45,386 55,377 129,377 129,395" stroke="rgb(0, 0, 0)" stroke-linecap="square" stroke-width="2.0"/>
   <text fill="rgb(0, 0, 255)" font-family="Segoe UI" font-size="12" x="119.0" y="393.0">h</text>
   <text fill="rgb(0, 0, 0)" font-family="Segoe UI" font-size="12" x="112.0" y="391.0">0</text>
   <text fill="rgb(0, 0, 0)" font-family="Segoe UI" font-size="12" x="104.0" y="391.0">0</text>
   <text fill="rgb(0, 0, 0)" font-family="Segoe UI" font-size="12" x="96.0" y="391.0">0</text>
   <text fill="rgb(0, 0, 0)" font-family="Segoe UI" font-size="12" x="88.0" y="391.0">0</text>
   <text fill="rgb(0, 0, 0)" font-family="Segoe UI" font-size="12" x="80.0" y="391.0">0</text>
   <text fill="rgb(0, 0, 0)" font-family="Segoe UI" font-size="12" x="72.0" y="391.0">0</text>
   <text fill="rgb(0, 0, 0)" font-family="Segoe UI" font-size="12" x="64.0" y="391.0">0</text>
   <text fill="rgb(0, 0, 0)" font-family="Segoe UI" font-size="12" x="56.0" y="391.0">0</text>
   <text fill="rgb(0, 0, 255)" font-family="Segoe UI" font-size="16" font-weight="bold" x="5.0" y="394.0">Addr</text>
   <ellipse cx="134.0" cy="386.0" fill="rgb(0, 0, 0)" rx="2.0" ry="2.0" stroke="none" stroke-width="2.0"/>
   <path d="M1029.0,101.0 A15.0,15.0 90.0 0,0 1029.0,71.0" fill="none" stroke="rgb(0, 0, 0)" stroke-width="2.0"/>
   <polyline fill="none" points="1029,71 1015,71 1015,101 1029,101" stroke="rgb(0, 0, 0)" stroke-linecap="square" stroke-width="2.0"/>
   <ellipse cx="1044.0" cy="86.0" fill="rgb(0, 100, 0)" rx="2.0" ry="2.0" stroke="none" stroke-width="2.0"/>
   <ellipse cx="1014.0" cy="76.0" fill="rgb(0, 100, 0)" rx="2.0" ry="2.0" stroke="none" stroke-width="2.0"/>
   <ellipse cx="1014.0" cy="96.0" fill="rgb(0, 210, 0)" rx="2.0" ry="2.0" stroke="none" stroke-width="2.0"/>
   <polyline fill="none" points="374,86 374,66 1054,66 1054,66" stroke="rgb(0, 100, 0)" stroke-linecap="square" stroke-width="3.0"/>
   <polyline fill="none" points="1044,86 1054,86 1054,86" stroke="rgb(0, 100, 0)" stroke-linecap="square" stroke-width="3.0"/>
   <path d=" M1084.0,76.0 C1074.0,61.0 1074.0,61.0 1054.0,61.0 C1062.0,76.0 1062.0,76.0 1054.0,91.0 C1074.0,91.0 1074.0,91.0 1084.0,76.0 Z" fill="none" stroke="rgb(0, 0, 0)" stroke-linecap="square" stroke-width="2.0"/>
   <ellipse cx="1084.0" cy="76.0" fill="rgb(0, 100, 0)" rx="2.0" ry="2.0" stroke="none" stroke-width="2.0"/>
   <ellipse cx="1054.0" cy="66.0" fill="rgb(0, 100, 0)" rx="2.0" ry="2.0" stroke="none" stroke-width="2.0"/>
   <ellipse cx="1054.0" cy="86.0" fill="rgb(0, 100, 0)" rx="2.0" ry="2.0" stroke="none" stroke-width="2.0"/>
   <polygon fill="none" points="154,432 148,445 160,445" stroke="rgb(0, 0, 0)" stroke-linecap="square" stroke-width="2.0"/>
   <ellipse fill="none" rx="3.0" ry="3.0" stroke="rgb(0, 0, 0)" stroke-width="2.0" transform="translate(154.0 429.0) rotate(-90)"/>
   <ellipse cx="154.0" cy="426.0" fill="rgb(0, 210, 0)" rx="2.0" ry="2.0" stroke="none" stroke-width="2.0"/>
   <ellipse cx="154.0" cy="446.0" fill="rgb(0, 100, 0)" rx="2.0" ry="2.0" stroke="none" stroke-width="2.0"/>
   <ellipse cx="1524.0" cy="266.0" fill="rgb(192, 192, 192)" rx="3.0" ry="3.0" stroke="none" stroke-width="1.0"/>
   <text fill="rgb(128, 128, 128)" font-family="SansSerif" font-size="12" x="1507.0" y="241.0">0</text>
   <polygon fill="none" points="1504,226 1544,246 1544,266 1504,286" stroke="rgb(0, 0, 0)" stroke-linecap="square" stroke-width="2.0"/>
   <text fill="rgb(0, 0, 0)" font-family="SansSerif" font-size="12" x="1512.0" y="263.0">MUX</text>
   <ellipse cx="1504.0" cy="236.0" fill="rgb(0, 0, 0)" rx="2.0" ry="2.0" stroke="none" stroke-width="2.0"/>
   <ellipse cx="1504.0" cy="246.0" fill="rgb(0, 0, 0)" rx="2.0" ry="2.0" stroke="none" stroke-width="2.0"/>
   <ellipse cx="1504.0" cy="256.0" fill="rgb(0, 0, 0)" rx="2.0" ry="2.0" stroke="none" stroke-width="2.0"/>
   <ellipse cx="1504.0" cy="266.0" fill="rgb(0, 0, 0)" rx="2.0" ry="2.0" stroke="none" stroke-width="2.0"/>
   <ellipse cx="1524.0" cy="276.0" fill="rgb(0, 0, 0)" rx="2.0" ry="2.0" stroke="none" stroke-width="2.0"/>
   <ellipse cx="1544.0" cy="256.0" fill="rgb(0, 0, 0)" rx="2.0" ry="2.0" stroke="none" stroke-width="2.0"/>
   <polyline fill="none" points="164,402 164,406 164,466 324,466 324,296" stroke="rgb(0, 100, 0)" stroke-linecap="square" stroke-width="3.0"/>
   <polyline fill="none" points="154,400 154,406 154,426" stroke="rgb(0, 210, 0)" stroke-linecap="square" stroke-width="3.0"/>
   <ellipse cx="164.0" cy="396.0" fill="rgb(192, 192, 192)" rx="3.0" ry="3.0" stroke="none" stroke-width="1.0"/>
   <text fill="rgb(128, 128, 128)" font-family="SansSerif" font-size="12" x="164.0" y="381.0">0</text>
   <polygon fill="none" points="144,376 174,366 174,406 144,396" stroke="rgb(0, 0, 0)" stroke-linecap="square" stroke-width="2.0"/>
   <text fill="rgb(0, 0, 0)" font-family="SansSerif" font-size="12" x="147.0" y="393.0">MUX</text>
   <ellipse cx="174.0" cy="376.0" fill="rgb(0, 0, 0)" rx="2.0" ry="2.0" stroke="none" stroke-width="2.0"/>
   <ellipse cx="174.0" cy="396.0" fill="rgb(0, 0, 0)" rx="2.0" ry="2.0" stroke="none" stroke-width="2.0"/>
   <ellipse cx="164.0" cy="406.0" fill="rgb(0, 100, 0)" rx="2.0" ry="2.0" stroke="none" stroke-width="2.0"/>
   <ellipse cx="154.0" cy="406.0" fill="rgb(0, 210, 0)" rx="2.0" ry="2.0" stroke="none" stroke-width="2.0"/>
   <ellipse cx="144.0" cy="386.0" fill="rgb(0, 0, 0)" rx="2.0" ry="2.0" stroke="none" stroke-width="2.0"/>
   <polyline fill="none" points="914,202 914,206 914,226 394,226" stroke="rgb(0, 100, 0)" stroke-linecap="square" stroke-width="3.0"/>
   <ellipse cx="914.0" cy="196.0" fill="rgb(192, 192, 192)" rx="3.0" ry="3.0" stroke="none" stroke-width="1.0"/>
   <text fill="rgb(128, 128, 128)" font-family="SansSerif" font-size="12" x="907.0" y="181.0">0</text>
   <polygon fill="none" points="904,166 934,176 934,196 904,206" stroke="rgb(0, 0, 0)" stroke-linecap="square" stroke-width="2.0"/>
   <text fill="rgb(0, 0, 0)" font-family="SansSerif" font-size="12" x="907.0" y="193.0">MUX</text>
   <ellipse cx="904.0" cy="176.0" fill="rgb(0, 0, 0)" rx="2.0" ry="2.0" stroke="none" stroke-width="2.0"/>
   <ellipse cx="904.0" cy="196.0" fill="rgb(0, 0, 0)" rx="2.0" ry="2.0" stroke="none" stroke-width="2.0"/>
   <ellipse cx="914.0" cy="206.0" fill="rgb(0, 100, 0)" rx="2.0" ry="2.0" stroke="none" stroke-width="2.0"/>
   <ellipse cx="934.0" cy="186.0" fill="rgb(0, 0, 0)" rx="2.0" ry="2.0" stroke="none" stroke-width="2.0"/>
   <polyline fill="none" points="914,310 914,306 914,276 394,276" stroke="rgb(0, 100, 0)" stroke-linecap="square" stroke-width="3.0"/>
   <ellipse cx="914.0" cy="311.0" fill="rgb(192, 192, 192)" rx="3.0" ry="3.0" stroke="none" stroke-width="1.0"/>
   <text fill="rgb(128, 128, 128)" font-family="SansSerif" font-size="12" x="907.0" y="321.0">0</text>
   <polygon fill="none" points="904,306 934,316 934,336 904,346" stroke="rgb(0, 0, 0)" stroke-linecap="square" stroke-width="2.0"/>
   <text fill="rgb(0, 0, 0)" font-family="SansSerif" font-size="12" x="907.0" y="333.0">MUX</text>
   <ellipse cx="904.0" cy="316.0" fill="rgb(0, 0, 0)" rx="2.0" ry="2.0" stroke="none" stroke-width="2.0"/>
   <ellipse cx="904.0" cy="336.0" fill="rgb(0, 0, 0)" rx="2.0" ry="2.0" stroke="none" stroke-width="2.0"/>
   <ellipse cx="914.0" cy="306.0" fill="rgb(0, 100, 0)" rx="2.0" ry="2.0" stroke="none" stroke-width="2.0"/>
   <ellipse cx="934.0" cy="326.0" fill="rgb(0, 0, 0)" rx="2.0" ry="2.0" stroke="none" stroke-width="2.0"/>
   <rect fill="rgb(52, 47, 87)" height="40" stroke="none" stroke-linecap="square" stroke-width="1.0" width="90" x="904" y="86"/>
   <polyline fill="none" points="904,86 993,86" stroke="rgb(0, 0, 0)" stroke-linecap="square" stroke-width="2.0"/>
   <polyline fill="none" points="994,86 994,125" stroke="rgb(0, 0, 0)" stroke-linecap="square" stroke-width="2.0"/>
   <polyline fill="none" points="994,126 905,126" stroke="rgb(0, 0, 0)" stroke-linecap="square" stroke-width="2.0"/>
   <polyline fill="none" points="904,126 904,87" stroke="rgb(0, 0, 0)" stroke-linecap="square" stroke-width="2.0"/>
   <text fill="rgb(255, 255, 255)" font-family="Segoe UI" font-size="13" font-style="italic" font-weight="bold" x="926.0" y="110.0">Branch</text>
   <ellipse cx="904.0" cy="96.0" fill="rgb(0, 0, 0)" rx="2.0" ry="2.0" stroke="none" stroke-width="1.0"/>
   <ellipse cx="904.0" cy="106.0" fill="rgb(0, 0, 0)" rx="2.0" ry="2.0" stroke="none" stroke-width="1.0"/>
   <ellipse cx="904.0" cy="116.0" fill="rgb(0, 0, 0)" rx="2.0" ry="2.0" stroke="none" stroke-width="1.0"/>
   <ellipse cx="994.0" cy="96.0" fill="rgb(0, 210, 0)" rx="2.0" ry="2.0" stroke="none" stroke-width="1.0"/>
   <text fill="rgb(255, 255, 255)" font-family="SansSerif" font-size="12" font-style="italic" font-weight="bold" x="970.0" y="180.0">=</text>
   <rect fill="rgb(52, 47, 87)" height="21" stroke="none" stroke-linecap="square" stroke-width="1.0" width="31" x="963" y="175"/>
   <polyline fill="none" points="963,175 993,175" stroke="rgb(0, 0, 0)" stroke-linecap="square" stroke-width="2.0"/>
   <polyline fill="none" points="994,175 994,195" stroke="rgb(0, 0, 0)" stroke-linecap="square" stroke-width="2.0"/>
   <polyline fill="none" points="994,196 964,196" stroke="rgb(0, 0, 0)" stroke-linecap="square" stroke-width="2.0"/>
   <polyline fill="none" points="963,196 963,176" stroke="rgb(0, 0, 0)" stroke-linecap="square" stroke-width="2.0"/>
   <ellipse cx="964.0" cy="186.0" fill="rgb(0, 0, 0)" rx="2.0" ry="2.0" stroke="none" stroke-width="1.0"/>
   <ellipse cx="974.0" cy="196.0" fill="rgb(0, 100, 0)" rx="2.0" ry="2.0" stroke="none" stroke-width="1.0"/>
   <ellipse cx="984.0" cy="196.0" fill="rgb(0, 100, 0)" rx="2.0" ry="2.0" stroke="none" stroke-width="1.0"/>
   <ellipse cx="994.0" cy="186.0" fill="rgb(0, 0, 0)" rx="2.0" ry="2.0" stroke="none" stroke-width="1.0"/>
   <text fill="rgb(255, 255, 255)" font-family="SansSerif" font-size="12" font-style="italic" font-weight="bold" x="970.0" y="320.0">=</text>
   <rect fill="rgb(52, 47, 87)" height="21" stroke="none" stroke-linecap="square" stroke-width="1.0" width="31" x="963" y="315"/>
   <polyline fill="none" points="963,315 993,315" stroke="rgb(0, 0, 0)" stroke-linecap="square" stroke-width="2.0"/>
   <polyline fill="none" points="994,315 994,335" stroke="rgb(0, 0, 0)" stroke-linecap="square" stroke-width="2.0"/>
   <polyline fill="none" points="994,336 964,336" stroke="rgb(0, 0, 0)" stroke-linecap="square" stroke-width="2.0"/>
   <polyline fill="none" points="963,336 963,316" stroke="rgb(0, 0, 0)" stroke-linecap="square" stroke-width="2.0"/>
   <ellipse cx="964.0" cy="326.0" fill="rgb(0, 0, 0)" rx="2.0" ry="2.0" stroke="none" stroke-width="1.0"/>
   <ellipse cx="974.0" cy="336.0" fill="rgb(0, 100, 0)" rx="2.0" ry="2.0" stroke="none" stroke-width="1.0"/>
   <ellipse cx="984.0" cy="336.0" fill="rgb(0, 100, 0)" rx="2.0" ry="2.0" stroke="none" stroke-width="1.0"/>
   <ellipse cx="994.0" cy="326.0" fill="rgb(0, 0, 0)" rx="2.0" ry="2.0" stroke="none" stroke-width="1.0"/>
   <polygon fill="rgb(52, 47, 87)" points="1113,226 1113,286 1034,344 1034,305 1054,275 1054,235 1034,205 1034,166" stroke="none" stroke-linecap="square" stroke-width="1.0"/>
   <polygon fill="none" points="1113,226 1113,286 1034,344 1034,305 1054,275 1054,235 1034,205 1034,166" stroke="rgb(0, 0, 0)" stroke-linecap="square" stroke-width="2.0"/>
   <text fill="rgb(255, 255, 255)" font-family="Segoe UI" font-size="14" font-style="italic" font-weight="bold" x="1068.0" y="261.0">ALU</text>
   <ellipse cx="1034.0" cy="186.0" fill="rgb(0, 0, 0)" rx="2.0" ry="2.0" stroke="none" stroke-width="1.0"/>
   <ellipse cx="1034.0" cy="326.0" fill="rgb(0, 0, 0)" rx="2.0" ry="2.0" stroke="none" stroke-width="1.0"/>
   <ellipse cx="1054.0" cy="236.0" fill="rgb(0, 0, 0)" rx="2.0" ry="2.0" stroke="none" stroke-width="1.0"/>
   <ellipse cx="1054.0" cy="246.0" fill="rgb(0, 0, 0)" rx="2.0" ry="2.0" stroke="none" stroke-width="1.0"/>
   <ellipse cx="1054.0" cy="256.0" fill="rgb(0, 0, 0)" rx="2.0" ry="2.0" stroke="none" stroke-width="1.0"/>
   <ellipse cx="1054.0" cy="266.0" fill="rgb(0, 100, 0)" rx="2.0" ry="2.0" stroke="none" stroke-width="1.0"/>
   <ellipse cx="1114.0" cy="256.0" fill="rgb(0, 0, 0)" rx="2.0" ry="2.0" stroke="none" stroke-width="1.0"/>
   <text fill="rgb(255, 255, 255)" font-family="SansSerif" font-size="12" font-style="italic" font-weight="bold" x="1180.0" y="250.0">=</text>
   <rect fill="rgb(52, 47, 87)" height="21" stroke="none" stroke-linecap="square" stroke-width="1.0" width="31" x="1173" y="245"/>
   <polyline fill="none" points="1173,245 1203,245" stroke="rgb(0, 0, 0)" stroke-linecap="square" stroke-width="2.0"/>
   <polyline fill="none" points="1204,245 1204,265" stroke="rgb(0, 0, 0)" stroke-linecap="square" stroke-width="2.0"/>
   <polyline fill="none" points="1204,266 1174,266" stroke="rgb(0, 0, 0)" stroke-linecap="square" stroke-width="2.0"/>
   <polyline fill="none" points="1173,266 1173,246" stroke="rgb(0, 0, 0)" stroke-linecap="square" stroke-width="2.0"/>
   <ellipse cx="1174.0" cy="256.0" fill="rgb(0, 0, 0)" rx="2.0" ry="2.0" stroke="none" stroke-width="1.0"/>
   <ellipse cx="1184.0" cy="266.0" fill="rgb(0, 100, 0)" rx="2.0" ry="2.0" stroke="none" stroke-width="1.0"/>
   <ellipse cx="1194.0" cy="266.0" fill="rgb(0, 100, 0)" rx="2.0" ry="2.0" stroke="none" stroke-width="1.0"/>
   <ellipse cx="1204.0" cy="256.0" fill="rgb(0, 0, 0)" rx="2.0" ry="2.0" stroke="none" stroke-width="1.0"/>
   <rect fill="rgb(52, 47, 87)" height="31" stroke="none" stroke-linecap="square" stroke-width="1.0" width="80" x="1304" y="216"/>
   <polyline fill="none" points="1304,216 1383,216" stroke="rgb(0, 0, 0)" stroke-linecap="square" stroke-width="2.0"/>
   <polyline fill="none" points="1384,216 1384,246" stroke="rgb(0, 0, 0)" stroke-linecap="square" stroke-width="2.0"/>
   <polyline fill="none" points="1384,247 1305,247" stroke="rgb(0, 0, 0)" stroke-linecap="square" stroke-width="2.0"/>
   <polyline fill="none" points="1304,247 1304,217" stroke="rgb(0, 0, 0)" stroke-linecap="square" stroke-width="2.0"/>
   <text fill="rgb(255, 255, 255)" font-family="Segoe UI" font-size="11" font-style="italic" font-weight="bold" x="1316.0" y="235.0">Data Align</text>
   <ellipse cx="1304.0" cy="226.0" fill="rgb(0, 0, 0)" rx="2.0" ry="2.0" stroke="none" stroke-width="1.0"/>
   <ellipse cx="1304.0" cy="236.0" fill="rgb(0, 0, 0)" rx="2.0" ry="2.0" stroke="none" stroke-width="1.0"/>
   <ellipse cx="1384.0" cy="236.0" fill="rgb(0, 0, 0)" rx="2.0" ry="2.0" stroke="none" stroke-width="1.0"/>
   <text fill="rgb(255, 255, 255)" font-family="SansSerif" font-size="12" font-style="italic" font-weight="bold" x="1420.0" y="230.0">=</text>
   <rect fill="rgb(52, 47, 87)" height="21" stroke="none" stroke-linecap="square" stroke-width="1.0" width="31" x="1413" y="225"/>
   <polyline fill="none" points="1413,225 1443,225" stroke="rgb(0, 0, 0)" stroke-linecap="square" stroke-width="2.0"/>
   <polyline fill="none" points="1444,225 1444,245" stroke="rgb(0, 0, 0)" stroke-linecap="square" stroke-width="2.0"/>
   <polyline fill="none" points="1444,246 1414,246" stroke="rgb(0, 0, 0)" stroke-linecap="square" stroke-width="2.0"/>
   <polyline fill="none" points="1413,246 1413,226" stroke="rgb(0, 0, 0)" stroke-linecap="square" stroke-width="2.0"/>
   <ellipse cx="1414.0" cy="236.0" fill="rgb(0, 0, 0)" rx="2.0" ry="2.0" stroke="none" stroke-width="1.0"/>
   <ellipse cx="1424.0" cy="246.0" fill="rgb(0, 100, 0)" rx="2.0" ry="2.0" stroke="none" stroke-width="1.0"/>
   <ellipse cx="1434.0" cy="246.0" fill="rgb(0, 100, 0)" rx="2.0" ry="2.0" stroke="none" stroke-width="1.0"/>
   <ellipse cx="1444.0" cy="236.0" fill="rgb(0, 0, 0)" rx="2.0" ry="2.0" stroke="none" stroke-width="1.0"/>
   <rect fill="rgb(52, 47, 87)" height="40" stroke="none" stroke-linecap="square" stroke-width="1.0" width="51" x="1524" y="476"/>
   <polyline fill="none" points="1524,476 1574,476" stroke="rgb(0, 0, 0)" stroke-linecap="square" stroke-width="2.0"/>
   <polyline fill="none" points="1575,476 1575,515" stroke="rgb(0, 0, 0)" stroke-linecap="square" stroke-width="2.0"/>
   <polyline fill="none" points="1575,516 1525,516" stroke="rgb(0, 0, 0)" stroke-linecap="square" stroke-width="2.0"/>
   <polyline fill="none" points="1524,516 1524,477" stroke="rgb(0, 0, 0)" stroke-linecap="square" stroke-width="2.0"/>
   <text fill="rgb(255, 255, 255)" font-family="Segoe UI" font-size="11" font-style="italic" font-weight="bold" x="1537.0" y="493.0">Hold</text>
   <text fill="rgb(255, 255, 255)" font-family="Segoe UI" font-size="11" font-style="italic" font-weight="bold" x="1538.0" y="504.0">Unit</text>
   <ellipse cx="1524.0" cy="486.0" fill="rgb(0, 100, 0)" rx="2.0" ry="2.0" stroke="none" stroke-width="1.0"/>
   <ellipse cx="1524.0" cy="496.0" fill="rgb(0, 100, 0)" rx="2.0" ry="2.0" stroke="none" stroke-width="1.0"/>
   <ellipse cx="1544.0" cy="476.0" fill="rgb(0, 100, 0)" rx="2.0" ry="2.0" stroke="none" stroke-width="1.0"/>
   <ellipse cx="1554.0" cy="476.0" fill="rgb(0, 100, 0)" rx="2.0" ry="2.0" stroke="none" stroke-width="1.0"/>
   <ellipse cx="1574.0" cy="486.0" fill="rgb(0, 100, 0)" rx="2.0" ry="2.0" stroke="none" stroke-width="1.0"/>
   <ellipse cx="1574.0" cy="506.0" fill="rgb(0, 100, 0)" rx="2.0" ry="2.0" stroke="none" stroke-width="1.0"/>
   <rect fill="rgb(52, 47, 87)" height="50" stroke="none" stroke-linecap="square" stroke-width="1.0" width="60" x="184" y="6"/>
   <polyline fill="none" points="184,6 243,6" stroke="rgb(0, 0, 0)" stroke-linecap="square" stroke-width="2.0"/>
   <polyline fill="none" points="244,6 244,55" stroke="rgb(0, 0, 0)" stroke-linecap="square" stroke-width="2.0"/>
   <polyline fill="none" points="244,56 185,56" stroke="rgb(0, 0, 0)" stroke-linecap="square" stroke-width="2.0"/>
   <polyline fill="none" points="184,56 184,7" stroke="rgb(0, 0, 0)" stroke-linecap="square" stroke-width="2.0"/>
   <text fill="rgb(255, 255, 255)" font-family="Segoe UI" font-size="12" font-style="italic" font-weight="bold" x="198.0" y="27.0">Fetch</text>
   <text fill="rgb(255, 255, 255)" font-family="Segoe UI" font-size="12" font-style="italic" font-weight="bold" x="200.0" y="40.0">Unit</text>
   <ellipse cx="204.0" cy="56.0" fill="rgb(0, 100, 0)" rx="2.0" ry="2.0" stroke="none" stroke-width="1.0"/>
   <ellipse cx="214.0" cy="56.0" fill="rgb(0, 100, 0)" rx="2.0" ry="2.0" stroke="none" stroke-width="1.0"/>
   <ellipse cx="224.0" cy="56.0" fill="rgb(0, 100, 0)" rx="2.0" ry="2.0" stroke="none" stroke-width="1.0"/>
   <ellipse cx="244.0" cy="16.0" fill="rgb(0, 0, 0)" rx="2.0" ry="2.0" stroke="none" stroke-width="1.0"/>
   <ellipse cx="244.0" cy="26.0" fill="rgb(0, 100, 0)" rx="2.0" ry="2.0" stroke="none" stroke-width="1.0"/>
   <ellipse cx="244.0" cy="36.0" fill="rgb(0, 0, 0)" rx="2.0" ry="2.0" stroke="none" stroke-width="1.0"/>
   <ellipse cx="244.0" cy="46.0" fill="rgb(0, 0, 0)" rx="2.0" ry="2.0" stroke="none" stroke-width="1.0"/>
   <rect fill="rgb(52, 47, 87)" height="210" stroke="none" stroke-linecap="square" stroke-width="1.0" width="90" x="304" y="86"/>
   <polyline fill="none" points="304,86 393,86" stroke="rgb(0, 0, 0)" stroke-linecap="square" stroke-width="2.0"/>
   <polyline fill="none" points="394,86 394,295" stroke="rgb(0, 0, 0)" stroke-linecap="square" stroke-width="2.0"/>
   <polyline fill="none" points="394,296 305,296" stroke="rgb(0, 0, 0)" stroke-linecap="square" stroke-width="2.0"/>
   <polyline fill="none" points="304,296 304,87" stroke="rgb(0, 0, 0)" stroke-linecap="square" stroke-width="2.0"/>
   <text fill="rgb(255, 255, 255)" font-family="Segoe UI" font-size="13" font-style="italic" font-weight="bold" x="344.0" y="145.0">&amp;</text>
   <text fill="rgb(255, 255, 255)" font-family="Segoe UI" font-size="13" font-style="italic" font-weight="bold" x="327.0" y="132.0">Decode</text>
   <text fill="rgb(255, 255, 255)" font-family="Segoe UI" font-size="13" font-style="italic" font-weight="bold" x="328.0" y="158.0">Control</text>
   <ellipse cx="314.0" cy="296.0" fill="rgb(0, 100, 0)" rx="2.0" ry="2.0" stroke="none" stroke-width="1.0"/>
   <ellipse cx="324.0" cy="296.0" fill="rgb(0, 100, 0)" rx="2.0" ry="2.0" stroke="none" stroke-width="1.0"/>
   <ellipse cx="334.0" cy="296.0" fill="rgb(0, 100, 0)" rx="2.0" ry="2.0" stroke="none" stroke-width="1.0"/>
   <ellipse cx="344.0" cy="296.0" fill="rgb(0, 100, 0)" rx="2.0" ry="2.0" stroke="none" stroke-width="1.0"/>
   <ellipse cx="354.0" cy="296.0" fill="rgb(0, 0, 0)" rx="2.0" ry="2.0" stroke="none" stroke-width="1.0"/>
   <ellipse cx="364.0" cy="296.0" fill="rgb(0, 0, 0)" rx="2.0" ry="2.0" stroke="none" stroke-width="1.0"/>
   <ellipse cx="374.0" cy="86.0" fill="rgb(0, 100, 0)" rx="2.0" ry="2.0" stroke="none" stroke-width="1.0"/>
   <ellipse cx="374.0" cy="296.0" fill="rgb(0, 100, 0)" rx="2.0" ry="2.0" stroke="none" stroke-width="1.0"/>
   <ellipse cx="384.0" cy="86.0" fill="rgb(0, 100, 0)" rx="2.0" ry="2.0" stroke="none" stroke-width="1.0"/>
   <ellipse cx="384.0" cy="296.0" fill="rgb(0, 0, 0)" rx="2.0" ry="2.0" stroke="none" stroke-width="1.0"/>
   <ellipse cx="394.0" cy="96.0" fill="rgb(0, 0, 0)" rx="2.0" ry="2.0" stroke="none" stroke-width="1.0"/>
   <ellipse cx="394.0" cy="106.0" fill="rgb(0, 0, 0)" rx="2.0" ry="2.0" stroke="none" stroke-width="1.0"/>
   <ellipse cx="394.0" cy="126.0" fill="rgb(0, 0, 0)" rx="2.0" ry="2.0" stroke="none" stroke-width="1.0"/>
   <ellipse cx="394.0" cy="136.0" fill="rgb(0, 100, 0)" rx="2.0" ry="2.0" stroke="none" stroke-width="1.0"/>
   <ellipse cx="394.0" cy="226.0" fill="rgb(0, 100, 0)" rx="2.0" ry="2.0" stroke="none" stroke-width="1.0"/>
   <ellipse cx="394.0" cy="236.0" fill="rgb(0, 0, 0)" rx="2.0" ry="2.0" stroke="none" stroke-width="1.0"/>
   <ellipse cx="394.0" cy="246.0" fill="rgb(0, 0, 0)" rx="2.0" ry="2.0" stroke="none" stroke-width="1.0"/>
   <ellipse cx="394.0" cy="256.0" fill="rgb(0, 0, 0)" rx="2.0" ry="2.0" stroke="none" stroke-width="1.0"/>
   <ellipse cx="394.0" cy="266.0" fill="rgb(0, 100, 0)" rx="2.0" ry="2.0" stroke="none" stroke-width="1.0"/>
   <ellipse cx="394.0" cy="276.0" fill="rgb(0, 100, 0)" rx="2.0" ry="2.0" stroke="none" stroke-width="1.0"/>
   <rect fill="rgb(52, 47, 87)" height="80" stroke="none" stroke-linecap="square" stroke-width="1.0" width="90" x="604" y="86"/>
   <polyline fill="none" points="604,86 693,86" stroke="rgb(0, 0, 0)" stroke-linecap="square" stroke-width="2.0"/>
   <polyline fill="none" points="694,86 694,165" stroke="rgb(0, 0, 0)" stroke-linecap="square" stroke-width="2.0"/>
   <polyline fill="none" points="694,166 605,166" stroke="rgb(0, 0, 0)" stroke-linecap="square" stroke-width="2.0"/>
   <polyline fill="none" points="604,166 604,87" stroke="rgb(0, 0, 0)" stroke-linecap="square" stroke-width="2.0"/>
   <text fill="rgb(255, 255, 255)" font-family="Segoe UI" font-size="12" font-style="italic" font-weight="bold" x="614.0" y="127.0">Register File</text>
   <ellipse cx="604.0" cy="96.0" fill="rgb(0, 0, 0)" rx="2.0" ry="2.0" stroke="none" stroke-width="1.0"/>
   <ellipse cx="604.0" cy="106.0" fill="rgb(0, 0, 0)" rx="2.0" ry="2.0" stroke="none" stroke-width="1.0"/>
   <ellipse cx="604.0" cy="116.0" fill="rgb(0, 0, 0)" rx="2.0" ry="2.0" stroke="none" stroke-width="1.0"/>
   <ellipse cx="604.0" cy="126.0" fill="rgb(0, 0, 0)" rx="2.0" ry="2.0" stroke="none" stroke-width="1.0"/>
   <ellipse cx="604.0" cy="136.0" fill="rgb(0, 100, 0)" rx="2.0" ry="2.0" stroke="none" stroke-width="1.0"/>
   <ellipse cx="604.0" cy="146.0" fill="rgb(0, 100, 0)" rx="2.0" ry="2.0" stroke="none" stroke-width="1.0"/>
   <ellipse cx="604.0" cy="156.0" fill="rgb(0, 100, 0)" rx="2.0" ry="2.0" stroke="none" stroke-width="1.0"/>
   <ellipse cx="694.0" cy="96.0" fill="rgb(0, 0, 0)" rx="2.0" ry="2.0" stroke="none" stroke-width="1.0"/>
   <ellipse cx="694.0" cy="106.0" fill="rgb(0, 0, 0)" rx="2.0" ry="2.0" stroke="none" stroke-width="1.0"/>
   <rect fill="rgb(52, 47, 87)" height="31" stroke="none" stroke-linecap="square" stroke-width="1.0" width="90" x="604" y="325"/>
   <polyline fill="none" points="604,325 693,325" stroke="rgb(0, 0, 0)" stroke-linecap="square" stroke-width="2.0"/>
   <polyline fill="none" points="694,325 694,355" stroke="rgb(0, 0, 0)" stroke-linecap="square" stroke-width="2.0"/>
   <polyline fill="none" points="694,356 605,356" stroke="rgb(0, 0, 0)" stroke-linecap="square" stroke-width="2.0"/>
   <polyline fill="none" points="604,356 604,326" stroke="rgb(0, 0, 0)" stroke-linecap="square" stroke-width="2.0"/>
   <text fill="rgb(255, 255, 255)" font-family="Segoe UI" font-size="13" font-style="italic" font-weight="bold" x="622.0" y="343.0">Imm Gen</text>
   <ellipse cx="604.0" cy="336.0" fill="rgb(0, 0, 0)" rx="2.0" ry="2.0" stroke="none" stroke-width="1.0"/>
   <ellipse cx="604.0" cy="346.0" fill="rgb(0, 0, 0)" rx="2.0" ry="2.0" stroke="none" stroke-width="1.0"/>
   <ellipse cx="694.0" cy="336.0" fill="rgb(0, 0, 0)" rx="2.0" ry="2.0" stroke="none" stroke-width="1.0"/>
</svg>
