<?xml version="1.0" encoding="UTF-8" standalone="no"?>
<svg style="background-color: white;" xmlns="http://www.w3.org/2000/svg" version="1.1" viewBox="0 0 1580 523">
   <polyline fill="none" points="1031,86 1071,86" stroke="rgb(0, 210, 0)" stroke-linecap="square" stroke-width="3.0"/>
   <polyline fill="none" points="201,486 201,496 1331,496" stroke="rgb(0, 100, 0)" stroke-linecap="square" stroke-width="3.0"/>
   <polyline fill="none" points="431,256 1031,256" stroke="rgb(0, 100, 0)" stroke-linecap="square" stroke-width="3.0"/>
   <polyline fill="none" points="731,326 941,326" stroke="rgb(0, 0, 0)" stroke-linecap="square" stroke-width="4.0"/>
   <polyline fill="none" points="411,286 411,406 1421,406" stroke="rgb(0, 100, 0)" stroke-linecap="square" stroke-width="3.0"/>
   <polyline fill="none" points="941,106 871,106 871,236 431,236" stroke="rgb(0, 0, 0)" stroke-linecap="square" stroke-width="4.0"/>
   <polyline fill="none" points="1381,486 1421,486" stroke="rgb(0, 100, 0)" stroke-linecap="square" stroke-width="3.0"/>
   <polyline fill="none" points="151,436 871,436 1161,436 1161,216 1211,216" stroke="rgb(0, 0, 0)" stroke-linecap="square" stroke-width="4.0"/>
   <polyline fill="none" points="431,116 641,116" stroke="rgb(0, 0, 0)" stroke-linecap="square" stroke-width="4.0"/>
   <polyline fill="none" points="381,456 1171,456 1171,226 1211,226" stroke="rgb(0, 0, 0)" stroke-linecap="square" stroke-width="4.0"/>
   <polyline fill="none" points="431,226 561,226 1031,226" stroke="rgb(0, 0, 0)" stroke-linecap="square" stroke-width="4.0"/>
   <polyline fill="none" points="401,286 401,416" stroke="rgb(0, 100, 0)" stroke-linecap="square" stroke-width="3.0"/>
   <polyline fill="none" points="881,96 941,96" stroke="rgb(0, 0, 0)" stroke-linecap="square" stroke-width="4.0"/>
   <polyline fill="none" points="271,56 271,76" stroke="rgb(0, 210, 0)" stroke-linecap="square" stroke-width="3.0"/>
   <polyline fill="none" points="291,46 851,46 851,396 221,396" stroke="rgb(0, 0, 0)" stroke-linecap="square" stroke-width="4.0"/>
   <polyline fill="none" points="1401,246 1411,246 1411,366 531,366 531,106 641,106" stroke="rgb(0, 0, 0)" stroke-linecap="square" stroke-width="4.0"/>
   <polyline fill="none" points="171,386 191,386" stroke="rgb(0, 0, 0)" stroke-linecap="square" stroke-width="4.0"/>
   <polyline fill="none" points="431,86 641,86" stroke="rgb(0, 0, 0)" stroke-linecap="square" stroke-width="4.0"/>
   <polyline fill="none" points="431,126 641,126" stroke="rgb(0, 100, 0)" stroke-linecap="square" stroke-width="3.0"/>
   <polyline fill="none" points="1291,226 1361,226" stroke="rgb(0, 0, 0)" stroke-linecap="square" stroke-width="4.0"/>
   <polyline fill="none" points="371,286 371,466 551,466 551,146 641,146" stroke="rgb(0, 100, 0)" stroke-linecap="square" stroke-width="3.0"/>
   <polyline fill="none" points="421,76 421,66 1071,66" stroke="rgb(0, 100, 0)" stroke-linecap="square" stroke-width="3.0"/>
   <polyline fill="none" points="421,286 421,336 641,336" stroke="rgb(0, 0, 0)" stroke-linecap="square" stroke-width="4.0"/>
   <polyline fill="none" points="1011,316 991,316 991,356 1331,356 1331,256 1361,256" stroke="rgb(0, 0, 0)" stroke-linecap="square" stroke-width="4.0"/>
   <polyline fill="none" points="1091,246 1151,246 1361,246" stroke="rgb(0, 0, 0)" stroke-linecap="square" stroke-width="4.0"/>
   <polyline fill="none" points="221,376 861,376 861,186 941,186" stroke="rgb(0, 0, 0)" stroke-linecap="square" stroke-width="4.0"/>
   <polyline fill="none" points="891,86 941,86" stroke="rgb(0, 0, 0)" stroke-linecap="square" stroke-width="4.0"/>
   <polyline fill="none" points="731,86 891,86 891,166 941,166" stroke="rgb(0, 0, 0)" stroke-linecap="square" stroke-width="4.0"/>
   <polyline fill="none" points="271,96 271,416" stroke="rgb(0, 100, 0)" stroke-linecap="square" stroke-width="3.0"/>
   <polyline fill="none" points="1031,236 871,236 871,436" stroke="rgb(0, 0, 0)" stroke-linecap="square" stroke-width="4.0"/>
   <polyline fill="none" points="971,176 1011,176" stroke="rgb(0, 0, 0)" stroke-linecap="square" stroke-width="4.0"/>
   <polyline fill="none" points="731,96 881,96 881,306 881,376 1421,376" stroke="rgb(0, 0, 0)" stroke-linecap="square" stroke-width="4.0"/>
   <polyline fill="none" points="881,306 941,306" stroke="rgb(0, 0, 0)" stroke-linecap="square" stroke-width="4.0"/>
   <polyline fill="none" points="261,56 261,486 361,486 541,486" stroke="rgb(0, 100, 0)" stroke-linecap="square" stroke-width="3.0"/>
   <polyline fill="none" points="391,286 391,426 1381,426 1381,266" stroke="rgb(0, 0, 0)" stroke-linecap="square" stroke-width="4.0"/>
   <polyline fill="none" points="251,56 251,466 371,466" stroke="rgb(0, 100, 0)" stroke-linecap="square" stroke-width="3.0"/>
   <polyline fill="none" points="1381,506 1421,506" stroke="rgb(0, 100, 0)" stroke-linecap="square" stroke-width="3.0"/>
   <polyline fill="none" points="361,286 361,486" stroke="rgb(0, 100, 0)" stroke-linecap="square" stroke-width="3.0"/>
   <polyline fill="none" points="1361,476 1361,466 1421,466" stroke="rgb(0, 100, 0)" stroke-linecap="square" stroke-width="3.0"/>
   <polyline fill="none" points="1331,486 541,486 541,136 641,136" stroke="rgb(0, 100, 0)" stroke-linecap="square" stroke-width="3.0"/>
   <polyline fill="none" points="291,36 861,36 861,186" stroke="rgb(0, 0, 0)" stroke-linecap="square" stroke-width="4.0"/>
   <polyline fill="none" points="851,396 1151,396 1151,246" stroke="rgb(0, 0, 0)" stroke-linecap="square" stroke-width="4.0"/>
   <polyline fill="none" points="551,466 1361,466" stroke="rgb(0, 100, 0)" stroke-linecap="square" stroke-width="3.0"/>
   <polyline fill="none" points="431,246 1031,246" stroke="rgb(0, 0, 0)" stroke-linecap="square" stroke-width="4.0"/>
   <polyline fill="none" points="431,96 641,96" stroke="rgb(0, 0, 0)" stroke-linecap="square" stroke-width="4.0"/>
   <polyline fill="none" points="561,226 561,326 641,326" stroke="rgb(0, 0, 0)" stroke-linecap="square" stroke-width="4.0"/>
   <polyline fill="none" points="121,436 131,436" stroke="rgb(0, 0, 0)" stroke-linecap="square" stroke-width="4.0"/>
   <polyline fill="none" points="291,16 1331,16 1331,236 1361,236" stroke="rgb(0, 0, 0)" stroke-linecap="square" stroke-width="4.0"/>
   <polyline fill="none" points="291,26 1151,26 1151,66 1141,66" stroke="rgb(0, 100, 0)" stroke-linecap="square" stroke-width="3.0"/>
   <polyline fill="none" points="971,316 991,316" stroke="rgb(0, 0, 0)" stroke-linecap="square" stroke-width="4.0"/>
   <ellipse cx="861.0" cy="186.0" fill="rgb(0, 0, 0)" rx="6.0" ry="6.0" stroke="none" stroke-width="4.0"/>
   <ellipse cx="881.0" cy="96.0" fill="rgb(0, 0, 0)" rx="6.0" ry="6.0" stroke="none" stroke-width="4.0"/>
   <ellipse cx="871.0" cy="436.0" fill="rgb(0, 0, 0)" rx="6.0" ry="6.0" stroke="none" stroke-width="4.0"/>
   <ellipse cx="401.0" cy="416.0" fill="rgb(0, 100, 0)" rx="5.0" ry="5.0" stroke="none" stroke-width="4.0"/>
   <ellipse cx="891.0" cy="86.0" fill="rgb(0, 0, 0)" rx="6.0" ry="6.0" stroke="none" stroke-width="4.0"/>
   <ellipse cx="991.0" cy="316.0" fill="rgb(0, 0, 0)" rx="6.0" ry="6.0" stroke="none" stroke-width="4.0"/>
   <ellipse cx="201.0" cy="496.0" fill="rgb(0, 100, 0)" rx="5.0" ry="5.0" stroke="none" stroke-width="4.0"/>
   <ellipse cx="1151.0" cy="246.0" fill="rgb(0, 0, 0)" rx="6.0" ry="6.0" stroke="none" stroke-width="4.0"/>
   <ellipse cx="871.0" cy="236.0" fill="rgb(0, 0, 0)" rx="6.0" ry="6.0" stroke="none" stroke-width="4.0"/>
   <ellipse cx="541.0" cy="486.0" fill="rgb(0, 100, 0)" rx="5.0" ry="5.0" stroke="none" stroke-width="4.0"/>
   <ellipse cx="271.0" cy="416.0" fill="rgb(0, 100, 0)" rx="5.0" ry="5.0" stroke="none" stroke-width="4.0"/>
   <ellipse cx="551.0" cy="466.0" fill="rgb(0, 100, 0)" rx="5.0" ry="5.0" stroke="none" stroke-width="4.0"/>
   <ellipse cx="851.0" cy="396.0" fill="rgb(0, 0, 0)" rx="6.0" ry="6.0" stroke="none" stroke-width="4.0"/>
   <ellipse cx="361.0" cy="486.0" fill="rgb(0, 100, 0)" rx="5.0" ry="5.0" stroke="none" stroke-width="4.0"/>
   <ellipse cx="1361.0" cy="466.0" fill="rgb(0, 100, 0)" rx="5.0" ry="5.0" stroke="none" stroke-width="4.0"/>
   <ellipse cx="371.0" cy="466.0" fill="rgb(0, 100, 0)" rx="5.0" ry="5.0" stroke="none" stroke-width="4.0"/>
   <ellipse cx="561.0" cy="226.0" fill="rgb(0, 0, 0)" rx="6.0" ry="6.0" stroke="none" stroke-width="4.0"/>
   <ellipse cx="881.0" cy="306.0" fill="rgb(0, 0, 0)" rx="6.0" ry="6.0" stroke="none" stroke-width="4.0"/>
   <ellipse cx="381.0" cy="456.0" fill="rgb(0, 0, 0)" rx="6.0" ry="6.0" stroke="none" stroke-width="4.0"/>
   <polyline fill="none" points="1425,376 1424,376" stroke="rgb(0, 0, 0)" stroke-linecap="square" stroke-width="4.0"/>
   <polygon fill="none" points="1501,367 1511,376 1501,385 1427,385 1427,367" stroke="rgb(0, 0, 0)" stroke-linecap="square" stroke-width="2.0"/>
   <text fill="rgb(0, 0, 255)" font-family="Segoe UI" font-size="12" x="1496.0" y="383.0">h</text>
   <text fill="rgb(0, 0, 0)" font-family="Segoe UI" font-size="12" x="1489.0" y="381.0">0</text>
   <text fill="rgb(0, 0, 0)" font-family="Segoe UI" font-size="12" x="1481.0" y="381.0">0</text>
   <text fill="rgb(0, 0, 0)" font-family="Segoe UI" font-size="12" x="1473.0" y="381.0">0</text>
   <text fill="rgb(0, 0, 0)" font-family="Segoe UI" font-size="12" x="1465.0" y="381.0">0</text>
   <text fill="rgb(0, 0, 0)" font-family="Segoe UI" font-size="12" x="1457.0" y="381.0">0</text>
   <text fill="rgb(0, 0, 0)" font-family="Segoe UI" font-size="12" x="1449.0" y="381.0">0</text>
   <text fill="rgb(0, 0, 0)" font-family="Segoe UI" font-size="12" x="1441.0" y="381.0">0</text>
   <text fill="rgb(0, 0, 0)" font-family="Segoe UI" font-size="12" x="1433.0" y="381.0">0</text>
   <text fill="rgb(0, 0, 255)" font-family="Segoe UI" font-size="16" font-weight="bold" x="1513.0" y="384.0">DataOut</text>
   <ellipse cx="1421.0" cy="376.0" fill="rgb(0, 0, 0)" rx="2.0" ry="2.0" stroke="none" stroke-width="2.0"/>
   <polyline fill="none" points="1425,406 1422,406" stroke="rgb(0, 100, 0)" stroke-linecap="square" stroke-width="3.0"/>
   <polygon fill="none" points="1451,397 1461,406 1451,415 1427,415 1427,397" stroke="rgb(0, 0, 0)" stroke-linecap="square" stroke-width="2.0"/>
   <text fill="rgb(0, 0, 255)" font-family="Segoe UI" font-size="12" x="1446.0" y="413.0">b</text>
   <text fill="rgb(0, 0, 0)" font-family="Segoe UI" font-size="12" x="1438.0" y="410.0">0</text>
   <text fill="rgb(0, 0, 255)" font-family="Segoe UI" font-size="16" font-weight="bold" x="1463.0" y="414.0">RW</text>
   <ellipse cx="1421.0" cy="406.0" fill="rgb(0, 100, 0)" rx="2.0" ry="2.0" stroke="none" stroke-width="2.0"/>
   <polyline fill="none" points="1427,466 1422,466" stroke="rgb(0, 100, 0)" stroke-linecap="square" stroke-width="3.0"/>
   <polygon fill="none" points="1437,457 1427,466 1437,475 1461,475 1461,457" stroke="rgb(0, 0, 0)" stroke-linecap="square" stroke-width="2.0"/>
   <text fill="rgb(0, 0, 255)" font-family="Segoe UI" font-size="12" x="1451.0" y="473.0">b</text>
   <ellipse cx="1446.0" cy="465.0" fill="rgb(0, 100, 0)" rx="4.5" ry="7.0" stroke="none" stroke-width="2.0"/>
   <text fill="rgb(255, 255, 255)" font-family="Segoe UI" font-size="12" x="1443.0" y="470.0">0</text>
   <text fill="rgb(0, 0, 255)" font-family="Segoe UI" font-size="16" font-weight="bold" x="1463.0" y="474.0">RST</text>
   <ellipse cx="1421.0" cy="466.0" fill="rgb(0, 100, 0)" rx="2.0" ry="2.0" stroke="none" stroke-width="2.0"/>
   <polyline fill="none" points="1427,486 1422,486" stroke="rgb(0, 100, 0)" stroke-linecap="square" stroke-width="3.0"/>
   <polygon fill="none" points="1437,477 1427,486 1437,495 1461,495 1461,477" stroke="rgb(0, 0, 0)" stroke-linecap="square" stroke-width="2.0"/>
   <text fill="rgb(0, 0, 255)" font-family="Segoe UI" font-size="12" x="1451.0" y="493.0">b</text>
   <ellipse cx="1446.0" cy="485.0" fill="rgb(0, 100, 0)" rx="4.5" ry="7.0" stroke="none" stroke-width="2.0"/>
   <text fill="rgb(255, 255, 255)" font-family="Segoe UI" font-size="12" x="1443.0" y="490.0">0</text>
   <text fill="rgb(0, 0, 255)" font-family="Segoe UI" font-size="16" font-weight="bold" x="1463.0" y="494.0">CLK</text>
   <ellipse cx="1421.0" cy="486.0" fill="rgb(0, 100, 0)" rx="2.0" ry="2.0" stroke="none" stroke-width="2.0"/>
   <polyline fill="none" points="1427,506 1422,506" stroke="rgb(0, 100, 0)" stroke-linecap="square" stroke-width="3.0"/>
   <polygon fill="none" points="1437,497 1427,506 1437,515 1461,515 1461,497" stroke="rgb(0, 0, 0)" stroke-linecap="square" stroke-width="2.0"/>
   <text fill="rgb(0, 0, 255)" font-family="Segoe UI" font-size="12" x="1451.0" y="513.0">b</text>
   <ellipse cx="1446.0" cy="505.0" fill="rgb(0, 100, 0)" rx="4.5" ry="7.0" stroke="none" stroke-width="2.0"/>
   <text fill="rgb(255, 255, 255)" font-family="Segoe UI" font-size="12" x="1443.0" y="510.0">0</text>
   <text fill="rgb(0, 0, 255)" font-family="Segoe UI" font-size="16" font-weight="bold" x="1463.0" y="514.0">Hold</text>
   <ellipse cx="1421.0" cy="506.0" fill="rgb(0, 100, 0)" rx="2.0" ry="2.0" stroke="none" stroke-width="2.0"/>
   <polyline fill="none" points="118,436 119,436" stroke="rgb(0, 0, 0)" stroke-linecap="square" stroke-width="4.0"/>
   <polygon fill="none" points="92,445 82,436 92,427 116,427 116,445" stroke="rgb(0, 0, 0)" stroke-linecap="square" stroke-width="2.0"/>
   <text fill="rgb(0, 0, 255)" font-family="Segoe UI" font-size="12" x="106.0" y="443.0">h</text>
   <text fill="rgb(0, 0, 0)" font-family="Segoe UI" font-size="12" x="99.0" y="441.0">0</text>
   <text fill="rgb(0, 0, 255)" font-family="Segoe UI" font-size="16" font-weight="bold" x="5.0" y="444.0">DataAlign</text>
   <ellipse cx="121.0" cy="436.0" fill="rgb(0, 0, 0)" rx="2.0" ry="2.0" stroke="none" stroke-width="2.0"/>
   <polyline fill="none" points="118,496 121,496 201,496" stroke="rgb(0, 100, 0)" stroke-linecap="square" stroke-width="3.0"/>
   <polygon fill="none" points="92,505 82,496 92,487 116,487 116,505" stroke="rgb(0, 0, 0)" stroke-linecap="square" stroke-width="2.0"/>
   <text fill="rgb(0, 0, 255)" font-family="Segoe UI" font-size="12" x="106.0" y="503.0">b</text>
   <text fill="rgb(0, 0, 0)" font-family="Segoe UI" font-size="12" x="98.0" y="500.0">0</text>
   <text fill="rgb(0, 0, 255)" font-family="Segoe UI" font-size="16" font-weight="bold" x="34.0" y="504.0">HLDA</text>
   <ellipse cx="121.0" cy="496.0" fill="rgb(0, 100, 0)" rx="2.0" ry="2.0" stroke="none" stroke-width="2.0"/>
   <polyline fill="none" points="131,436 145,436" stroke="rgb(0, 0, 0)" stroke-linecap="square" stroke-width="3.0"/>
   <polyline fill="none" points="150,436 145,436" stroke="rgb(0, 0, 0)" stroke-linecap="square" stroke-width="5.0"/>
   <ellipse cx="145.0" cy="435.0" fill="rgb(0, 0, 0)" rx="3.5" ry="3.5" stroke="none" stroke-width="5.0"/>
   <text fill="rgb(0, 0, 0)" font-family="SansSerif" font-size="7" x="132.0" y="433.0">1-0</text>
   <ellipse cx="151.0" cy="436.0" fill="rgb(0, 0, 0)" rx="2.0" ry="2.0" stroke="none" stroke-width="5.0"/>
   <ellipse cx="131.0" cy="436.0" fill="rgb(0, 0, 0)" rx="2.0" ry="2.0" stroke="none" stroke-width="5.0"/>
   <polyline fill="none" points="168,386 169,386" stroke="rgb(0, 0, 0)" stroke-linecap="square" stroke-width="4.0"/>
   <polygon fill="none" points="92,395 82,386 92,377 166,377 166,395" stroke="rgb(0, 0, 0)" stroke-linecap="square" stroke-width="2.0"/>
   <text fill="rgb(0, 0, 255)" font-family="Segoe UI" font-size="12" x="156.0" y="393.0">h</text>
   <text fill="rgb(0, 0, 0)" font-family="Segoe UI" font-size="12" x="149.0" y="391.0">0</text>
   <text fill="rgb(0, 0, 0)" font-family="Segoe UI" font-size="12" x="141.0" y="391.0">0</text>
   <text fill="rgb(0, 0, 0)" font-family="Segoe UI" font-size="12" x="133.0" y="391.0">0</text>
   <text fill="rgb(0, 0, 0)" font-family="Segoe UI" font-size="12" x="125.0" y="391.0">0</text>
   <text fill="rgb(0, 0, 0)" font-family="Segoe UI" font-size="12" x="117.0" y="391.0">0</text>
   <text fill="rgb(0, 0, 0)" font-family="Segoe UI" font-size="12" x="109.0" y="391.0">0</text>
   <text fill="rgb(0, 0, 0)" font-family="Segoe UI" font-size="12" x="101.0" y="391.0">0</text>
   <text fill="rgb(0, 0, 0)" font-family="Segoe UI" font-size="12" x="93.0" y="391.0">0</text>
   <text fill="rgb(0, 0, 255)" font-family="Segoe UI" font-size="16" font-weight="bold" x="42.0" y="394.0">Addr</text>
   <ellipse cx="171.0" cy="386.0" fill="rgb(0, 0, 0)" rx="2.0" ry="2.0" stroke="none" stroke-width="2.0"/>
   <polyline fill="none" points="168,456 171,456 381,456 381,286" stroke="rgb(0, 0, 0)" stroke-linecap="square" stroke-width="4.0"/>
   <polygon fill="none" points="156,465 166,456 156,447 82,447 82,465" stroke="rgb(0, 0, 0)" stroke-linecap="square" stroke-width="2.0"/>
   <text fill="rgb(0, 0, 255)" font-family="Segoe UI" font-size="12" x="151.0" y="463.0">h</text>
   <text fill="rgb(0, 0, 0)" font-family="Segoe UI" font-size="12" x="144.0" y="461.0">0</text>
   <text fill="rgb(0, 0, 0)" font-family="Segoe UI" font-size="12" x="136.0" y="461.0">0</text>
   <text fill="rgb(0, 0, 0)" font-family="Segoe UI" font-size="12" x="128.0" y="461.0">0</text>
   <text fill="rgb(0, 0, 0)" font-family="Segoe UI" font-size="12" x="120.0" y="461.0">0</text>
   <text fill="rgb(0, 0, 0)" font-family="Segoe UI" font-size="12" x="112.0" y="461.0">0</text>
   <text fill="rgb(0, 0, 0)" font-family="Segoe UI" font-size="12" x="104.0" y="461.0">0</text>
   <text fill="rgb(0, 0, 0)" font-family="Segoe UI" font-size="12" x="96.0" y="461.0">0</text>
   <text fill="rgb(0, 0, 0)" font-family="Segoe UI" font-size="12" x="88.0" y="461.0">0</text>
   <text fill="rgb(0, 0, 255)" font-family="Segoe UI" font-size="16" font-weight="bold" x="30.0" y="464.0">DataIn</text>
   <ellipse cx="171.0" cy="456.0" fill="rgb(0, 0, 0)" rx="2.0" ry="2.0" stroke="none" stroke-width="2.0"/>
   <path d="M1086.0,91.0 A15.0,15.0 90.0 0,0 1086.0,61.0" fill="none" stroke="rgb(0, 0, 0)" stroke-width="2.0"/>
   <polyline fill="none" points="1086,61 1072,61 1072,91 1086,91" stroke="rgb(0, 0, 0)" stroke-linecap="square" stroke-width="2.0"/>
   <ellipse cx="1101.0" cy="76.0" fill="rgb(0, 100, 0)" rx="2.0" ry="2.0" stroke="none" stroke-width="2.0"/>
   <ellipse cx="1071.0" cy="66.0" fill="rgb(0, 100, 0)" rx="2.0" ry="2.0" stroke="none" stroke-width="2.0"/>
   <ellipse cx="1071.0" cy="86.0" fill="rgb(0, 210, 0)" rx="2.0" ry="2.0" stroke="none" stroke-width="2.0"/>
   <polyline fill="none" points="411,76 411,56 1111,56 1111,56" stroke="rgb(0, 100, 0)" stroke-linecap="square" stroke-width="3.0"/>
   <polyline fill="none" points="1101,76 1111,76 1111,76" stroke="rgb(0, 100, 0)" stroke-linecap="square" stroke-width="3.0"/>
   <path d=" M1141.0,66.0 C1131.0,51.0 1131.0,51.0 1111.0,51.0 C1119.0,66.0 1119.0,66.0 1111.0,81.0 C1131.0,81.0 1131.0,81.0 1141.0,66.0 Z" fill="none" stroke="rgb(0, 0, 0)" stroke-linecap="square" stroke-width="2.0"/>
   <ellipse cx="1141.0" cy="66.0" fill="rgb(0, 100, 0)" rx="2.0" ry="2.0" stroke="none" stroke-width="2.0"/>
   <ellipse cx="1111.0" cy="56.0" fill="rgb(0, 100, 0)" rx="2.0" ry="2.0" stroke="none" stroke-width="2.0"/>
   <ellipse cx="1111.0" cy="76.0" fill="rgb(0, 100, 0)" rx="2.0" ry="2.0" stroke="none" stroke-width="2.0"/>
   <polygon fill="none" points="201,472 195,485 207,485" stroke="rgb(0, 0, 0)" stroke-linecap="square" stroke-width="2.0"/>
   <ellipse fill="none" rx="3.0" ry="3.0" stroke="rgb(0, 0, 0)" stroke-width="2.0" transform="translate(201.0 469.0) rotate(-90)"/>
   <ellipse cx="201.0" cy="466.0" fill="rgb(0, 210, 0)" rx="2.0" ry="2.0" stroke="none" stroke-width="2.0"/>
   <ellipse cx="201.0" cy="486.0" fill="rgb(0, 100, 0)" rx="2.0" ry="2.0" stroke="none" stroke-width="2.0"/>
   <polygon fill="none" points="271,82 265,95 277,95" stroke="rgb(0, 0, 0)" stroke-linecap="square" stroke-width="2.0"/>
   <ellipse fill="none" rx="3.0" ry="3.0" stroke="rgb(0, 0, 0)" stroke-width="2.0" transform="translate(271.0 79.0) rotate(-90)"/>
   <ellipse cx="271.0" cy="76.0" fill="rgb(0, 210, 0)" rx="2.0" ry="2.0" stroke="none" stroke-width="2.0"/>
   <ellipse cx="271.0" cy="96.0" fill="rgb(0, 100, 0)" rx="2.0" ry="2.0" stroke="none" stroke-width="2.0"/>
   <polyline fill="none" points="951,192 951,196 951,216 431,216" stroke="rgb(0, 100, 0)" stroke-linecap="square" stroke-width="3.0"/>
   <ellipse cx="951.0" cy="186.0" fill="rgb(192, 192, 192)" rx="3.0" ry="3.0" stroke="none" stroke-width="1.0"/>
   <text fill="rgb(128, 128, 128)" font-family="SansSerif" font-size="12" x="944.0" y="171.0">0</text>
   <polygon fill="none" points="941,156 971,166 971,186 941,196" stroke="rgb(0, 0, 0)" stroke-linecap="square" stroke-width="2.0"/>
   <text fill="rgb(0, 0, 0)" font-family="SansSerif" font-size="12" x="944.0" y="183.0">MUX</text>
   <ellipse cx="941.0" cy="166.0" fill="rgb(0, 0, 0)" rx="2.0" ry="2.0" stroke="none" stroke-width="2.0"/>
   <ellipse cx="941.0" cy="186.0" fill="rgb(0, 0, 0)" rx="2.0" ry="2.0" stroke="none" stroke-width="2.0"/>
   <ellipse cx="951.0" cy="196.0" fill="rgb(0, 100, 0)" rx="2.0" ry="2.0" stroke="none" stroke-width="2.0"/>
   <ellipse cx="971.0" cy="176.0" fill="rgb(0, 0, 0)" rx="2.0" ry="2.0" stroke="none" stroke-width="2.0"/>
   <polyline fill="none" points="951,300 951,296 951,266 431,266" stroke="rgb(0, 100, 0)" stroke-linecap="square" stroke-width="3.0"/>
   <ellipse cx="951.0" cy="301.0" fill="rgb(192, 192, 192)" rx="3.0" ry="3.0" stroke="none" stroke-width="1.0"/>
   <text fill="rgb(128, 128, 128)" font-family="SansSerif" font-size="12" x="944.0" y="311.0">0</text>
   <polygon fill="none" points="941,296 971,306 971,326 941,336" stroke="rgb(0, 0, 0)" stroke-linecap="square" stroke-width="2.0"/>
   <text fill="rgb(0, 0, 0)" font-family="SansSerif" font-size="12" x="944.0" y="323.0">MUX</text>
   <ellipse cx="941.0" cy="306.0" fill="rgb(0, 0, 0)" rx="2.0" ry="2.0" stroke="none" stroke-width="2.0"/>
   <ellipse cx="941.0" cy="326.0" fill="rgb(0, 0, 0)" rx="2.0" ry="2.0" stroke="none" stroke-width="2.0"/>
   <ellipse cx="951.0" cy="296.0" fill="rgb(0, 100, 0)" rx="2.0" ry="2.0" stroke="none" stroke-width="2.0"/>
   <ellipse cx="971.0" cy="316.0" fill="rgb(0, 0, 0)" rx="2.0" ry="2.0" stroke="none" stroke-width="2.0"/>
   <ellipse cx="1381.0" cy="256.0" fill="rgb(192, 192, 192)" rx="3.0" ry="3.0" stroke="none" stroke-width="1.0"/>
   <text fill="rgb(128, 128, 128)" font-family="SansSerif" font-size="12" x="1364.0" y="231.0">0</text>
   <polygon fill="none" points="1361,216 1401,236 1401,256 1361,276" stroke="rgb(0, 0, 0)" stroke-linecap="square" stroke-width="2.0"/>
   <text fill="rgb(0, 0, 0)" font-family="SansSerif" font-size="12" x="1369.0" y="253.0">MUX</text>
   <ellipse cx="1361.0" cy="226.0" fill="rgb(0, 0, 0)" rx="2.0" ry="2.0" stroke="none" stroke-width="2.0"/>
   <ellipse cx="1361.0" cy="236.0" fill="rgb(0, 0, 0)" rx="2.0" ry="2.0" stroke="none" stroke-width="2.0"/>
   <ellipse cx="1361.0" cy="246.0" fill="rgb(0, 0, 0)" rx="2.0" ry="2.0" stroke="none" stroke-width="2.0"/>
   <ellipse cx="1361.0" cy="256.0" fill="rgb(0, 0, 0)" rx="2.0" ry="2.0" stroke="none" stroke-width="2.0"/>
   <ellipse cx="1381.0" cy="266.0" fill="rgb(0, 0, 0)" rx="2.0" ry="2.0" stroke="none" stroke-width="2.0"/>
   <ellipse cx="1401.0" cy="246.0" fill="rgb(0, 0, 0)" rx="2.0" ry="2.0" stroke="none" stroke-width="2.0"/>
   <polyline fill="none" points="211,402 211,406 211,416 271,416 401,416 1351,416 1351,476" stroke="rgb(0, 100, 0)" stroke-linecap="square" stroke-width="3.0"/>
   <polyline fill="none" points="201,400 201,406 201,466" stroke="rgb(0, 210, 0)" stroke-linecap="square" stroke-width="3.0"/>
   <ellipse cx="211.0" cy="396.0" fill="rgb(192, 192, 192)" rx="3.0" ry="3.0" stroke="none" stroke-width="1.0"/>
   <text fill="rgb(128, 128, 128)" font-family="SansSerif" font-size="12" x="211.0" y="381.0">0</text>
   <polygon fill="none" points="191,376 221,366 221,406 191,396" stroke="rgb(0, 0, 0)" stroke-linecap="square" stroke-width="2.0"/>
   <text fill="rgb(0, 0, 0)" font-family="SansSerif" font-size="12" x="194.0" y="393.0">MUX</text>
   <ellipse cx="221.0" cy="376.0" fill="rgb(0, 0, 0)" rx="2.0" ry="2.0" stroke="none" stroke-width="2.0"/>
   <ellipse cx="221.0" cy="396.0" fill="rgb(0, 0, 0)" rx="2.0" ry="2.0" stroke="none" stroke-width="2.0"/>
   <ellipse cx="211.0" cy="406.0" fill="rgb(0, 100, 0)" rx="2.0" ry="2.0" stroke="none" stroke-width="2.0"/>
   <ellipse cx="201.0" cy="406.0" fill="rgb(0, 210, 0)" rx="2.0" ry="2.0" stroke="none" stroke-width="2.0"/>
   <ellipse cx="191.0" cy="386.0" fill="rgb(0, 0, 0)" rx="2.0" ry="2.0" stroke="none" stroke-width="2.0"/>
   <rect fill="rgb(52, 47, 87)" height="40" stroke="none" stroke-linecap="square" stroke-width="1.0" width="90" x="941" y="76"/>
   <polyline fill="none" points="941,76 1030,76" stroke="rgb(0, 0, 0)" stroke-linecap="square" stroke-width="2.0"/>
   <polyline fill="none" points="1031,76 1031,115" stroke="rgb(0, 0, 0)" stroke-linecap="square" stroke-width="2.0"/>
   <polyline fill="none" points="1031,116 942,116" stroke="rgb(0, 0, 0)" stroke-linecap="square" stroke-width="2.0"/>
   <polyline fill="none" points="941,116 941,77" stroke="rgb(0, 0, 0)" stroke-linecap="square" stroke-width="2.0"/>
   <text fill="rgb(255, 255, 255)" font-family="Segoe UI" font-size="13" font-style="italic" font-weight="bold" x="963.0" y="100.0">Branch</text>
   <ellipse cx="941.0" cy="86.0" fill="rgb(0, 0, 0)" rx="2.0" ry="2.0" stroke="none" stroke-width="1.0"/>
   <ellipse cx="941.0" cy="96.0" fill="rgb(0, 0, 0)" rx="2.0" ry="2.0" stroke="none" stroke-width="1.0"/>
   <ellipse cx="941.0" cy="106.0" fill="rgb(0, 0, 0)" rx="2.0" ry="2.0" stroke="none" stroke-width="1.0"/>
   <ellipse cx="1031.0" cy="86.0" fill="rgb(0, 210, 0)" rx="2.0" ry="2.0" stroke="none" stroke-width="1.0"/>
   <polygon fill="rgb(52, 47, 87)" points="1090,216 1090,276 1011,334 1011,295 1031,265 1031,225 1011,195 1011,156" stroke="none" stroke-linecap="square" stroke-width="1.0"/>
   <polygon fill="none" points="1090,216 1090,276 1011,334 1011,295 1031,265 1031,225 1011,195 1011,156" stroke="rgb(0, 0, 0)" stroke-linecap="square" stroke-width="2.0"/>
   <text fill="rgb(255, 255, 255)" font-family="Segoe UI" font-size="14" font-style="italic" font-weight="bold" x="1045.0" y="251.0">ALU</text>
   <ellipse cx="1011.0" cy="176.0" fill="rgb(0, 0, 0)" rx="2.0" ry="2.0" stroke="none" stroke-width="1.0"/>
   <ellipse cx="1011.0" cy="316.0" fill="rgb(0, 0, 0)" rx="2.0" ry="2.0" stroke="none" stroke-width="1.0"/>
   <ellipse cx="1031.0" cy="226.0" fill="rgb(0, 0, 0)" rx="2.0" ry="2.0" stroke="none" stroke-width="1.0"/>
   <ellipse cx="1031.0" cy="236.0" fill="rgb(0, 0, 0)" rx="2.0" ry="2.0" stroke="none" stroke-width="1.0"/>
   <ellipse cx="1031.0" cy="246.0" fill="rgb(0, 0, 0)" rx="2.0" ry="2.0" stroke="none" stroke-width="1.0"/>
   <ellipse cx="1031.0" cy="256.0" fill="rgb(0, 100, 0)" rx="2.0" ry="2.0" stroke="none" stroke-width="1.0"/>
   <ellipse cx="1091.0" cy="246.0" fill="rgb(0, 0, 0)" rx="2.0" ry="2.0" stroke="none" stroke-width="1.0"/>
   <rect fill="rgb(52, 47, 87)" height="31" stroke="none" stroke-linecap="square" stroke-width="1.0" width="80" x="1211" y="206"/>
   <polyline fill="none" points="1211,206 1290,206" stroke="rgb(0, 0, 0)" stroke-linecap="square" stroke-width="2.0"/>
   <polyline fill="none" points="1291,206 1291,236" stroke="rgb(0, 0, 0)" stroke-linecap="square" stroke-width="2.0"/>
   <polyline fill="none" points="1291,237 1212,237" stroke="rgb(0, 0, 0)" stroke-linecap="square" stroke-width="2.0"/>
   <polyline fill="none" points="1211,237 1211,207" stroke="rgb(0, 0, 0)" stroke-linecap="square" stroke-width="2.0"/>
   <text fill="rgb(255, 255, 255)" font-family="Segoe UI" font-size="11" font-style="italic" font-weight="bold" x="1223.0" y="225.0">Data Align</text>
   <ellipse cx="1211.0" cy="216.0" fill="rgb(0, 0, 0)" rx="2.0" ry="2.0" stroke="none" stroke-width="1.0"/>
   <ellipse cx="1211.0" cy="226.0" fill="rgb(0, 0, 0)" rx="2.0" ry="2.0" stroke="none" stroke-width="1.0"/>
   <ellipse cx="1291.0" cy="226.0" fill="rgb(0, 0, 0)" rx="2.0" ry="2.0" stroke="none" stroke-width="1.0"/>
   <rect fill="rgb(52, 47, 87)" height="40" stroke="none" stroke-linecap="square" stroke-width="1.0" width="51" x="1331" y="476"/>
   <polyline fill="none" points="1331,476 1381,476" stroke="rgb(0, 0, 0)" stroke-linecap="square" stroke-width="2.0"/>
   <polyline fill="none" points="1382,476 1382,515" stroke="rgb(0, 0, 0)" stroke-linecap="square" stroke-width="2.0"/>
   <polyline fill="none" points="1382,516 1332,516" stroke="rgb(0, 0, 0)" stroke-linecap="square" stroke-width="2.0"/>
   <polyline fill="none" points="1331,516 1331,477" stroke="rgb(0, 0, 0)" stroke-linecap="square" stroke-width="2.0"/>
   <text fill="rgb(255, 255, 255)" font-family="Segoe UI" font-size="11" font-style="italic" font-weight="bold" x="1344.0" y="493.0">Hold</text>
   <text fill="rgb(255, 255, 255)" font-family="Segoe UI" font-size="11" font-style="italic" font-weight="bold" x="1345.0" y="504.0">Unit</text>
   <ellipse cx="1331.0" cy="486.0" fill="rgb(0, 100, 0)" rx="2.0" ry="2.0" stroke="none" stroke-width="1.0"/>
   <ellipse cx="1331.0" cy="496.0" fill="rgb(0, 100, 0)" rx="2.0" ry="2.0" stroke="none" stroke-width="1.0"/>
   <ellipse cx="1351.0" cy="476.0" fill="rgb(0, 100, 0)" rx="2.0" ry="2.0" stroke="none" stroke-width="1.0"/>
   <ellipse cx="1361.0" cy="476.0" fill="rgb(0, 100, 0)" rx="2.0" ry="2.0" stroke="none" stroke-width="1.0"/>
   <ellipse cx="1381.0" cy="486.0" fill="rgb(0, 100, 0)" rx="2.0" ry="2.0" stroke="none" stroke-width="1.0"/>
   <ellipse cx="1381.0" cy="506.0" fill="rgb(0, 100, 0)" rx="2.0" ry="2.0" stroke="none" stroke-width="1.0"/>
   <rect fill="rgb(52, 47, 87)" height="50" stroke="none" stroke-linecap="square" stroke-width="1.0" width="60" x="231" y="6"/>
   <polyline fill="none" points="231,6 290,6" stroke="rgb(0, 0, 0)" stroke-linecap="square" stroke-width="2.0"/>
   <polyline fill="none" points="291,6 291,55" stroke="rgb(0, 0, 0)" stroke-linecap="square" stroke-width="2.0"/>
   <polyline fill="none" points="291,56 232,56" stroke="rgb(0, 0, 0)" stroke-linecap="square" stroke-width="2.0"/>
   <polyline fill="none" points="231,56 231,7" stroke="rgb(0, 0, 0)" stroke-linecap="square" stroke-width="2.0"/>
   <text fill="rgb(255, 255, 255)" font-family="Segoe UI" font-size="12" font-style="italic" font-weight="bold" x="245.0" y="27.0">Fetch</text>
   <text fill="rgb(255, 255, 255)" font-family="Segoe UI" font-size="12" font-style="italic" font-weight="bold" x="247.0" y="40.0">Unit</text>
   <ellipse cx="251.0" cy="56.0" fill="rgb(0, 100, 0)" rx="2.0" ry="2.0" stroke="none" stroke-width="1.0"/>
   <ellipse cx="261.0" cy="56.0" fill="rgb(0, 100, 0)" rx="2.0" ry="2.0" stroke="none" stroke-width="1.0"/>
   <ellipse cx="271.0" cy="56.0" fill="rgb(0, 210, 0)" rx="2.0" ry="2.0" stroke="none" stroke-width="1.0"/>
   <ellipse cx="291.0" cy="16.0" fill="rgb(0, 0, 0)" rx="2.0" ry="2.0" stroke="none" stroke-width="1.0"/>
   <ellipse cx="291.0" cy="26.0" fill="rgb(0, 100, 0)" rx="2.0" ry="2.0" stroke="none" stroke-width="1.0"/>
   <ellipse cx="291.0" cy="36.0" fill="rgb(0, 0, 0)" rx="2.0" ry="2.0" stroke="none" stroke-width="1.0"/>
   <ellipse cx="291.0" cy="46.0" fill="rgb(0, 0, 0)" rx="2.0" ry="2.0" stroke="none" stroke-width="1.0"/>
   <rect fill="rgb(52, 47, 87)" height="210" stroke="none" stroke-linecap="square" stroke-width="1.0" width="81" x="350" y="76"/>
   <polyline fill="none" points="350,76 430,76" stroke="rgb(0, 0, 0)" stroke-linecap="square" stroke-width="2.0"/>
   <polyline fill="none" points="431,76 431,285" stroke="rgb(0, 0, 0)" stroke-linecap="square" stroke-width="2.0"/>
   <polyline fill="none" points="431,286 351,286" stroke="rgb(0, 0, 0)" stroke-linecap="square" stroke-width="2.0"/>
   <polyline fill="none" points="350,286 350,77" stroke="rgb(0, 0, 0)" stroke-linecap="square" stroke-width="2.0"/>
   <text fill="rgb(255, 255, 255)" font-family="Segoe UI" font-size="13" font-style="italic" font-weight="bold" x="368.0" y="122.0">Decode</text>
   <text fill="rgb(255, 255, 255)" font-family="Segoe UI" font-size="13" font-style="italic" font-weight="bold" x="385.0" y="135.0">&amp;</text>
   <text fill="rgb(255, 255, 255)" font-family="Segoe UI" font-size="13" font-style="italic" font-weight="bold" x="369.0" y="148.0">Control</text>
   <ellipse cx="361.0" cy="286.0" fill="rgb(0, 100, 0)" rx="2.0" ry="2.0" stroke="none" stroke-width="1.0"/>
   <ellipse cx="371.0" cy="286.0" fill="rgb(0, 100, 0)" rx="2.0" ry="2.0" stroke="none" stroke-width="1.0"/>
   <ellipse cx="381.0" cy="286.0" fill="rgb(0, 0, 0)" rx="2.0" ry="2.0" stroke="none" stroke-width="1.0"/>
   <ellipse cx="391.0" cy="286.0" fill="rgb(0, 0, 0)" rx="2.0" ry="2.0" stroke="none" stroke-width="1.0"/>
   <ellipse cx="401.0" cy="286.0" fill="rgb(0, 100, 0)" rx="2.0" ry="2.0" stroke="none" stroke-width="1.0"/>
   <ellipse cx="411.0" cy="76.0" fill="rgb(0, 100, 0)" rx="2.0" ry="2.0" stroke="none" stroke-width="1.0"/>
   <ellipse cx="411.0" cy="286.0" fill="rgb(0, 100, 0)" rx="2.0" ry="2.0" stroke="none" stroke-width="1.0"/>
   <ellipse cx="421.0" cy="76.0" fill="rgb(0, 100, 0)" rx="2.0" ry="2.0" stroke="none" stroke-width="1.0"/>
   <ellipse cx="421.0" cy="286.0" fill="rgb(0, 0, 0)" rx="2.0" ry="2.0" stroke="none" stroke-width="1.0"/>
   <ellipse cx="431.0" cy="86.0" fill="rgb(0, 0, 0)" rx="2.0" ry="2.0" stroke="none" stroke-width="1.0"/>
   <ellipse cx="431.0" cy="96.0" fill="rgb(0, 0, 0)" rx="2.0" ry="2.0" stroke="none" stroke-width="1.0"/>
   <ellipse cx="431.0" cy="116.0" fill="rgb(0, 0, 0)" rx="2.0" ry="2.0" stroke="none" stroke-width="1.0"/>
   <ellipse cx="431.0" cy="126.0" fill="rgb(0, 100, 0)" rx="2.0" ry="2.0" stroke="none" stroke-width="1.0"/>
   <ellipse cx="431.0" cy="216.0" fill="rgb(0, 100, 0)" rx="2.0" ry="2.0" stroke="none" stroke-width="1.0"/>
   <ellipse cx="431.0" cy="226.0" fill="rgb(0, 0, 0)" rx="2.0" ry="2.0" stroke="none" stroke-width="1.0"/>
   <ellipse cx="431.0" cy="236.0" fill="rgb(0, 0, 0)" rx="2.0" ry="2.0" stroke="none" stroke-width="1.0"/>
   <ellipse cx="431.0" cy="246.0" fill="rgb(0, 0, 0)" rx="2.0" ry="2.0" stroke="none" stroke-width="1.0"/>
   <ellipse cx="431.0" cy="256.0" fill="rgb(0, 100, 0)" rx="2.0" ry="2.0" stroke="none" stroke-width="1.0"/>
   <ellipse cx="431.0" cy="266.0" fill="rgb(0, 100, 0)" rx="2.0" ry="2.0" stroke="none" stroke-width="1.0"/>
   <rect fill="rgb(52, 47, 87)" height="80" stroke="none" stroke-linecap="square" stroke-width="1.0" width="90" x="641" y="76"/>
   <polyline fill="none" points="641,76 730,76" stroke="rgb(0, 0, 0)" stroke-linecap="square" stroke-width="2.0"/>
   <polyline fill="none" points="731,76 731,155" stroke="rgb(0, 0, 0)" stroke-linecap="square" stroke-width="2.0"/>
   <polyline fill="none" points="731,156 642,156" stroke="rgb(0, 0, 0)" stroke-linecap="square" stroke-width="2.0"/>
   <polyline fill="none" points="641,156 641,77" stroke="rgb(0, 0, 0)" stroke-linecap="square" stroke-width="2.0"/>
   <text fill="rgb(255, 255, 255)" font-family="Segoe UI" font-size="12" font-style="italic" font-weight="bold" x="651.0" y="117.0">Register File</text>
   <ellipse cx="641.0" cy="86.0" fill="rgb(0, 0, 0)" rx="2.0" ry="2.0" stroke="none" stroke-width="1.0"/>
   <ellipse cx="641.0" cy="96.0" fill="rgb(0, 0, 0)" rx="2.0" ry="2.0" stroke="none" stroke-width="1.0"/>
   <ellipse cx="641.0" cy="106.0" fill="rgb(0, 0, 0)" rx="2.0" ry="2.0" stroke="none" stroke-width="1.0"/>
   <ellipse cx="641.0" cy="116.0" fill="rgb(0, 0, 0)" rx="2.0" ry="2.0" stroke="none" stroke-width="1.0"/>
   <ellipse cx="641.0" cy="126.0" fill="rgb(0, 100, 0)" rx="2.0" ry="2.0" stroke="none" stroke-width="1.0"/>
   <ellipse cx="641.0" cy="136.0" fill="rgb(0, 100, 0)" rx="2.0" ry="2.0" stroke="none" stroke-width="1.0"/>
   <ellipse cx="641.0" cy="146.0" fill="rgb(0, 100, 0)" rx="2.0" ry="2.0" stroke="none" stroke-width="1.0"/>
   <ellipse cx="731.0" cy="86.0" fill="rgb(0, 0, 0)" rx="2.0" ry="2.0" stroke="none" stroke-width="1.0"/>
   <ellipse cx="731.0" cy="96.0" fill="rgb(0, 0, 0)" rx="2.0" ry="2.0" stroke="none" stroke-width="1.0"/>
   <rect fill="rgb(52, 47, 87)" height="31" stroke="none" stroke-linecap="square" stroke-width="1.0" width="90" x="641" y="315"/>
   <polyline fill="none" points="641,315 730,315" stroke="rgb(0, 0, 0)" stroke-linecap="square" stroke-width="2.0"/>
   <polyline fill="none" points="731,315 731,345" stroke="rgb(0, 0, 0)" stroke-linecap="square" stroke-width="2.0"/>
   <polyline fill="none" points="731,346 642,346" stroke="rgb(0, 0, 0)" stroke-linecap="square" stroke-width="2.0"/>
   <polyline fill="none" points="641,346 641,316" stroke="rgb(0, 0, 0)" stroke-linecap="square" stroke-width="2.0"/>
   <text fill="rgb(255, 255, 255)" font-family="Segoe UI" font-size="13" font-style="italic" font-weight="bold" x="659.0" y="333.0">Imm Gen</text>
   <ellipse cx="641.0" cy="326.0" fill="rgb(0, 0, 0)" rx="2.0" ry="2.0" stroke="none" stroke-width="1.0"/>
   <ellipse cx="641.0" cy="336.0" fill="rgb(0, 0, 0)" rx="2.0" ry="2.0" stroke="none" stroke-width="1.0"/>
   <ellipse cx="731.0" cy="326.0" fill="rgb(0, 0, 0)" rx="2.0" ry="2.0" stroke="none" stroke-width="1.0"/>
</svg>
