<?xml version="1.0" encoding="UTF-8" standalone="no"?>
<svg style="background-color: white;" xmlns="http://www.w3.org/2000/svg" version="1.1" viewBox="0 0 1047 682">
   <polyline fill="none" points="462,585 482,585" stroke="rgb(0, 100, 0)" stroke-linecap="square" stroke-width="3.0"/>
   <polyline fill="none" points="232,555 252,555 252,425" stroke="rgb(0, 0, 0)" stroke-linecap="square" stroke-width="4.0"/>
   <polyline fill="none" points="612,25 832,25" stroke="rgb(0, 0, 0)" stroke-linecap="square" stroke-width="4.0"/>
   <polyline fill="none" points="462,275 372,275 372,405 272,405" stroke="rgb(0, 100, 0)" stroke-linecap="square" stroke-width="3.0"/>
   <polyline fill="none" points="272,395 362,395 412,395 592,395 592,255 642,255" stroke="rgb(0, 100, 0)" stroke-linecap="square" stroke-width="3.0"/>
   <polyline fill="none" points="542,565 592,565 842,565" stroke="rgb(0, 100, 0)" stroke-linecap="square" stroke-width="3.0"/>
   <polyline fill="none" points="282,85 342,85 462,85" stroke="rgb(0, 0, 0)" stroke-linecap="square" stroke-width="4.0"/>
   <polyline fill="none" points="282,25 592,25" stroke="rgb(0, 0, 0)" stroke-linecap="square" stroke-width="4.0"/>
   <polyline fill="none" points="462,295 392,295 392,405 392,605 212,605" stroke="rgb(0, 210, 0)" stroke-linecap="square" stroke-width="3.0"/>
   <polyline fill="none" points="642,95 602,95 602,275 642,275" stroke="rgb(0, 100, 0)" stroke-linecap="square" stroke-width="3.0"/>
   <polyline fill="none" points="672,85 712,85" stroke="rgb(0, 0, 0)" stroke-linecap="square" stroke-width="4.0"/>
   <polyline fill="none" points="792,85 832,85" stroke="rgb(0, 0, 0)" stroke-linecap="square" stroke-width="4.0"/>
   <polyline fill="none" points="462,305 402,305 402,415 402,625" stroke="rgb(0, 100, 0)" stroke-linecap="square" stroke-width="3.0"/>
   <polyline fill="none" points="602,275 602,485" stroke="rgb(0, 100, 0)" stroke-linecap="square" stroke-width="3.0"/>
   <polyline fill="none" points="532,85 642,85" stroke="rgb(0, 0, 0)" stroke-linecap="square" stroke-width="4.0"/>
   <polyline fill="none" points="532,265 642,265" stroke="rgb(0, 0, 0)" stroke-linecap="square" stroke-width="4.0"/>
   <polyline fill="none" points="612,515 612,665" stroke="rgb(0, 100, 0)" stroke-linecap="square" stroke-width="3.0"/>
   <polyline fill="none" points="752,85 772,85" stroke="rgb(0, 0, 0)" stroke-linecap="square" stroke-width="4.0"/>
   <polyline fill="none" points="392,605 482,605" stroke="rgb(0, 210, 0)" stroke-linecap="square" stroke-width="3.0"/>
   <polyline fill="none" points="462,95 352,95 352,385 272,385" stroke="rgb(0, 100, 0)" stroke-linecap="square" stroke-width="3.0"/>
   <polyline fill="none" points="462,105 362,105 362,395" stroke="rgb(0, 100, 0)" stroke-linecap="square" stroke-width="3.0"/>
   <polyline fill="none" points="462,115 392,115 392,185 392,295" stroke="rgb(0, 210, 0)" stroke-linecap="square" stroke-width="3.0"/>
   <polyline fill="none" points="462,125 402,125 402,195 402,305" stroke="rgb(0, 100, 0)" stroke-linecap="square" stroke-width="3.0"/>
   <polyline fill="none" points="342,85 342,265 462,265" stroke="rgb(0, 0, 0)" stroke-linecap="square" stroke-width="4.0"/>
   <polyline fill="none" points="272,415 382,415 382,285 462,285" stroke="rgb(0, 100, 0)" stroke-linecap="square" stroke-width="3.0"/>
   <polyline fill="none" points="592,515 592,565 592,645 412,645 412,575 432,575" stroke="rgb(0, 100, 0)" stroke-linecap="square" stroke-width="3.0"/>
   <polyline fill="none" points="602,45 602,95" stroke="rgb(0, 100, 0)" stroke-linecap="square" stroke-width="3.0"/>
   <polyline fill="none" points="652,285 652,405 652,645 802,645" stroke="rgb(0, 210, 0)" stroke-linecap="square" stroke-width="3.0"/>
   <polyline fill="none" points="392,185 652,185 652,105" stroke="rgb(0, 210, 0)" stroke-linecap="square" stroke-width="3.0"/>
   <polyline fill="none" points="392,405 652,405" stroke="rgb(0, 210, 0)" stroke-linecap="square" stroke-width="3.0"/>
   <polyline fill="none" points="402,195 662,195 662,105" stroke="rgb(0, 100, 0)" stroke-linecap="square" stroke-width="3.0"/>
   <polyline fill="none" points="402,415 662,415 662,285" stroke="rgb(0, 100, 0)" stroke-linecap="square" stroke-width="3.0"/>
   <polyline fill="none" points="832,655 842,655" stroke="rgb(0, 100, 0)" stroke-linecap="square" stroke-width="3.0"/>
   <polyline fill="none" points="412,395 412,565 482,565" stroke="rgb(0, 100, 0)" stroke-linecap="square" stroke-width="3.0"/>
   <polyline fill="none" points="642,75 592,75 592,255" stroke="rgb(0, 100, 0)" stroke-linecap="square" stroke-width="3.0"/>
   <polyline fill="none" points="672,275 682,275 682,635 422,635 422,595 432,595" stroke="rgb(0, 210, 0)" stroke-linecap="square" stroke-width="3.0"/>
   <ellipse cx="592.0" cy="565.0" fill="rgb(0, 100, 0)" rx="5.0" ry="5.0" stroke="none" stroke-width="3.0"/>
   <ellipse cx="602.0" cy="275.0" fill="rgb(0, 100, 0)" rx="5.0" ry="5.0" stroke="none" stroke-width="3.0"/>
   <ellipse cx="392.0" cy="405.0" fill="rgb(0, 210, 0)" rx="5.0" ry="5.0" stroke="none" stroke-width="3.0"/>
   <ellipse cx="602.0" cy="45.0" fill="rgb(0, 100, 0)" rx="5.0" ry="5.0" stroke="none" stroke-width="3.0"/>
   <ellipse cx="402.0" cy="625.0" fill="rgb(0, 100, 0)" rx="5.0" ry="5.0" stroke="none" stroke-width="3.0"/>
   <ellipse cx="392.0" cy="185.0" fill="rgb(0, 210, 0)" rx="5.0" ry="5.0" stroke="none" stroke-width="3.0"/>
   <ellipse cx="602.0" cy="95.0" fill="rgb(0, 100, 0)" rx="5.0" ry="5.0" stroke="none" stroke-width="3.0"/>
   <ellipse cx="402.0" cy="415.0" fill="rgb(0, 100, 0)" rx="5.0" ry="5.0" stroke="none" stroke-width="3.0"/>
   <ellipse cx="362.0" cy="395.0" fill="rgb(0, 100, 0)" rx="5.0" ry="5.0" stroke="none" stroke-width="3.0"/>
   <ellipse cx="412.0" cy="395.0" fill="rgb(0, 100, 0)" rx="5.0" ry="5.0" stroke="none" stroke-width="3.0"/>
   <ellipse cx="402.0" cy="195.0" fill="rgb(0, 100, 0)" rx="5.0" ry="5.0" stroke="none" stroke-width="3.0"/>
   <ellipse cx="652.0" cy="405.0" fill="rgb(0, 210, 0)" rx="5.0" ry="5.0" stroke="none" stroke-width="3.0"/>
   <ellipse cx="392.0" cy="295.0" fill="rgb(0, 210, 0)" rx="5.0" ry="5.0" stroke="none" stroke-width="3.0"/>
   <ellipse cx="592.0" cy="255.0" fill="rgb(0, 100, 0)" rx="5.0" ry="5.0" stroke="none" stroke-width="3.0"/>
   <ellipse cx="612.0" cy="665.0" fill="rgb(0, 100, 0)" rx="5.0" ry="5.0" stroke="none" stroke-width="3.0"/>
   <ellipse cx="342.0" cy="85.0" fill="rgb(0, 0, 0)" rx="6.0" ry="6.0" stroke="none" stroke-width="3.0"/>
   <ellipse cx="392.0" cy="605.0" fill="rgb(0, 210, 0)" rx="5.0" ry="5.0" stroke="none" stroke-width="3.0"/>
   <ellipse cx="402.0" cy="305.0" fill="rgb(0, 100, 0)" rx="5.0" ry="5.0" stroke="none" stroke-width="3.0"/>
   <polyline fill="none" points="117,485 122,485 192,485" stroke="rgb(0, 100, 0)" stroke-linecap="square" stroke-width="3.0"/>
   <polygon fill="none" points="107,494 117,485 107,476 83,476 83,494" stroke="rgb(0, 0, 0)" stroke-linecap="square" stroke-width="2.0"/>
   <text fill="rgb(0, 0, 255)" font-family="Segoe UI" font-size="12" x="102.0" y="492.0">b</text>
   <ellipse cx="97.0" cy="484.0" fill="rgb(0, 100, 0)" rx="4.5" ry="7.0" stroke="none" stroke-width="2.0"/>
   <text fill="rgb(255, 255, 255)" font-family="Segoe UI" font-size="12" x="94.0" y="489.0">0</text>
   <text fill="rgb(0, 0, 255)" font-family="Segoe UI" font-size="16" font-weight="bold" x="59.0" y="493.0">En</text>
   <ellipse cx="122.0" cy="485.0" fill="rgb(0, 100, 0)" rx="2.0" ry="2.0" stroke="none" stroke-width="2.0"/>
   <polyline fill="none" points="117,505 122,505 192,505" stroke="rgb(0, 100, 0)" stroke-linecap="square" stroke-width="3.0"/>
   <polygon fill="none" points="107,514 117,505 107,496 83,496 83,514" stroke="rgb(0, 0, 0)" stroke-linecap="square" stroke-width="2.0"/>
   <text fill="rgb(0, 0, 255)" font-family="Segoe UI" font-size="12" x="102.0" y="512.0">b</text>
   <ellipse cx="97.0" cy="504.0" fill="rgb(0, 100, 0)" rx="4.5" ry="7.0" stroke="none" stroke-width="2.0"/>
   <text fill="rgb(255, 255, 255)" font-family="Segoe UI" font-size="12" x="94.0" y="509.0">0</text>
   <text fill="rgb(0, 0, 255)" font-family="Segoe UI" font-size="16" font-weight="bold" x="56.0" y="513.0">We</text>
   <ellipse cx="122.0" cy="505.0" fill="rgb(0, 100, 0)" rx="2.0" ry="2.0" stroke="none" stroke-width="2.0"/>
   <polyline fill="none" points="117,605 122,605 192,605" stroke="rgb(0, 100, 0)" stroke-linecap="square" stroke-width="3.0"/>
   <polygon fill="none" points="107,614 117,605 107,596 83,596 83,614" stroke="rgb(0, 0, 0)" stroke-linecap="square" stroke-width="2.0"/>
   <text fill="rgb(0, 0, 255)" font-family="Segoe UI" font-size="12" x="102.0" y="612.0">b</text>
   <ellipse cx="97.0" cy="604.0" fill="rgb(0, 100, 0)" rx="4.5" ry="7.0" stroke="none" stroke-width="2.0"/>
   <text fill="rgb(255, 255, 255)" font-family="Segoe UI" font-size="12" x="94.0" y="609.0">0</text>
   <text fill="rgb(0, 0, 255)" font-family="Segoe UI" font-size="16" font-weight="bold" x="46.0" y="613.0">CLK</text>
   <ellipse cx="122.0" cy="605.0" fill="rgb(0, 100, 0)" rx="2.0" ry="2.0" stroke="none" stroke-width="2.0"/>
   <polyline fill="none" points="117,625 122,625 402,625 512,625 512,615" stroke="rgb(0, 100, 0)" stroke-linecap="square" stroke-width="3.0"/>
   <polygon fill="none" points="107,634 117,625 107,616 83,616 83,634" stroke="rgb(0, 0, 0)" stroke-linecap="square" stroke-width="2.0"/>
   <text fill="rgb(0, 0, 255)" font-family="Segoe UI" font-size="12" x="102.0" y="632.0">b</text>
   <ellipse cx="97.0" cy="624.0" fill="rgb(0, 100, 0)" rx="4.5" ry="7.0" stroke="none" stroke-width="2.0"/>
   <text fill="rgb(255, 255, 255)" font-family="Segoe UI" font-size="12" x="94.0" y="629.0">0</text>
   <text fill="rgb(0, 0, 255)" font-family="Segoe UI" font-size="16" font-weight="bold" x="47.0" y="633.0">RST</text>
   <ellipse cx="122.0" cy="625.0" fill="rgb(0, 100, 0)" rx="2.0" ry="2.0" stroke="none" stroke-width="2.0"/>
   <polyline fill="none" points="117,665 122,665 612,665 802,665" stroke="rgb(0, 100, 0)" stroke-linecap="square" stroke-width="3.0"/>
   <polygon fill="none" points="107,674 117,665 107,656 83,656 83,674" stroke="rgb(0, 0, 0)" stroke-linecap="square" stroke-width="2.0"/>
   <text fill="rgb(0, 0, 255)" font-family="Segoe UI" font-size="12" x="102.0" y="672.0">b</text>
   <ellipse cx="97.0" cy="664.0" fill="rgb(0, 100, 0)" rx="4.5" ry="7.0" stroke="none" stroke-width="2.0"/>
   <text fill="rgb(255, 255, 255)" font-family="Segoe UI" font-size="12" x="94.0" y="669.0">0</text>
   <text fill="rgb(0, 0, 255)" font-family="Segoe UI" font-size="16" font-weight="bold" x="35.0" y="673.0">HLDA</text>
   <ellipse cx="122.0" cy="665.0" fill="rgb(0, 100, 0)" rx="2.0" ry="2.0" stroke="none" stroke-width="2.0"/>
   <polyline fill="none" points="169,555 172,555 192,555" stroke="rgb(0, 0, 0)" stroke-linecap="square" stroke-width="4.0"/>
   <polygon fill="none" points="157,564 167,555 157,546 83,546 83,564" stroke="rgb(0, 0, 0)" stroke-linecap="square" stroke-width="2.0"/>
   <text fill="rgb(0, 0, 255)" font-family="Segoe UI" font-size="12" x="152.0" y="562.0">h</text>
   <text fill="rgb(0, 0, 0)" font-family="Segoe UI" font-size="12" x="145.0" y="560.0">0</text>
   <text fill="rgb(0, 0, 0)" font-family="Segoe UI" font-size="12" x="137.0" y="560.0">0</text>
   <text fill="rgb(0, 0, 0)" font-family="Segoe UI" font-size="12" x="129.0" y="560.0">0</text>
   <text fill="rgb(0, 0, 0)" font-family="Segoe UI" font-size="12" x="121.0" y="560.0">0</text>
   <text fill="rgb(0, 0, 0)" font-family="Segoe UI" font-size="12" x="113.0" y="560.0">0</text>
   <text fill="rgb(0, 0, 0)" font-family="Segoe UI" font-size="12" x="105.0" y="560.0">0</text>
   <text fill="rgb(0, 0, 0)" font-family="Segoe UI" font-size="12" x="97.0" y="560.0">0</text>
   <text fill="rgb(0, 0, 0)" font-family="Segoe UI" font-size="12" x="89.0" y="560.0">0</text>
   <text fill="rgb(0, 0, 255)" font-family="Segoe UI" font-size="16" font-weight="bold" x="59.0" y="563.0">Rs</text>
   <ellipse cx="172.0" cy="555.0" fill="rgb(0, 0, 0)" rx="2.0" ry="2.0" stroke="none" stroke-width="2.0"/>
   <polyline fill="none" points="179,85 182,85 242,85" stroke="rgb(0, 0, 0)" stroke-linecap="square" stroke-width="4.0"/>
   <polygon fill="none" points="167,94 177,85 167,76 93,76 93,94" stroke="rgb(0, 0, 0)" stroke-linecap="square" stroke-width="2.0"/>
   <text fill="rgb(0, 0, 255)" font-family="Segoe UI" font-size="12" x="162.0" y="92.0">h</text>
   <text fill="rgb(0, 0, 0)" font-family="Segoe UI" font-size="12" x="155.0" y="90.0">0</text>
   <text fill="rgb(0, 0, 0)" font-family="Segoe UI" font-size="12" x="147.0" y="90.0">0</text>
   <text fill="rgb(0, 0, 0)" font-family="Segoe UI" font-size="12" x="139.0" y="90.0">0</text>
   <text fill="rgb(0, 0, 0)" font-family="Segoe UI" font-size="12" x="131.0" y="90.0">0</text>
   <text fill="rgb(0, 0, 0)" font-family="Segoe UI" font-size="12" x="123.0" y="90.0">0</text>
   <text fill="rgb(0, 0, 0)" font-family="Segoe UI" font-size="12" x="115.0" y="90.0">0</text>
   <text fill="rgb(0, 0, 0)" font-family="Segoe UI" font-size="12" x="107.0" y="90.0">0</text>
   <text fill="rgb(0, 0, 0)" font-family="Segoe UI" font-size="12" x="99.0" y="90.0">0</text>
   <text fill="rgb(0, 0, 255)" font-family="Segoe UI" font-size="16" font-weight="bold" x="41.0" y="93.0">DataIn</text>
   <ellipse cx="182.0" cy="85.0" fill="rgb(0, 0, 0)" rx="2.0" ry="2.0" stroke="none" stroke-width="2.0"/>
   <polyline fill="none" points="179,25 182,25 242,25" stroke="rgb(0, 0, 0)" stroke-linecap="square" stroke-width="4.0"/>
   <polygon fill="none" points="167,34 177,25 167,16 93,16 93,34" stroke="rgb(0, 0, 0)" stroke-linecap="square" stroke-width="2.0"/>
   <text fill="rgb(0, 0, 255)" font-family="Segoe UI" font-size="12" x="162.0" y="32.0">h</text>
   <text fill="rgb(0, 0, 0)" font-family="Segoe UI" font-size="12" x="155.0" y="30.0">0</text>
   <text fill="rgb(0, 0, 0)" font-family="Segoe UI" font-size="12" x="147.0" y="30.0">0</text>
   <text fill="rgb(0, 0, 0)" font-family="Segoe UI" font-size="12" x="139.0" y="30.0">0</text>
   <text fill="rgb(0, 0, 0)" font-family="Segoe UI" font-size="12" x="131.0" y="30.0">0</text>
   <text fill="rgb(0, 0, 0)" font-family="Segoe UI" font-size="12" x="123.0" y="30.0">0</text>
   <text fill="rgb(0, 0, 0)" font-family="Segoe UI" font-size="12" x="115.0" y="30.0">0</text>
   <text fill="rgb(0, 0, 0)" font-family="Segoe UI" font-size="12" x="107.0" y="30.0">0</text>
   <text fill="rgb(0, 0, 0)" font-family="Segoe UI" font-size="12" x="99.0" y="30.0">0</text>
   <text fill="rgb(0, 0, 255)" font-family="Segoe UI" font-size="16" font-weight="bold" x="5.0" y="33.0">MemDataIn</text>
   <ellipse cx="182.0" cy="25.0" fill="rgb(0, 0, 0)" rx="2.0" ry="2.0" stroke="none" stroke-width="2.0"/>
   <polyline fill="none" points="192,535 231,535" stroke="rgb(0, 0, 0)" stroke-linecap="square" stroke-width="2.0"/>
   <polyline fill="none" points="232,535 232,574" stroke="rgb(0, 0, 0)" stroke-linecap="square" stroke-width="2.0"/>
   <polyline fill="none" points="232,575 193,575" stroke="rgb(0, 0, 0)" stroke-linecap="square" stroke-width="2.0"/>
   <polyline fill="none" points="192,575 192,536" stroke="rgb(0, 0, 0)" stroke-linecap="square" stroke-width="2.0"/>
   <text fill="rgb(0, 0, 0)" font-family="SansSerif" font-size="12" x="209.0" y="551.0">0</text>
   <text fill="rgb(0, 0, 0)" font-family="SansSerif" font-size="12" x="194.0" y="571.0">extend</text>
   <ellipse cx="232.0" cy="555.0" fill="rgb(0, 0, 0)" rx="2.0" ry="2.0" stroke="none" stroke-width="1.0"/>
   <text fill="rgb(0, 0, 0)" font-family="SansSerif" font-size="12" x="222.0" y="562.0">2</text>
   <ellipse cx="192.0" cy="555.0" fill="rgb(0, 0, 0)" rx="2.0" ry="2.0" stroke="none" stroke-width="1.0"/>
   <text fill="rgb(0, 0, 0)" font-family="SansSerif" font-size="12" x="195.0" y="562.0">32</text>
   <polyline fill="none" points="242,65 281,65" stroke="rgb(0, 0, 0)" stroke-linecap="square" stroke-width="2.0"/>
   <polyline fill="none" points="282,65 282,104" stroke="rgb(0, 0, 0)" stroke-linecap="square" stroke-width="2.0"/>
   <polyline fill="none" points="282,105 243,105" stroke="rgb(0, 0, 0)" stroke-linecap="square" stroke-width="2.0"/>
   <polyline fill="none" points="242,105 242,66" stroke="rgb(0, 0, 0)" stroke-linecap="square" stroke-width="2.0"/>
   <text fill="rgb(0, 0, 0)" font-family="SansSerif" font-size="12" x="259.0" y="81.0">0</text>
   <text fill="rgb(0, 0, 0)" font-family="SansSerif" font-size="12" x="244.0" y="101.0">extend</text>
   <ellipse cx="282.0" cy="85.0" fill="rgb(0, 0, 0)" rx="2.0" ry="2.0" stroke="none" stroke-width="1.0"/>
   <text fill="rgb(0, 0, 0)" font-family="SansSerif" font-size="12" x="272.0" y="92.0">8</text>
   <ellipse cx="242.0" cy="85.0" fill="rgb(0, 0, 0)" rx="2.0" ry="2.0" stroke="none" stroke-width="1.0"/>
   <text fill="rgb(0, 0, 0)" font-family="SansSerif" font-size="12" x="245.0" y="92.0">32</text>
   <polyline fill="none" points="242,5 281,5" stroke="rgb(0, 0, 0)" stroke-linecap="square" stroke-width="2.0"/>
   <polyline fill="none" points="282,5 282,44" stroke="rgb(0, 0, 0)" stroke-linecap="square" stroke-width="2.0"/>
   <polyline fill="none" points="282,45 243,45" stroke="rgb(0, 0, 0)" stroke-linecap="square" stroke-width="2.0"/>
   <polyline fill="none" points="242,45 242,6" stroke="rgb(0, 0, 0)" stroke-linecap="square" stroke-width="2.0"/>
   <text fill="rgb(0, 0, 0)" font-family="SansSerif" font-size="12" x="259.0" y="21.0">0</text>
   <text fill="rgb(0, 0, 0)" font-family="SansSerif" font-size="12" x="244.0" y="41.0">extend</text>
   <ellipse cx="282.0" cy="25.0" fill="rgb(0, 0, 0)" rx="2.0" ry="2.0" stroke="none" stroke-width="1.0"/>
   <text fill="rgb(0, 0, 0)" font-family="SansSerif" font-size="12" x="272.0" y="32.0">8</text>
   <ellipse cx="242.0" cy="25.0" fill="rgb(0, 0, 0)" rx="2.0" ry="2.0" stroke="none" stroke-width="1.0"/>
   <text fill="rgb(0, 0, 0)" font-family="SansSerif" font-size="12" x="245.0" y="32.0">32</text>
   <polyline fill="none" points="652,245 652,240" stroke="rgb(0, 100, 0)" stroke-linecap="square" stroke-width="3.0"/>
   <polyline fill="none" points="644,239 660,239" stroke="rgb(0, 100, 0)" stroke-linecap="square" stroke-width="1.0"/>
   <polyline fill="none" points="647,236 657,236" stroke="rgb(0, 100, 0)" stroke-linecap="square" stroke-width="1.0"/>
   <polyline fill="none" points="650,233 654,233" stroke="rgb(0, 100, 0)" stroke-linecap="square" stroke-width="1.0"/>
   <ellipse cx="652.0" cy="245.0" fill="rgb(0, 100, 0)" rx="2.0" ry="2.0" stroke="none" stroke-width="1.0"/>
   <polyline fill="none" points="712,65 751,65" stroke="rgb(0, 0, 0)" stroke-linecap="square" stroke-width="2.0"/>
   <polyline fill="none" points="752,65 752,104" stroke="rgb(0, 0, 0)" stroke-linecap="square" stroke-width="2.0"/>
   <polyline fill="none" points="752,105 713,105" stroke="rgb(0, 0, 0)" stroke-linecap="square" stroke-width="2.0"/>
   <polyline fill="none" points="712,105 712,66" stroke="rgb(0, 0, 0)" stroke-linecap="square" stroke-width="2.0"/>
   <text fill="rgb(0, 0, 0)" font-family="SansSerif" font-size="12" x="729.0" y="81.0">0</text>
   <text fill="rgb(0, 0, 0)" font-family="SansSerif" font-size="12" x="714.0" y="101.0">extend</text>
   <ellipse cx="752.0" cy="85.0" fill="rgb(0, 0, 0)" rx="2.0" ry="2.0" stroke="none" stroke-width="1.0"/>
   <text fill="rgb(0, 0, 0)" font-family="SansSerif" font-size="12" x="735.0" y="92.0">32</text>
   <ellipse cx="712.0" cy="85.0" fill="rgb(0, 0, 0)" rx="2.0" ry="2.0" stroke="none" stroke-width="1.0"/>
   <text fill="rgb(0, 0, 0)" font-family="SansSerif" font-size="12" x="715.0" y="92.0">16</text>
   <polyline fill="none" points="836,85 835,85" stroke="rgb(0, 0, 0)" stroke-linecap="square" stroke-width="4.0"/>
   <polygon fill="none" points="912,76 922,85 912,94 838,94 838,76" stroke="rgb(0, 0, 0)" stroke-linecap="square" stroke-width="2.0"/>
   <text fill="rgb(0, 0, 255)" font-family="Segoe UI" font-size="12" x="907.0" y="92.0">h</text>
   <text fill="rgb(0, 0, 0)" font-family="Segoe UI" font-size="12" x="900.0" y="90.0">U</text>
   <text fill="rgb(0, 0, 0)" font-family="Segoe UI" font-size="12" x="892.0" y="90.0">U</text>
   <text fill="rgb(0, 0, 0)" font-family="Segoe UI" font-size="12" x="884.0" y="90.0">U</text>
   <text fill="rgb(0, 0, 0)" font-family="Segoe UI" font-size="12" x="876.0" y="90.0">U</text>
   <text fill="rgb(0, 0, 0)" font-family="Segoe UI" font-size="12" x="868.0" y="90.0">U</text>
   <text fill="rgb(0, 0, 0)" font-family="Segoe UI" font-size="12" x="860.0" y="90.0">U</text>
   <text fill="rgb(0, 0, 0)" font-family="Segoe UI" font-size="12" x="852.0" y="90.0">U</text>
   <text fill="rgb(0, 0, 0)" font-family="Segoe UI" font-size="12" x="844.0" y="90.0">U</text>
   <text fill="rgb(0, 0, 255)" font-family="Segoe UI" font-size="16" font-weight="bold" x="924.0" y="93.0">MemAddr</text>
   <ellipse cx="832.0" cy="85.0" fill="rgb(0, 0, 0)" rx="2.0" ry="2.0" stroke="none" stroke-width="2.0"/>
   <polyline fill="none" points="836,25 835,25" stroke="rgb(0, 0, 0)" stroke-linecap="square" stroke-width="4.0"/>
   <polygon fill="none" points="932,16 942,25 932,34 838,34 838,16" stroke="rgb(0, 0, 0)" stroke-linecap="square" stroke-width="2.0"/>
   <text fill="rgb(0, 0, 255)" font-family="Segoe UI" font-size="12" x="927.0" y="32.0">b</text>
   <text fill="rgb(0, 0, 0)" font-family="Segoe UI" font-size="12" x="919.0" y="29.0">U</text>
   <text fill="rgb(0, 0, 0)" font-family="Segoe UI" font-size="12" x="909.0" y="29.0">U</text>
   <text fill="rgb(0, 0, 0)" font-family="Segoe UI" font-size="12" x="899.0" y="29.0">U</text>
   <text fill="rgb(0, 0, 0)" font-family="Segoe UI" font-size="12" x="889.0" y="29.0">U</text>
   <text fill="rgb(0, 0, 0)" font-family="Segoe UI" font-size="12" x="879.0" y="29.0">U</text>
   <text fill="rgb(0, 0, 0)" font-family="Segoe UI" font-size="12" x="869.0" y="29.0">U</text>
   <text fill="rgb(0, 0, 0)" font-family="Segoe UI" font-size="12" x="859.0" y="29.0">U</text>
   <text fill="rgb(0, 0, 0)" font-family="Segoe UI" font-size="12" x="849.0" y="29.0">U</text>
   <text fill="rgb(0, 0, 255)" font-family="Segoe UI" font-size="16" font-weight="bold" x="944.0" y="33.0">MemDataOut</text>
   <ellipse cx="832.0" cy="25.0" fill="rgb(0, 0, 0)" rx="2.0" ry="2.0" stroke="none" stroke-width="2.0"/>
   <polyline fill="none" points="846,565 843,565" stroke="rgb(0, 100, 0)" stroke-linecap="square" stroke-width="3.0"/>
   <polygon fill="none" points="872,556 882,565 872,574 848,574 848,556" stroke="rgb(0, 0, 0)" stroke-linecap="square" stroke-width="2.0"/>
   <text fill="rgb(0, 0, 255)" font-family="Segoe UI" font-size="12" x="867.0" y="572.0">b</text>
   <text fill="rgb(0, 0, 0)" font-family="Segoe UI" font-size="12" x="859.0" y="569.0">0</text>
   <text fill="rgb(0, 0, 255)" font-family="Segoe UI" font-size="16" font-weight="bold" x="884.0" y="573.0">HRQ</text>
   <ellipse cx="842.0" cy="565.0" fill="rgb(0, 100, 0)" rx="2.0" ry="2.0" stroke="none" stroke-width="2.0"/>
   <polyline fill="none" points="846,655 843,655" stroke="rgb(0, 100, 0)" stroke-linecap="square" stroke-width="3.0"/>
   <polygon fill="none" points="872,646 882,655 872,664 848,664 848,646" stroke="rgb(0, 0, 0)" stroke-linecap="square" stroke-width="2.0"/>
   <text fill="rgb(0, 0, 255)" font-family="Segoe UI" font-size="12" x="867.0" y="662.0">b</text>
   <text fill="rgb(0, 0, 0)" font-family="Segoe UI" font-size="12" x="859.0" y="659.0">0</text>
   <text fill="rgb(0, 0, 255)" font-family="Segoe UI" font-size="16" font-weight="bold" x="884.0" y="663.0">DCLK</text>
   <ellipse cx="842.0" cy="655.0" fill="rgb(0, 100, 0)" rx="2.0" ry="2.0" stroke="none" stroke-width="2.0"/>
   <polygon fill="none" points="206,605 193,599 193,611" stroke="rgb(0, 0, 0)" stroke-linecap="square" stroke-width="2.0"/>
   <ellipse cx="209.0" cy="605.0" fill="none" rx="3.0" ry="3.0" stroke="rgb(0, 0, 0)" stroke-width="2.0"/>
   <ellipse cx="212.0" cy="605.0" fill="rgb(0, 210, 0)" rx="2.0" ry="2.0" stroke="none" stroke-width="2.0"/>
   <ellipse cx="192.0" cy="605.0" fill="rgb(0, 100, 0)" rx="2.0" ry="2.0" stroke="none" stroke-width="2.0"/>
   <path d="M207.0,510.0 A15.0,15.0 90.0 0,0 207.0,480.0" fill="none" stroke="rgb(0, 0, 0)" stroke-width="2.0"/>
   <polyline fill="none" points="207,480 193,480 193,510 207,510" stroke="rgb(0, 0, 0)" stroke-linecap="square" stroke-width="2.0"/>
   <ellipse cx="222.0" cy="495.0" fill="rgb(0, 100, 0)" rx="2.0" ry="2.0" stroke="none" stroke-width="2.0"/>
   <ellipse cx="192.0" cy="485.0" fill="rgb(0, 100, 0)" rx="2.0" ry="2.0" stroke="none" stroke-width="2.0"/>
   <ellipse cx="192.0" cy="505.0" fill="rgb(0, 100, 0)" rx="2.0" ry="2.0" stroke="none" stroke-width="2.0"/>
   <path d="M447.0,600.0 A15.0,15.0 90.0 0,0 447.0,570.0" fill="none" stroke="rgb(0, 0, 0)" stroke-width="2.0"/>
   <polyline fill="none" points="447,570 433,570 433,600 447,600" stroke="rgb(0, 0, 0)" stroke-linecap="square" stroke-width="2.0"/>
   <ellipse cx="462.0" cy="585.0" fill="rgb(0, 100, 0)" rx="2.0" ry="2.0" stroke="none" stroke-width="2.0"/>
   <ellipse cx="432.0" cy="575.0" fill="rgb(0, 100, 0)" rx="2.0" ry="2.0" stroke="none" stroke-width="2.0"/>
   <ellipse cx="432.0" cy="595.0" fill="rgb(0, 210, 0)" rx="2.0" ry="2.0" stroke="none" stroke-width="2.0"/>
   <path d="M617.0,500.0 A15.0,15.0 0.0 0,0 587.0,500.0" fill="none" stroke="rgb(0, 0, 0)" stroke-width="2.0"/>
   <polyline fill="none" points="587,500 587,514 617,514 617,500" stroke="rgb(0, 0, 0)" stroke-linecap="square" stroke-width="2.0"/>
   <ellipse cx="602.0" cy="485.0" fill="rgb(0, 100, 0)" rx="2.0" ry="2.0" stroke="none" stroke-width="2.0"/>
   <ellipse cx="592.0" cy="515.0" fill="rgb(0, 100, 0)" rx="2.0" ry="2.0" stroke="none" stroke-width="2.0"/>
   <ellipse cx="612.0" cy="515.0" fill="rgb(0, 100, 0)" rx="2.0" ry="2.0" stroke="none" stroke-width="2.0"/>
   <polygon fill="none" points="612,25 593,18 593,32" stroke="rgb(0, 0, 0)" stroke-linecap="square" stroke-width="2.0"/>
   <ellipse cx="612.0" cy="25.0" fill="rgb(0, 0, 0)" rx="2.0" ry="2.0" stroke="none" stroke-width="2.0"/>
   <ellipse cx="592.0" cy="25.0" fill="rgb(0, 0, 0)" rx="2.0" ry="2.0" stroke="none" stroke-width="2.0"/>
   <polyline fill="none" points="602,25 602,35 602,45 782,45 782,75 782,80" stroke="rgb(0, 100, 0)" stroke-linecap="square" stroke-width="3.0"/>
   <polygon fill="none" points="792,85 773,78 773,92" stroke="rgb(0, 0, 0)" stroke-linecap="square" stroke-width="2.0"/>
   <ellipse cx="792.0" cy="85.0" fill="rgb(0, 0, 0)" rx="2.0" ry="2.0" stroke="none" stroke-width="2.0"/>
   <ellipse cx="772.0" cy="85.0" fill="rgb(0, 0, 0)" rx="2.0" ry="2.0" stroke="none" stroke-width="2.0"/>
   <path d="M817.0,670.0 A15.0,15.0 90.0 0,0 817.0,640.0" fill="none" stroke="rgb(0, 0, 0)" stroke-width="2.0"/>
   <polyline fill="none" points="817,640 803,640 803,670 817,670" stroke="rgb(0, 0, 0)" stroke-linecap="square" stroke-width="2.0"/>
   <ellipse cx="832.0" cy="655.0" fill="rgb(0, 100, 0)" rx="2.0" ry="2.0" stroke="none" stroke-width="2.0"/>
   <ellipse cx="802.0" cy="645.0" fill="rgb(0, 210, 0)" rx="2.0" ry="2.0" stroke="none" stroke-width="2.0"/>
   <ellipse cx="802.0" cy="665.0" fill="rgb(0, 100, 0)" rx="2.0" ry="2.0" stroke="none" stroke-width="2.0"/>
   <polyline fill="none" points="222,495 242,495 242,425 242,421" stroke="rgb(0, 100, 0)" stroke-linecap="square" stroke-width="3.0"/>
   <ellipse cx="252.0" cy="415.0" fill="rgb(192, 192, 192)" rx="3.0" ry="3.0" stroke="none" stroke-width="1.0"/>
   <text fill="rgb(128, 128, 128)" font-family="SansSerif" font-size="12" x="262.0" y="390.0">0</text>
   <polygon fill="none" points="232,395 272,375 272,435 232,415" stroke="rgb(0, 0, 0)" stroke-linecap="square" stroke-width="2.0"/>
   <text fill="rgb(0, 0, 0)" font-family="SansSerif" font-size="12" x="238.0" y="412.0">Decd</text>
   <ellipse cx="272.0" cy="385.0" fill="rgb(0, 100, 0)" rx="2.0" ry="2.0" stroke="none" stroke-width="2.0"/>
   <ellipse cx="272.0" cy="395.0" fill="rgb(0, 100, 0)" rx="2.0" ry="2.0" stroke="none" stroke-width="2.0"/>
   <ellipse cx="272.0" cy="405.0" fill="rgb(0, 100, 0)" rx="2.0" ry="2.0" stroke="none" stroke-width="2.0"/>
   <ellipse cx="272.0" cy="415.0" fill="rgb(0, 100, 0)" rx="2.0" ry="2.0" stroke="none" stroke-width="2.0"/>
   <ellipse cx="252.0" cy="425.0" fill="rgb(0, 0, 0)" rx="2.0" ry="2.0" stroke="none" stroke-width="2.0"/>
   <ellipse cx="242.0" cy="425.0" fill="rgb(0, 100, 0)" rx="2.0" ry="2.0" stroke="none" stroke-width="2.0"/>
   <polyline fill="none" points="492,555 531,555" stroke="rgb(0, 0, 0)" stroke-linecap="square" stroke-width="2.0"/>
   <polyline fill="none" points="532,555 532,614" stroke="rgb(0, 0, 0)" stroke-linecap="square" stroke-width="2.0"/>
   <polyline fill="none" points="532,615 493,615" stroke="rgb(0, 0, 0)" stroke-linecap="square" stroke-width="2.0"/>
   <polyline fill="none" points="492,615 492,556" stroke="rgb(0, 0, 0)" stroke-linecap="square" stroke-width="2.0"/>
   <ellipse cx="512.0" cy="585.0" fill="rgb(0, 100, 0)" rx="7.0" ry="7.0" stroke="none" stroke-width="2.0"/>
   <text fill="rgb(255, 255, 255)" font-family="SansSerif" font-size="12" x="509.0" y="590.0">0</text>
   <ellipse cx="512.0" cy="615.0" fill="rgb(0, 100, 0)" rx="2.0" ry="2.0" stroke="none" stroke-width="2.0"/>
   <text fill="rgb(128, 128, 128)" font-family="SansSerif" font-size="12" x="508.0" y="612.0">R</text>
   <ellipse cx="512.0" cy="555.0" fill="rgb(40, 40, 255)" rx="2.0" ry="2.0" stroke="none" stroke-width="2.0"/>
   <text fill="rgb(128, 128, 128)" font-family="SansSerif" font-size="12" x="508.0" y="571.0">S</text>
   <polyline fill="none" points="482,565 491,565" stroke="rgb(0, 0, 0)" stroke-linecap="square" stroke-width="3.0"/>
   <ellipse cx="482.0" cy="565.0" fill="rgb(0, 100, 0)" rx="2.0" ry="2.0" stroke="none" stroke-width="3.0"/>
   <text fill="rgb(0, 0, 0)" font-family="SansSerif" font-size="12" x="496.0" y="570.0">S</text>
   <polyline fill="none" points="482,585 491,585" stroke="rgb(0, 0, 0)" stroke-linecap="square" stroke-width="3.0"/>
   <ellipse cx="482.0" cy="585.0" fill="rgb(0, 100, 0)" rx="2.0" ry="2.0" stroke="none" stroke-width="3.0"/>
   <text fill="rgb(0, 0, 0)" font-family="SansSerif" font-size="12" x="496.0" y="590.0">R</text>
   <polyline fill="none" points="493,601 500,605 493,609" stroke="rgb(0, 0, 0)" stroke-linecap="square" stroke-width="2.0"/>
   <polyline fill="none" points="482,605 491,605" stroke="rgb(0, 0, 0)" stroke-linecap="square" stroke-width="2.0"/>
   <ellipse cx="482.0" cy="605.0" fill="rgb(0, 210, 0)" rx="2.0" ry="2.0" stroke="none" stroke-width="2.0"/>
   <polyline fill="none" points="533,565 542,565" stroke="rgb(0, 0, 0)" stroke-linecap="square" stroke-width="3.0"/>
   <text fill="rgb(0, 0, 0)" font-family="SansSerif" font-size="12" x="519.0" y="570.0">Q</text>
   <ellipse cx="542.0" cy="565.0" fill="rgb(0, 100, 0)" rx="2.0" ry="2.0" stroke="none" stroke-width="3.0"/>
   <ellipse cx="537.0" cy="605.0" fill="none" rx="5.0" ry="5.0" stroke="rgb(0, 0, 0)" stroke-width="2.0"/>
   <ellipse cx="542.0" cy="605.0" fill="rgb(0, 210, 0)" rx="2.0" ry="2.0" stroke="none" stroke-width="2.0"/>
   <polyline fill="none" points="642,65 671,65" stroke="rgb(0, 0, 0)" stroke-linecap="square" stroke-width="2.0"/>
   <polyline fill="none" points="672,65 672,104" stroke="rgb(0, 0, 0)" stroke-linecap="square" stroke-width="2.0"/>
   <polyline fill="none" points="672,105 643,105" stroke="rgb(0, 0, 0)" stroke-linecap="square" stroke-width="2.0"/>
   <polyline fill="none" points="642,105 642,66" stroke="rgb(0, 0, 0)" stroke-linecap="square" stroke-width="2.0"/>
   <ellipse cx="642.0" cy="85.0" fill="rgb(0, 0, 0)" rx="2.0" ry="2.0" stroke="none" stroke-width="1.0"/>
   <text fill="rgb(0, 0, 0)" font-family="SansSerif" font-size="12" x="645.0" y="92.0">D</text>
   <ellipse cx="672.0" cy="85.0" fill="rgb(0, 0, 0)" rx="2.0" ry="2.0" stroke="none" stroke-width="1.0"/>
   <text fill="rgb(0, 0, 0)" font-family="SansSerif" font-size="12" x="660.0" y="92.0">Q</text>
   <ellipse cx="642.0" cy="75.0" fill="rgb(0, 100, 0)" rx="2.0" ry="2.0" stroke="none" stroke-width="1.0"/>
   <ellipse cx="652.0" cy="65.0" fill="rgb(40, 40, 255)" rx="2.0" ry="2.0" stroke="none" stroke-width="1.0"/>
   <ellipse cx="672.0" cy="95.0" fill="rgb(0, 100, 0)" rx="2.0" ry="2.0" stroke="none" stroke-width="1.0"/>
   <ellipse cx="662.0" cy="105.0" fill="rgb(0, 100, 0)" rx="2.0" ry="2.0" stroke="none" stroke-width="1.0"/>
   <text fill="rgb(128, 128, 128)" font-family="SansSerif" font-size="12" x="659.0" y="102.0">0</text>
   <ellipse cx="642.0" cy="95.0" fill="rgb(0, 100, 0)" rx="2.0" ry="2.0" stroke="none" stroke-width="1.0"/>
   <text fill="rgb(128, 128, 128)" font-family="SansSerif" font-size="12" x="645.0" y="102.0">ct</text>
   <polyline fill="none" points="655,104 652,101 649,104" stroke="rgb(0, 0, 0)" stroke-linecap="square" stroke-width="2.0"/>
   <text fill="rgb(0, 0, 0)" font-family="SansSerif" font-size="12" x="643.0" y="82.0">0000</text>
   <polyline fill="none" points="642,245 671,245" stroke="rgb(0, 0, 0)" stroke-linecap="square" stroke-width="2.0"/>
   <polyline fill="none" points="672,245 672,284" stroke="rgb(0, 0, 0)" stroke-linecap="square" stroke-width="2.0"/>
   <polyline fill="none" points="672,285 643,285" stroke="rgb(0, 0, 0)" stroke-linecap="square" stroke-width="2.0"/>
   <polyline fill="none" points="642,285 642,246" stroke="rgb(0, 0, 0)" stroke-linecap="square" stroke-width="2.0"/>
   <ellipse cx="642.0" cy="265.0" fill="rgb(0, 0, 0)" rx="2.0" ry="2.0" stroke="none" stroke-width="1.0"/>
   <text fill="rgb(0, 0, 0)" font-family="SansSerif" font-size="12" x="645.0" y="272.0">D</text>
   <ellipse cx="672.0" cy="265.0" fill="rgb(0, 0, 0)" rx="2.0" ry="2.0" stroke="none" stroke-width="1.0"/>
   <text fill="rgb(0, 0, 0)" font-family="SansSerif" font-size="12" x="660.0" y="272.0">Q</text>
   <ellipse cx="642.0" cy="255.0" fill="rgb(0, 100, 0)" rx="2.0" ry="2.0" stroke="none" stroke-width="1.0"/>
   <ellipse cx="652.0" cy="245.0" fill="rgb(0, 100, 0)" rx="2.0" ry="2.0" stroke="none" stroke-width="1.0"/>
   <ellipse cx="672.0" cy="275.0" fill="rgb(0, 210, 0)" rx="2.0" ry="2.0" stroke="none" stroke-width="1.0"/>
   <ellipse cx="662.0" cy="285.0" fill="rgb(0, 100, 0)" rx="2.0" ry="2.0" stroke="none" stroke-width="1.0"/>
   <text fill="rgb(128, 128, 128)" font-family="SansSerif" font-size="12" x="659.0" y="282.0">0</text>
   <ellipse cx="642.0" cy="275.0" fill="rgb(0, 100, 0)" rx="2.0" ry="2.0" stroke="none" stroke-width="1.0"/>
   <text fill="rgb(128, 128, 128)" font-family="SansSerif" font-size="12" x="645.0" y="282.0">ct</text>
   <polyline fill="none" points="655,284 652,281 649,284" stroke="rgb(0, 0, 0)" stroke-linecap="square" stroke-width="2.0"/>
   <text fill="rgb(0, 0, 0)" font-family="SansSerif" font-size="12" x="643.0" y="262.0">0000</text>
   <rect fill="rgb(52, 47, 87)" height="60" rx="1.0" ry="1.0" stroke="none" stroke-linecap="square" stroke-width="1.0" width="70" x="462" y="75"/>
   <rect fill="none" height="60" rx="1.0" ry="1.0" stroke="rgb(0, 0, 0)" stroke-linecap="square" stroke-width="2.0" width="70" x="462" y="75"/>
   <text fill="rgb(0, 0, 255)" font-family="SansSerif" font-size="16" font-weight="bold" x="439.0" y="72.0">Block_Address</text>
   <ellipse cx="462.0" cy="85.0" fill="rgb(0, 0, 0)" rx="2.0" ry="2.0" stroke="none" stroke-width="1.0"/>
   <ellipse cx="462.0" cy="95.0" fill="rgb(0, 100, 0)" rx="2.0" ry="2.0" stroke="none" stroke-width="1.0"/>
   <ellipse cx="462.0" cy="105.0" fill="rgb(0, 100, 0)" rx="2.0" ry="2.0" stroke="none" stroke-width="1.0"/>
   <ellipse cx="462.0" cy="115.0" fill="rgb(0, 210, 0)" rx="2.0" ry="2.0" stroke="none" stroke-width="1.0"/>
   <ellipse cx="462.0" cy="125.0" fill="rgb(0, 100, 0)" rx="2.0" ry="2.0" stroke="none" stroke-width="1.0"/>
   <ellipse cx="532.0" cy="85.0" fill="rgb(0, 0, 0)" rx="2.0" ry="2.0" stroke="none" stroke-width="1.0"/>
   <rect fill="rgb(52, 47, 87)" height="60" rx="1.0" ry="1.0" stroke="none" stroke-linecap="square" stroke-width="1.0" width="70" x="462" y="255"/>
   <rect fill="none" height="60" rx="1.0" ry="1.0" stroke="rgb(0, 0, 0)" stroke-linecap="square" stroke-width="2.0" width="70" x="462" y="255"/>
   <text fill="rgb(0, 0, 255)" font-family="SansSerif" font-size="16" font-weight="bold" x="454.0" y="252.0">Block_Size</text>
   <ellipse cx="462.0" cy="265.0" fill="rgb(0, 0, 0)" rx="2.0" ry="2.0" stroke="none" stroke-width="1.0"/>
   <ellipse cx="462.0" cy="275.0" fill="rgb(0, 100, 0)" rx="2.0" ry="2.0" stroke="none" stroke-width="1.0"/>
   <ellipse cx="462.0" cy="285.0" fill="rgb(0, 100, 0)" rx="2.0" ry="2.0" stroke="none" stroke-width="1.0"/>
   <ellipse cx="462.0" cy="295.0" fill="rgb(0, 210, 0)" rx="2.0" ry="2.0" stroke="none" stroke-width="1.0"/>
   <ellipse cx="462.0" cy="305.0" fill="rgb(0, 100, 0)" rx="2.0" ry="2.0" stroke="none" stroke-width="1.0"/>
   <ellipse cx="532.0" cy="265.0" fill="rgb(0, 0, 0)" rx="2.0" ry="2.0" stroke="none" stroke-width="1.0"/>
</svg>
