<svg version="1.1" xmlns="http://www.w3.org/2000/svg" viewBox="0 0 1016.8344184027778 653.6111111111111" width="1016.8344184027778" height="653.6111111111111">
  <!-- svg-source:excalidraw -->
  
  <defs>
    <style class="style-fonts">
      @font-face {
        font-family: "Virgil";
        src: url("https://excalidraw.com/Virgil.woff2");
      }
      @font-face {
        font-family: "Cascadia";
        src: url("https://excalidraw.com/Cascadia.woff2");
      }
      @font-face {
        font-family: "Assistant";
        src: url("https://excalidraw.com/Assistant-Regular.woff2");
      }
    </style>
    
  </defs>
  <rect x="0" y="0" width="1016.8344184027778" height="653.6111111111111" fill="#ffffff"></rect><g stroke-linecap="round" transform="translate(10 38) rotate(0 41.5 30.5)"><path d="M0 0 C30.47 0, 60.95 0, 83 0 M0 0 C30.51 0, 61.02 0, 83 0 M83 0 C83 15.13, 83 30.26, 83 61 M83 0 C83 18.29, 83 36.58, 83 61 M83 61 C52.62 61, 22.24 61, 0 61 M83 61 C54.39 61, 25.78 61, 0 61 M0 61 C0 45.89, 0 30.77, 0 0 M0 61 C0 45.78, 0 30.56, 0 0" stroke="#1e1e1e" stroke-width="1" fill="none"></path></g><g stroke-linecap="round" transform="translate(258.99999999999994 38) rotate(0 41.5 30.5)"><path d="M0 0 C25.42 0, 50.83 0, 83 0 M0 0 C19.22 0, 38.45 0, 83 0 M83 0 C83 21.23, 83 42.47, 83 61 M83 0 C83 22.11, 83 44.23, 83 61 M83 61 C61.86 61, 40.72 61, 0 61 M83 61 C56.37 61, 29.74 61, 0 61 M0 61 C0 41.33, 0 21.66, 0 0 M0 61 C0 37.22, 0 13.44, 0 0" stroke="#1e1e1e" stroke-width="1" fill="none"></path></g><g stroke-linecap="round" transform="translate(92.99999999999994 38) rotate(0 41.5 30.5)"><path d="M0 0 C20.57 0, 41.14 0, 83 0 M0 0 C20.72 0, 41.45 0, 83 0 M83 0 C83 14.42, 83 28.85, 83 61 M83 0 C83 24.28, 83 48.57, 83 61 M83 61 C58.61 61, 34.22 61, 0 61 M83 61 C57.53 61, 32.06 61, 0 61 M0 61 C0 40.54, 0 20.07, 0 0 M0 61 C0 48.59, 0 36.18, 0 0" stroke="#1e1e1e" stroke-width="1" fill="none"></path></g><g stroke-linecap="round" transform="translate(341.99999999999994 38) rotate(0 41.5 30.5)"><path d="M0 0 C19.56 0, 39.12 0, 83 0 M0 0 C30.41 0, 60.82 0, 83 0 M83 0 C83 22.38, 83 44.76, 83 61 M83 0 C83 16.28, 83 32.55, 83 61 M83 61 C56.34 61, 29.67 61, 0 61 M83 61 C60.11 61, 37.21 61, 0 61 M0 61 C0 37.1, 0 13.2, 0 0 M0 61 C0 39.48, 0 17.97, 0 0" stroke="#1e1e1e" stroke-width="1" fill="none"></path></g><g stroke-linecap="round" transform="translate(507.99999999999994 38) rotate(0 41.5 30.5)"><path d="M0 0 C31.82 0, 63.63 0, 83 0 M0 0 C23.23 0, 46.46 0, 83 0 M83 0 C83 13.26, 83 26.51, 83 61 M83 0 C83 17.61, 83 35.21, 83 61 M83 61 C52.71 61, 22.41 61, 0 61 M83 61 C62.7 61, 42.41 61, 0 61 M0 61 C0 45.83, 0 30.66, 0 0 M0 61 C0 38.68, 0 16.36, 0 0" stroke="#1e1e1e" stroke-width="1" fill="none"></path></g><g stroke-linecap="round" transform="translate(175.99999999999994 38) rotate(0 41.5 30.5)"><path d="M0 0 C25.81 0, 51.61 0, 83 0 M0 0 C28.51 0, 57.03 0, 83 0 M83 0 C83 16.4, 83 32.8, 83 61 M83 0 C83 21.68, 83 43.36, 83 61 M83 61 C56.44 61, 29.89 61, 0 61 M83 61 C51.85 61, 20.7 61, 0 61 M0 61 C0 38.3, 0 15.6, 0 0 M0 61 C0 40.22, 0 19.45, 0 0" stroke="#1e1e1e" stroke-width="1" fill="none"></path></g><g stroke-linecap="round" transform="translate(424.99999999999994 38) rotate(0 41.5 30.5)"><path d="M0 0 C19.32 0, 38.64 0, 83 0 M0 0 C23.58 0, 47.17 0, 83 0 M83 0 C83 22.77, 83 45.55, 83 61 M83 0 C83 20.71, 83 41.42, 83 61 M83 61 C51.01 61, 19.02 61, 0 61 M83 61 C51.66 61, 20.32 61, 0 61 M0 61 C0 42.04, 0 23.07, 0 0 M0 61 C0 43.64, 0 26.28, 0 0" stroke="#1e1e1e" stroke-width="1" fill="none"></path></g><g stroke-linecap="round" transform="translate(591 38) rotate(0 41.5 30.5)"><path d="M0 0 C27.22 0, 54.44 0, 83 0 M0 0 C23.4 0, 46.81 0, 83 0 M83 0 C83 20.27, 83 40.54, 83 61 M83 0 C83 12.33, 83 24.66, 83 61 M83 61 C53.07 61, 23.15 61, 0 61 M83 61 C66.03 61, 49.06 61, 0 61 M0 61 C0 48.42, 0 35.83, 0 0 M0 61 C0 45.04, 0 29.08, 0 0" stroke="#1e1e1e" stroke-width="1" fill="none"></path></g><g transform="translate(630 10) rotate(0 5.5615234375 11.5)"><text x="0" y="0" font-family="Helvetica, Segoe UI Emoji" font-size="20px" fill="#1e1e1e" text-anchor="start" style="white-space: pre;" direction="ltr" dominant-baseline="text-before-edge">0</text></g><g transform="translate(545 10) rotate(0 5.5615234375 11.5)"><text x="0" y="0" font-family="Helvetica, Segoe UI Emoji" font-size="20px" fill="#1e1e1e" text-anchor="start" style="white-space: pre;" direction="ltr" dominant-baseline="text-before-edge">1</text></g><g transform="translate(461.99999999999994 11) rotate(0 5.5615234375 11.5)"><text x="0" y="0" font-family="Helvetica, Segoe UI Emoji" font-size="20px" fill="#1e1e1e" text-anchor="start" style="white-space: pre;" direction="ltr" dominant-baseline="text-before-edge">2</text></g><g transform="translate(379.99999999999994 11) rotate(0 5.5615234375 11.5)"><text x="0" y="0" font-family="Helvetica, Segoe UI Emoji" font-size="20px" fill="#1e1e1e" text-anchor="start" style="white-space: pre;" direction="ltr" dominant-baseline="text-before-edge">3</text></g><g transform="translate(295.99999999999994 10) rotate(0 5.5615234375 11.5)"><text x="0" y="0" font-family="Helvetica, Segoe UI Emoji" font-size="20px" fill="#1e1e1e" text-anchor="start" style="white-space: pre;" direction="ltr" dominant-baseline="text-before-edge">4</text></g><g transform="translate(211.99999999999994 10) rotate(0 5.5615234375 11.5)"><text x="0" y="0" font-family="Helvetica, Segoe UI Emoji" font-size="20px" fill="#1e1e1e" text-anchor="start" style="white-space: pre;" direction="ltr" dominant-baseline="text-before-edge">5</text></g><g transform="translate(131 11) rotate(0 5.5615234375 11.5)"><text x="0" y="0" font-family="Helvetica, Segoe UI Emoji" font-size="20px" fill="#1e1e1e" text-anchor="start" style="white-space: pre;" direction="ltr" dominant-baseline="text-before-edge">6</text></g><g transform="translate(47 10) rotate(0 5.5615234375 11.5)"><text x="0" y="0" font-family="Helvetica, Segoe UI Emoji" font-size="20px" fill="#1e1e1e" text-anchor="start" style="white-space: pre;" direction="ltr" dominant-baseline="text-before-edge">7</text></g><g stroke-linecap="round"><g transform="translate(634.25 171.99999999999997) rotate(0 -0.125 -36)"><path d="M0 0 C-0.09 -27.01, -0.19 -54.03, -0.25 -72 M0 0 C-0.08 -23.65, -0.16 -47.31, -0.25 -72" stroke="#1e1e1e" stroke-width="1" fill="none"></path></g></g><mask></mask><g stroke-linecap="round"><g transform="translate(548.8888888888889 313.3333333333335) rotate(0 -0.4444444444444571 -106.66666666666671)"><path d="M0 0 C-0.22 -53.93, -0.45 -107.85, -0.89 -213.33 M0 0 C-0.28 -66.05, -0.55 -132.1, -0.89 -213.33" stroke="#1e1e1e" stroke-width="1" fill="none"></path></g></g><mask></mask><g stroke-linecap="round"><g transform="translate(634.25 171.99999999999997) rotate(0 35.81944444444446 -0.125)"><path d="M0 0 C25.98 -0.09, 51.96 -0.18, 71.64 -0.25 M0 0 C15.74 -0.05, 31.48 -0.11, 71.64 -0.25" stroke="#1e1e1e" stroke-width="1" fill="none"></path></g></g><mask></mask><g stroke-linecap="round"><g transform="translate(549 313.33333333333337) rotate(0 77.5 0.5)"><path d="M0 0 C50.27 0.32, 100.53 0.65, 155 1 M0 0 C44.7 0.29, 89.39 0.58, 155 1" stroke="#1e1e1e" stroke-width="1" fill="none"></path></g></g><mask></mask><g stroke-linecap="round"><g transform="translate(705.75 151.49999999999997) rotate(0 0.125 20.50000000000003)"><path d="M0 0 C0.06 9.69, 0.12 19.39, 0.25 41 M0 0 C0.1 15.72, 0.19 31.44, 0.25 41" stroke="#1e1e1e" stroke-width="1" fill="none"></path></g></g><mask></mask><g stroke-linecap="round"><g transform="translate(704.3611111111113 596.3611111111111) rotate(0 0.125 23.625)"><path d="M0 0 C0.07 13.11, 0.14 26.21, 0.25 47.25 M0 0 C0.07 13.29, 0.14 26.58, 0.25 47.25" stroke="#1e1e1e" stroke-width="1" fill="none"></path></g></g><mask></mask><g stroke-linecap="round"><g transform="translate(704.75 290.83333333333337) rotate(0 0.125 22.37500000000003)"><path d="M0 0 C0.07 12.84, 0.14 25.69, 0.25 44.75 M0 0 C0.07 12.42, 0.14 24.85, 0.25 44.75" stroke="#1e1e1e" stroke-width="1" fill="none"></path></g></g><mask></mask><g stroke-linecap="round"><g transform="translate(706.2777777777776 439.8611111111112) rotate(0 -0.4305555555555429 43.069444444444514)"><path d="M0 0 C-0.29 28.57, -0.57 57.14, -0.86 86.14 M0 0 C-0.19 18.7, -0.37 37.39, -0.86 86.14" stroke="#1e1e1e" stroke-width="1" fill="none"></path></g></g><mask></mask><g stroke-linecap="round"><g transform="translate(383.99999999999994 100) rotate(0 0 10.25)"><path d="M0 0 C0 4.66, 0 9.31, 0 20.5 M0 0 C0 8.11, 0 16.23, 0 20.5" stroke="#1e1e1e" stroke-width="1" fill="none"></path></g></g><mask></mask><g stroke-linecap="round"><g transform="translate(382.99999999999994 120.24999999999997) rotate(0 41.56944444444446 0.5)"><path d="M0 0 C17.71 0.21, 35.42 0.43, 83.14 1 M0 0 C23.98 0.29, 47.95 0.58, 83.14 1" stroke="#1e1e1e" stroke-width="1" fill="none"></path></g></g><mask></mask><g stroke-linecap="round"><g transform="translate(466.99999999999994 99) rotate(0 0 11.125)"><path d="M0 0 C0 7.66, 0 15.32, 0 22.25 M0 0 C0 5.61, 0 11.23, 0 22.25" stroke="#1e1e1e" stroke-width="1" fill="none"></path></g></g><mask></mask><g stroke-linecap="round"><g transform="translate(424.99999999999994 120.24999999999997) rotate(0 0.26388888888880047 181.02884615384625)"><path d="M0 0 C0.18 124.65, 0.36 249.3, 0.53 362.06 M0 0 C0.17 119.58, 0.35 239.15, 0.53 362.06" stroke="#1e1e1e" stroke-width="1" fill="none"></path></g></g><mask></mask><g stroke-linecap="round"><g transform="translate(298.77777777777777 97.9444444444444) rotate(0 0.20833333333325754 260.1388888888889)"><path d="M0 0 C0.1 127.98, 0.2 255.97, 0.42 520.28 M0 0 C0.11 137.19, 0.22 274.37, 0.42 520.28" stroke="#1e1e1e" stroke-width="1" fill="none"></path></g></g><mask></mask><g stroke-linecap="round"><g transform="translate(425.74145299145306 481.7222222222223) rotate(0 139.81944444444434 -0.1527777777778283)"><path d="M0 0 C60.5 -0.07, 121 -0.13, 279.64 -0.31 M0 0 C88.43 -0.1, 176.85 -0.19, 279.64 -0.31" stroke="#1e1e1e" stroke-width="1" fill="none"></path></g></g><mask></mask><g stroke-linecap="round"><g transform="translate(299.1944444444445 618.2222222222222) rotate(0 203.05555555555554 0.8333333333333712)"><path d="M0 0 C146.46 0.6, 292.92 1.2, 406.11 1.67 M0 0 C110.15 0.45, 220.3 0.9, 406.11 1.67" stroke="#1e1e1e" stroke-width="1" fill="none"></path></g></g><mask></mask><g transform="translate(722.3888888888889 151.6666666666666) rotate(0 36.5576171875 23)"><text x="0" y="0" font-family="Helvetica, Segoe UI Emoji" font-size="20px" fill="#1e1e1e" text-anchor="start" style="white-space: pre;" direction="ltr" dominant-baseline="text-before-edge">"0" Stop</text><text x="0" y="23" font-family="Helvetica, Segoe UI Emoji" font-size="20px" fill="#1e1e1e" text-anchor="start" style="white-space: pre;" direction="ltr" dominant-baseline="text-before-edge">"1" Start</text></g><g transform="translate(722.5277777777778 437.94444444444434) rotate(0 142.1533203125 46)"><text x="0" y="0" font-family="Helvetica, Segoe UI Emoji" font-size="20px" fill="#1e1e1e" text-anchor="start" style="white-space: pre;" direction="ltr" dominant-baseline="text-before-edge">"00" Divide Clock by 2 (Default) </text><text x="0" y="23" font-family="Helvetica, Segoe UI Emoji" font-size="20px" fill="#1e1e1e" text-anchor="start" style="white-space: pre;" direction="ltr" dominant-baseline="text-before-edge">"01" Divide Clock by 4</text><text x="0" y="46" font-family="Helvetica, Segoe UI Emoji" font-size="20px" fill="#1e1e1e" text-anchor="start" style="white-space: pre;" direction="ltr" dominant-baseline="text-before-edge">"10" Divide Clock by 8</text><text x="0" y="69" font-family="Helvetica, Segoe UI Emoji" font-size="20px" fill="#1e1e1e" text-anchor="start" style="white-space: pre;" direction="ltr" dominant-baseline="text-before-edge">"11" Divide Clock by 16</text></g><g transform="translate(721.6944444444443 292.66666666666663) rotate(0 86.03515625 23)"><text x="0" y="0" font-family="Helvetica, Segoe UI Emoji" font-size="20px" fill="#1e1e1e" text-anchor="start" style="white-space: pre;" direction="ltr" dominant-baseline="text-before-edge">"0" One-Shot Mode</text><text x="0" y="23" font-family="Helvetica, Segoe UI Emoji" font-size="20px" fill="#1e1e1e" text-anchor="start" style="white-space: pre;" direction="ltr" dominant-baseline="text-before-edge">"1" Free-Run Mode</text></g><g transform="translate(723.7777777777778 597.0416666666667) rotate(0 117.7197265625 23)"><text x="0" y="0" font-family="Helvetica, Segoe UI Emoji" font-size="20px" fill="#1e1e1e" text-anchor="start" style="white-space: pre;" direction="ltr" dominant-baseline="text-before-edge">"0" Disable Output on PC7</text><text x="0" y="23" font-family="Helvetica, Segoe UI Emoji" font-size="20px" fill="#1e1e1e" text-anchor="start" style="white-space: pre;" direction="ltr" dominant-baseline="text-before-edge">"1" Enable Output on PC7</text></g></svg>