<?xml version="1.0" encoding="UTF-8" standalone="no"?>
<svg style="background-color: white;" xmlns="http://www.w3.org/2000/svg" version="1.1" viewBox="0 0 1095 632">
   <polyline fill="none" points="626,105 936,105" stroke="rgb(0, 0, 0)" stroke-linecap="square" stroke-width="4.0"/>
   <polyline fill="none" points="626,25 936,25" stroke="rgb(0, 0, 0)" stroke-linecap="square" stroke-width="4.0"/>
   <polyline fill="none" points="306,405 356,405 356,275 526,275" stroke="rgb(0, 100, 0)" stroke-linecap="square" stroke-width="3.0"/>
   <polyline fill="none" points="576,315 576,355" stroke="rgb(0, 100, 0)" stroke-linecap="square" stroke-width="3.0"/>
   <polyline fill="none" points="626,125 776,125 776,365 816,365" stroke="rgb(0, 0, 0)" stroke-linecap="square" stroke-width="4.0"/>
   <polyline fill="none" points="926,185 946,185" stroke="rgb(0, 0, 0)" stroke-linecap="square" stroke-width="4.0"/>
   <polyline fill="none" points="836,205 756,205 756,385 816,385" stroke="rgb(0, 0, 0)" stroke-linecap="square" stroke-width="4.0"/>
   <polyline fill="none" points="306,385 346,385 346,195 526,195" stroke="rgb(0, 100, 0)" stroke-linecap="square" stroke-width="3.0"/>
   <polyline fill="none" points="236,515 286,515 286,425" stroke="rgb(0, 0, 0)" stroke-linecap="square" stroke-width="4.0"/>
   <polyline fill="none" points="836,425 836,515 586,515 286,515" stroke="rgb(0, 0, 0)" stroke-linecap="square" stroke-width="4.0"/>
   <polyline fill="none" points="626,55 786,55 786,355 816,355" stroke="rgb(0, 0, 0)" stroke-linecap="square" stroke-width="4.0"/>
   <polyline fill="none" points="626,295 726,295 726,415 816,415" stroke="rgb(0, 0, 0)" stroke-linecap="square" stroke-width="4.0"/>
   <polyline fill="none" points="156,465 156,575 186,575" stroke="rgb(0, 100, 0)" stroke-linecap="square" stroke-width="3.0"/>
   <polyline fill="none" points="776,125 936,125" stroke="rgb(0, 0, 0)" stroke-linecap="square" stroke-width="4.0"/>
   <polyline fill="none" points="626,205 756,205" stroke="rgb(0, 0, 0)" stroke-linecap="square" stroke-width="4.0"/>
   <polyline fill="none" points="626,45 796,45 936,45" stroke="rgb(0, 0, 0)" stroke-linecap="square" stroke-width="4.0"/>
   <polyline fill="none" points="906,385 916,385" stroke="rgb(0, 0, 0)" stroke-linecap="square" stroke-width="4.0"/>
   <polyline fill="none" points="626,135 766,135 766,375 816,375" stroke="rgb(0, 0, 0)" stroke-linecap="square" stroke-width="4.0"/>
   <polyline fill="none" points="626,265 876,265 876,215" stroke="rgb(0, 100, 0)" stroke-linecap="square" stroke-width="3.0"/>
   <polyline fill="none" points="586,425 586,515" stroke="rgb(0, 0, 0)" stroke-linecap="square" stroke-width="4.0"/>
   <polyline fill="none" points="526,45 406,45 406,125 526,125" stroke="rgb(0, 210, 0)" stroke-linecap="square" stroke-width="3.0"/>
   <polyline fill="none" points="406,125 406,205 526,205" stroke="rgb(0, 210, 0)" stroke-linecap="square" stroke-width="3.0"/>
   <polyline fill="none" points="526,55 416,55 416,135 526,135" stroke="rgb(0, 100, 0)" stroke-linecap="square" stroke-width="3.0"/>
   <polyline fill="none" points="416,135 416,215 526,215" stroke="rgb(0, 100, 0)" stroke-linecap="square" stroke-width="3.0"/>
   <polyline fill="none" points="406,205 406,295 526,295" stroke="rgb(0, 210, 0)" stroke-linecap="square" stroke-width="3.0"/>
   <polyline fill="none" points="416,215 416,305 526,305" stroke="rgb(0, 100, 0)" stroke-linecap="square" stroke-width="3.0"/>
   <polyline fill="none" points="796,45 796,345 816,345" stroke="rgb(0, 0, 0)" stroke-linecap="square" stroke-width="4.0"/>
   <polyline fill="none" points="926,205 946,205" stroke="rgb(0, 0, 0)" stroke-linecap="square" stroke-width="4.0"/>
   <polyline fill="none" points="626,185 836,185" stroke="rgb(0, 0, 0)" stroke-linecap="square" stroke-width="4.0"/>
   <polyline fill="none" points="306,415 366,415 366,285 526,285" stroke="rgb(0, 100, 0)" stroke-linecap="square" stroke-width="3.0"/>
   <polyline fill="none" points="166,445 166,555 196,555" stroke="rgb(0, 100, 0)" stroke-linecap="square" stroke-width="3.0"/>
   <polyline fill="none" points="306,345 326,345 326,35 526,35" stroke="rgb(0, 100, 0)" stroke-linecap="square" stroke-width="3.0"/>
   <polyline fill="none" points="406,295 406,595 216,595" stroke="rgb(0, 210, 0)" stroke-linecap="square" stroke-width="3.0"/>
   <polyline fill="none" points="886,215 886,275 626,275" stroke="rgb(0, 100, 0)" stroke-linecap="square" stroke-width="3.0"/>
   <polyline fill="none" points="626,215 746,215 746,395 816,395" stroke="rgb(0, 0, 0)" stroke-linecap="square" stroke-width="4.0"/>
   <polyline fill="none" points="856,385 866,385" stroke="rgb(0, 0, 0)" stroke-linecap="square" stroke-width="4.0"/>
   <polyline fill="none" points="396,105 526,105" stroke="rgb(0, 0, 0)" stroke-linecap="square" stroke-width="4.0"/>
   <polyline fill="none" points="396,185 526,185" stroke="rgb(0, 0, 0)" stroke-linecap="square" stroke-width="4.0"/>
   <polyline fill="none" points="236,25 396,25 396,105 396,185 396,265 526,265" stroke="rgb(0, 0, 0)" stroke-linecap="square" stroke-width="4.0"/>
   <polyline fill="none" points="396,25 526,25" stroke="rgb(0, 0, 0)" stroke-linecap="square" stroke-width="4.0"/>
   <polyline fill="none" points="526,115 336,115 336,365 306,365" stroke="rgb(0, 100, 0)" stroke-linecap="square" stroke-width="3.0"/>
   <polyline fill="none" points="626,285 736,285 736,405 816,405" stroke="rgb(0, 0, 0)" stroke-linecap="square" stroke-width="4.0"/>
   <polyline fill="none" points="556,385 556,565" stroke="rgb(0, 100, 0)" stroke-linecap="square" stroke-width="3.0"/>
   <ellipse cx="286.0" cy="515.0" fill="rgb(0, 0, 0)" rx="6.0" ry="6.0" stroke="none" stroke-width="3.0"/>
   <ellipse cx="406.0" cy="125.0" fill="rgb(0, 210, 0)" rx="5.0" ry="5.0" stroke="none" stroke-width="3.0"/>
   <ellipse cx="396.0" cy="185.0" fill="rgb(0, 0, 0)" rx="6.0" ry="6.0" stroke="none" stroke-width="3.0"/>
   <ellipse cx="156.0" cy="465.0" fill="rgb(0, 100, 0)" rx="5.0" ry="5.0" stroke="none" stroke-width="3.0"/>
   <ellipse cx="166.0" cy="445.0" fill="rgb(0, 100, 0)" rx="5.0" ry="5.0" stroke="none" stroke-width="3.0"/>
   <ellipse cx="416.0" cy="135.0" fill="rgb(0, 100, 0)" rx="5.0" ry="5.0" stroke="none" stroke-width="3.0"/>
   <ellipse cx="406.0" cy="205.0" fill="rgb(0, 210, 0)" rx="5.0" ry="5.0" stroke="none" stroke-width="3.0"/>
   <ellipse cx="586.0" cy="515.0" fill="rgb(0, 0, 0)" rx="6.0" ry="6.0" stroke="none" stroke-width="3.0"/>
   <ellipse cx="396.0" cy="25.0" fill="rgb(0, 0, 0)" rx="6.0" ry="6.0" stroke="none" stroke-width="3.0"/>
   <ellipse cx="416.0" cy="215.0" fill="rgb(0, 100, 0)" rx="5.0" ry="5.0" stroke="none" stroke-width="3.0"/>
   <ellipse cx="406.0" cy="295.0" fill="rgb(0, 210, 0)" rx="5.0" ry="5.0" stroke="none" stroke-width="3.0"/>
   <ellipse cx="756.0" cy="205.0" fill="rgb(0, 0, 0)" rx="6.0" ry="6.0" stroke="none" stroke-width="3.0"/>
   <ellipse cx="396.0" cy="105.0" fill="rgb(0, 0, 0)" rx="6.0" ry="6.0" stroke="none" stroke-width="3.0"/>
   <ellipse cx="776.0" cy="125.0" fill="rgb(0, 0, 0)" rx="6.0" ry="6.0" stroke="none" stroke-width="3.0"/>
   <ellipse cx="556.0" cy="565.0" fill="rgb(0, 100, 0)" rx="5.0" ry="5.0" stroke="none" stroke-width="3.0"/>
   <ellipse cx="416.0" cy="305.0" fill="rgb(0, 100, 0)" rx="5.0" ry="5.0" stroke="none" stroke-width="3.0"/>
   <ellipse cx="796.0" cy="45.0" fill="rgb(0, 0, 0)" rx="6.0" ry="6.0" stroke="none" stroke-width="3.0"/>
   <polyline fill="none" points="940,45 939,45" stroke="rgb(0, 0, 0)" stroke-linecap="square" stroke-width="4.0"/>
   <polygon fill="none" points="976,36 986,45 976,54 942,54 942,36" stroke="rgb(0, 0, 0)" stroke-linecap="square" stroke-width="2.0"/>
   <text fill="rgb(0, 0, 255)" font-family="Segoe UI" font-size="12" x="971.0" y="52.0">h</text>
   <text fill="rgb(0, 0, 0)" font-family="Segoe UI" font-size="12" x="964.0" y="50.0">0</text>
   <text fill="rgb(0, 0, 0)" font-family="Segoe UI" font-size="12" x="956.0" y="50.0">0</text>
   <text fill="rgb(0, 0, 255)" font-family="Segoe UI" font-size="16" font-weight="bold" x="988.0" y="53.0">PAO</text>
   <ellipse cx="936.0" cy="45.0" fill="rgb(0, 0, 0)" rx="2.0" ry="2.0" stroke="none" stroke-width="2.0"/>
   <polyline fill="none" points="940,105 937,105" stroke="rgb(0, 0, 0)" stroke-linecap="square" stroke-width="4.0"/>
   <polygon fill="none" points="952,96 942,105 952,114 986,114 986,96" stroke="rgb(0, 0, 0)" stroke-linecap="square" stroke-width="2.0"/>
   <text fill="rgb(0, 0, 255)" font-family="Segoe UI" font-size="12" x="976.0" y="112.0">h</text>
   <text fill="rgb(0, 0, 0)" font-family="Segoe UI" font-size="12" x="969.0" y="110.0">0</text>
   <text fill="rgb(0, 0, 0)" font-family="Segoe UI" font-size="12" x="961.0" y="110.0">0</text>
   <text fill="rgb(0, 0, 255)" font-family="Segoe UI" font-size="16" font-weight="bold" x="988.0" y="113.0">PBI</text>
   <ellipse cx="936.0" cy="105.0" fill="rgb(0, 0, 0)" rx="2.0" ry="2.0" stroke="none" stroke-width="2.0"/>
   <polyline fill="none" points="940,125 939,125" stroke="rgb(0, 0, 0)" stroke-linecap="square" stroke-width="4.0"/>
   <polygon fill="none" points="976,116 986,125 976,134 942,134 942,116" stroke="rgb(0, 0, 0)" stroke-linecap="square" stroke-width="2.0"/>
   <text fill="rgb(0, 0, 255)" font-family="Segoe UI" font-size="12" x="971.0" y="132.0">h</text>
   <text fill="rgb(0, 0, 0)" font-family="Segoe UI" font-size="12" x="964.0" y="130.0">0</text>
   <text fill="rgb(0, 0, 0)" font-family="Segoe UI" font-size="12" x="956.0" y="130.0">0</text>
   <text fill="rgb(0, 0, 255)" font-family="Segoe UI" font-size="16" font-weight="bold" x="988.0" y="133.0">PBO</text>
   <ellipse cx="936.0" cy="125.0" fill="rgb(0, 0, 0)" rx="2.0" ry="2.0" stroke="none" stroke-width="2.0"/>
   <polyline fill="none" points="940,385 939,385" stroke="rgb(0, 0, 0)" stroke-linecap="square" stroke-width="4.0"/>
   <polygon fill="none" points="1016,376 1026,385 1016,394 942,394 942,376" stroke="rgb(0, 0, 0)" stroke-linecap="square" stroke-width="2.0"/>
   <text fill="rgb(0, 0, 255)" font-family="Segoe UI" font-size="12" x="1011.0" y="392.0">h</text>
   <text fill="rgb(0, 0, 0)" font-family="Segoe UI" font-size="12" x="1004.0" y="390.0">U</text>
   <text fill="rgb(0, 0, 0)" font-family="Segoe UI" font-size="12" x="996.0" y="390.0">U</text>
   <text fill="rgb(0, 0, 0)" font-family="Segoe UI" font-size="12" x="988.0" y="390.0">U</text>
   <text fill="rgb(0, 0, 0)" font-family="Segoe UI" font-size="12" x="980.0" y="390.0">U</text>
   <text fill="rgb(0, 0, 0)" font-family="Segoe UI" font-size="12" x="972.0" y="390.0">U</text>
   <text fill="rgb(0, 0, 0)" font-family="Segoe UI" font-size="12" x="964.0" y="390.0">U</text>
   <text fill="rgb(0, 0, 0)" font-family="Segoe UI" font-size="12" x="956.0" y="390.0">U</text>
   <text fill="rgb(0, 0, 0)" font-family="Segoe UI" font-size="12" x="948.0" y="390.0">U</text>
   <text fill="rgb(0, 0, 255)" font-family="Segoe UI" font-size="16" font-weight="bold" x="1028.0" y="393.0">DataOut</text>
   <ellipse cx="936.0" cy="385.0" fill="rgb(0, 0, 0)" rx="2.0" ry="2.0" stroke="none" stroke-width="2.0"/>
   <polyline fill="none" points="940,25 937,25" stroke="rgb(0, 0, 0)" stroke-linecap="square" stroke-width="4.0"/>
   <polygon fill="none" points="952,16 942,25 952,34 986,34 986,16" stroke="rgb(0, 0, 0)" stroke-linecap="square" stroke-width="2.0"/>
   <text fill="rgb(0, 0, 255)" font-family="Segoe UI" font-size="12" x="976.0" y="32.0">h</text>
   <text fill="rgb(0, 0, 0)" font-family="Segoe UI" font-size="12" x="969.0" y="30.0">0</text>
   <text fill="rgb(0, 0, 0)" font-family="Segoe UI" font-size="12" x="961.0" y="30.0">0</text>
   <text fill="rgb(0, 0, 255)" font-family="Segoe UI" font-size="16" font-weight="bold" x="988.0" y="33.0">PAI</text>
   <ellipse cx="936.0" cy="25.0" fill="rgb(0, 0, 0)" rx="2.0" ry="2.0" stroke="none" stroke-width="2.0"/>
   <polyline fill="none" points="950,185 947,185" stroke="rgb(0, 0, 0)" stroke-linecap="square" stroke-width="4.0"/>
   <polygon fill="none" points="962,176 952,185 962,194 996,194 996,176" stroke="rgb(0, 0, 0)" stroke-linecap="square" stroke-width="2.0"/>
   <text fill="rgb(0, 0, 255)" font-family="Segoe UI" font-size="12" x="986.0" y="192.0">h</text>
   <text fill="rgb(0, 0, 0)" font-family="Segoe UI" font-size="12" x="979.0" y="190.0">0</text>
   <text fill="rgb(0, 0, 0)" font-family="Segoe UI" font-size="12" x="971.0" y="190.0">0</text>
   <text fill="rgb(0, 0, 255)" font-family="Segoe UI" font-size="16" font-weight="bold" x="998.0" y="193.0">PCI</text>
   <ellipse cx="946.0" cy="185.0" fill="rgb(0, 0, 0)" rx="2.0" ry="2.0" stroke="none" stroke-width="2.0"/>
   <polyline fill="none" points="950,205 949,205" stroke="rgb(0, 0, 0)" stroke-linecap="square" stroke-width="4.0"/>
   <polygon fill="none" points="986,196 996,205 986,214 952,214 952,196" stroke="rgb(0, 0, 0)" stroke-linecap="square" stroke-width="2.0"/>
   <text fill="rgb(0, 0, 255)" font-family="Segoe UI" font-size="12" x="981.0" y="212.0">h</text>
   <text fill="rgb(0, 0, 0)" font-family="Segoe UI" font-size="12" x="974.0" y="210.0">0</text>
   <text fill="rgb(0, 0, 0)" font-family="Segoe UI" font-size="12" x="966.0" y="210.0">0</text>
   <text fill="rgb(0, 0, 255)" font-family="Segoe UI" font-size="16" font-weight="bold" x="998.0" y="213.0">PCO</text>
   <ellipse cx="946.0" cy="205.0" fill="rgb(0, 0, 0)" rx="2.0" ry="2.0" stroke="none" stroke-width="2.0"/>
   <polyline fill="none" points="91,445 96,445 166,445 196,445" stroke="rgb(0, 100, 0)" stroke-linecap="square" stroke-width="3.0"/>
   <polygon fill="none" points="81,454 91,445 81,436 57,436 57,454" stroke="rgb(0, 0, 0)" stroke-linecap="square" stroke-width="2.0"/>
   <text fill="rgb(0, 0, 255)" font-family="Segoe UI" font-size="12" x="76.0" y="452.0">b</text>
   <ellipse cx="71.0" cy="444.0" fill="rgb(0, 100, 0)" rx="4.5" ry="7.0" stroke="none" stroke-width="2.0"/>
   <text fill="rgb(255, 255, 255)" font-family="Segoe UI" font-size="12" x="68.0" y="449.0">0</text>
   <text fill="rgb(0, 0, 255)" font-family="Segoe UI" font-size="16" font-weight="bold" x="33.0" y="453.0">En</text>
   <ellipse cx="96.0" cy="445.0" fill="rgb(0, 100, 0)" rx="2.0" ry="2.0" stroke="none" stroke-width="2.0"/>
   <polyline fill="none" points="91,465 96,465 156,465 196,465" stroke="rgb(0, 100, 0)" stroke-linecap="square" stroke-width="3.0"/>
   <polygon fill="none" points="81,474 91,465 81,456 57,456 57,474" stroke="rgb(0, 0, 0)" stroke-linecap="square" stroke-width="2.0"/>
   <text fill="rgb(0, 0, 255)" font-family="Segoe UI" font-size="12" x="76.0" y="472.0">b</text>
   <ellipse cx="71.0" cy="464.0" fill="rgb(0, 100, 0)" rx="4.5" ry="7.0" stroke="none" stroke-width="2.0"/>
   <text fill="rgb(255, 255, 255)" font-family="Segoe UI" font-size="12" x="68.0" y="469.0">0</text>
   <text fill="rgb(0, 0, 255)" font-family="Segoe UI" font-size="16" font-weight="bold" x="27.0" y="473.0">RW</text>
   <ellipse cx="96.0" cy="465.0" fill="rgb(0, 100, 0)" rx="2.0" ry="2.0" stroke="none" stroke-width="2.0"/>
   <polyline fill="none" points="91,595 96,595 196,595" stroke="rgb(0, 100, 0)" stroke-linecap="square" stroke-width="3.0"/>
   <polygon fill="none" points="81,604 91,595 81,586 57,586 57,604" stroke="rgb(0, 0, 0)" stroke-linecap="square" stroke-width="2.0"/>
   <text fill="rgb(0, 0, 255)" font-family="Segoe UI" font-size="12" x="76.0" y="602.0">b</text>
   <ellipse cx="71.0" cy="594.0" fill="rgb(0, 100, 0)" rx="4.5" ry="7.0" stroke="none" stroke-width="2.0"/>
   <text fill="rgb(255, 255, 255)" font-family="Segoe UI" font-size="12" x="68.0" y="599.0">0</text>
   <text fill="rgb(0, 0, 255)" font-family="Segoe UI" font-size="16" font-weight="bold" x="20.0" y="603.0">CLK</text>
   <ellipse cx="96.0" cy="595.0" fill="rgb(0, 100, 0)" rx="2.0" ry="2.0" stroke="none" stroke-width="2.0"/>
   <polyline fill="none" points="91,615 96,615 416,615 416,305" stroke="rgb(0, 100, 0)" stroke-linecap="square" stroke-width="3.0"/>
   <polygon fill="none" points="81,624 91,615 81,606 57,606 57,624" stroke="rgb(0, 0, 0)" stroke-linecap="square" stroke-width="2.0"/>
   <text fill="rgb(0, 0, 255)" font-family="Segoe UI" font-size="12" x="76.0" y="622.0">b</text>
   <ellipse cx="71.0" cy="614.0" fill="rgb(0, 100, 0)" rx="4.5" ry="7.0" stroke="none" stroke-width="2.0"/>
   <text fill="rgb(255, 255, 255)" font-family="Segoe UI" font-size="12" x="68.0" y="619.0">0</text>
   <text fill="rgb(0, 0, 255)" font-family="Segoe UI" font-size="16" font-weight="bold" x="21.0" y="623.0">RST</text>
   <ellipse cx="96.0" cy="615.0" fill="rgb(0, 100, 0)" rx="2.0" ry="2.0" stroke="none" stroke-width="2.0"/>
   <polyline fill="none" points="143,515 146,515 196,515" stroke="rgb(0, 0, 0)" stroke-linecap="square" stroke-width="4.0"/>
   <polygon fill="none" points="131,524 141,515 131,506 57,506 57,524" stroke="rgb(0, 0, 0)" stroke-linecap="square" stroke-width="2.0"/>
   <text fill="rgb(0, 0, 255)" font-family="Segoe UI" font-size="12" x="126.0" y="522.0">h</text>
   <text fill="rgb(0, 0, 0)" font-family="Segoe UI" font-size="12" x="119.0" y="520.0">0</text>
   <text fill="rgb(0, 0, 0)" font-family="Segoe UI" font-size="12" x="111.0" y="520.0">0</text>
   <text fill="rgb(0, 0, 0)" font-family="Segoe UI" font-size="12" x="103.0" y="520.0">0</text>
   <text fill="rgb(0, 0, 0)" font-family="Segoe UI" font-size="12" x="95.0" y="520.0">0</text>
   <text fill="rgb(0, 0, 0)" font-family="Segoe UI" font-size="12" x="87.0" y="520.0">0</text>
   <text fill="rgb(0, 0, 0)" font-family="Segoe UI" font-size="12" x="79.0" y="520.0">0</text>
   <text fill="rgb(0, 0, 0)" font-family="Segoe UI" font-size="12" x="71.0" y="520.0">0</text>
   <text fill="rgb(0, 0, 0)" font-family="Segoe UI" font-size="12" x="63.0" y="520.0">0</text>
   <text fill="rgb(0, 0, 255)" font-family="Segoe UI" font-size="16" font-weight="bold" x="33.0" y="523.0">Rs</text>
   <ellipse cx="146.0" cy="515.0" fill="rgb(0, 0, 0)" rx="2.0" ry="2.0" stroke="none" stroke-width="2.0"/>
   <polyline fill="none" points="143,25 146,25 196,25" stroke="rgb(0, 0, 0)" stroke-linecap="square" stroke-width="4.0"/>
   <polygon fill="none" points="131,34 141,25 131,16 57,16 57,34" stroke="rgb(0, 0, 0)" stroke-linecap="square" stroke-width="2.0"/>
   <text fill="rgb(0, 0, 255)" font-family="Segoe UI" font-size="12" x="126.0" y="32.0">h</text>
   <text fill="rgb(0, 0, 0)" font-family="Segoe UI" font-size="12" x="119.0" y="30.0">0</text>
   <text fill="rgb(0, 0, 0)" font-family="Segoe UI" font-size="12" x="111.0" y="30.0">0</text>
   <text fill="rgb(0, 0, 0)" font-family="Segoe UI" font-size="12" x="103.0" y="30.0">0</text>
   <text fill="rgb(0, 0, 0)" font-family="Segoe UI" font-size="12" x="95.0" y="30.0">0</text>
   <text fill="rgb(0, 0, 0)" font-family="Segoe UI" font-size="12" x="87.0" y="30.0">0</text>
   <text fill="rgb(0, 0, 0)" font-family="Segoe UI" font-size="12" x="79.0" y="30.0">0</text>
   <text fill="rgb(0, 0, 0)" font-family="Segoe UI" font-size="12" x="71.0" y="30.0">0</text>
   <text fill="rgb(0, 0, 0)" font-family="Segoe UI" font-size="12" x="63.0" y="30.0">0</text>
   <text fill="rgb(0, 0, 255)" font-family="Segoe UI" font-size="16" font-weight="bold" x="5.0" y="33.0">DataIn</text>
   <ellipse cx="146.0" cy="25.0" fill="rgb(0, 0, 0)" rx="2.0" ry="2.0" stroke="none" stroke-width="2.0"/>
   <polyline fill="none" points="196,495 235,495" stroke="rgb(0, 0, 0)" stroke-linecap="square" stroke-width="2.0"/>
   <polyline fill="none" points="236,495 236,534" stroke="rgb(0, 0, 0)" stroke-linecap="square" stroke-width="2.0"/>
   <polyline fill="none" points="236,535 197,535" stroke="rgb(0, 0, 0)" stroke-linecap="square" stroke-width="2.0"/>
   <polyline fill="none" points="196,535 196,496" stroke="rgb(0, 0, 0)" stroke-linecap="square" stroke-width="2.0"/>
   <text fill="rgb(0, 0, 0)" font-family="SansSerif" font-size="12" x="213.0" y="511.0">0</text>
   <text fill="rgb(0, 0, 0)" font-family="SansSerif" font-size="12" x="198.0" y="531.0">extend</text>
   <ellipse cx="236.0" cy="515.0" fill="rgb(0, 0, 0)" rx="2.0" ry="2.0" stroke="none" stroke-width="1.0"/>
   <text fill="rgb(0, 0, 0)" font-family="SansSerif" font-size="12" x="226.0" y="522.0">3</text>
   <ellipse cx="196.0" cy="515.0" fill="rgb(0, 0, 0)" rx="2.0" ry="2.0" stroke="none" stroke-width="1.0"/>
   <text fill="rgb(0, 0, 0)" font-family="SansSerif" font-size="12" x="199.0" y="522.0">32</text>
   <polyline fill="none" points="196,5 235,5" stroke="rgb(0, 0, 0)" stroke-linecap="square" stroke-width="2.0"/>
   <polyline fill="none" points="236,5 236,44" stroke="rgb(0, 0, 0)" stroke-linecap="square" stroke-width="2.0"/>
   <polyline fill="none" points="236,45 197,45" stroke="rgb(0, 0, 0)" stroke-linecap="square" stroke-width="2.0"/>
   <polyline fill="none" points="196,45 196,6" stroke="rgb(0, 0, 0)" stroke-linecap="square" stroke-width="2.0"/>
   <text fill="rgb(0, 0, 0)" font-family="SansSerif" font-size="12" x="213.0" y="21.0">0</text>
   <text fill="rgb(0, 0, 0)" font-family="SansSerif" font-size="12" x="198.0" y="41.0">extend</text>
   <ellipse cx="236.0" cy="25.0" fill="rgb(0, 0, 0)" rx="2.0" ry="2.0" stroke="none" stroke-width="1.0"/>
   <text fill="rgb(0, 0, 0)" font-family="SansSerif" font-size="12" x="226.0" y="32.0">8</text>
   <ellipse cx="196.0" cy="25.0" fill="rgb(0, 0, 0)" rx="2.0" ry="2.0" stroke="none" stroke-width="1.0"/>
   <text fill="rgb(0, 0, 0)" font-family="SansSerif" font-size="12" x="199.0" y="32.0">32</text>
   <polyline fill="none" points="596,385 596,405 596,419" stroke="rgb(0, 100, 0)" stroke-linecap="square" stroke-width="3.0"/>
   <polyline fill="none" points="586,395 586,405 586,419" stroke="rgb(0, 100, 0)" stroke-linecap="square" stroke-width="3.0"/>
   <polyline fill="none" points="566,385 566,405 576,405 576,419" stroke="rgb(0, 100, 0)" stroke-linecap="square" stroke-width="3.0"/>
   <polyline fill="none" points="586,424 586,419" stroke="rgb(0, 0, 0)" stroke-linecap="square" stroke-width="5.0"/>
   <polyline fill="none" points="595,419 577,419" stroke="rgb(0, 0, 0)" stroke-linecap="square" stroke-width="5.0"/>
   <text fill="rgb(0, 0, 0)" font-family="SansSerif" font-size="7" transform="rotate(90.0,599.0,412.0)" x="599.0" y="412.0">0</text>
   <text fill="rgb(0, 0, 0)" font-family="SansSerif" font-size="7" transform="rotate(90.0,589.0,412.0)" x="589.0" y="412.0">1</text>
   <text fill="rgb(0, 0, 0)" font-family="SansSerif" font-size="7" transform="rotate(90.0,579.0,412.0)" x="579.0" y="412.0">2</text>
   <ellipse cx="586.0" cy="425.0" fill="rgb(0, 0, 0)" rx="2.0" ry="2.0" stroke="none" stroke-width="5.0"/>
   <ellipse cx="596.0" cy="405.0" fill="rgb(0, 100, 0)" rx="2.0" ry="2.0" stroke="none" stroke-width="5.0"/>
   <ellipse cx="586.0" cy="405.0" fill="rgb(0, 100, 0)" rx="2.0" ry="2.0" stroke="none" stroke-width="5.0"/>
   <ellipse cx="576.0" cy="405.0" fill="rgb(0, 100, 0)" rx="2.0" ry="2.0" stroke="none" stroke-width="5.0"/>
   <polyline fill="none" points="866,365 905,365" stroke="rgb(0, 0, 0)" stroke-linecap="square" stroke-width="2.0"/>
   <polyline fill="none" points="906,365 906,404" stroke="rgb(0, 0, 0)" stroke-linecap="square" stroke-width="2.0"/>
   <polyline fill="none" points="906,405 867,405" stroke="rgb(0, 0, 0)" stroke-linecap="square" stroke-width="2.0"/>
   <polyline fill="none" points="866,405 866,366" stroke="rgb(0, 0, 0)" stroke-linecap="square" stroke-width="2.0"/>
   <text fill="rgb(0, 0, 0)" font-family="SansSerif" font-size="12" x="883.0" y="381.0">0</text>
   <text fill="rgb(0, 0, 0)" font-family="SansSerif" font-size="12" x="868.0" y="401.0">extend</text>
   <ellipse cx="906.0" cy="385.0" fill="rgb(0, 0, 0)" rx="2.0" ry="2.0" stroke="none" stroke-width="1.0"/>
   <text fill="rgb(0, 0, 0)" font-family="SansSerif" font-size="12" x="889.0" y="392.0">32</text>
   <ellipse cx="866.0" cy="385.0" fill="rgb(0, 0, 0)" rx="2.0" ry="2.0" stroke="none" stroke-width="1.0"/>
   <text fill="rgb(0, 0, 0)" font-family="SansSerif" font-size="12" x="869.0" y="392.0">8</text>
   <polyline fill="none" points="226,565 556,565 926,565 926,395 926,385" stroke="rgb(0, 100, 0)" stroke-linecap="square" stroke-width="3.0"/>
   <polygon fill="none" points="936,385 917,378 917,392" stroke="rgb(0, 0, 0)" stroke-linecap="square" stroke-width="2.0"/>
   <ellipse cx="936.0" cy="385.0" fill="rgb(0, 0, 0)" rx="2.0" ry="2.0" stroke="none" stroke-width="2.0"/>
   <ellipse cx="916.0" cy="385.0" fill="rgb(0, 0, 0)" rx="2.0" ry="2.0" stroke="none" stroke-width="2.0"/>
   <polygon fill="none" points="210,595 197,589 197,601" stroke="rgb(0, 0, 0)" stroke-linecap="square" stroke-width="2.0"/>
   <ellipse cx="213.0" cy="595.0" fill="none" rx="3.0" ry="3.0" stroke="rgb(0, 0, 0)" stroke-width="2.0"/>
   <ellipse cx="216.0" cy="595.0" fill="rgb(0, 210, 0)" rx="2.0" ry="2.0" stroke="none" stroke-width="2.0"/>
   <ellipse cx="196.0" cy="595.0" fill="rgb(0, 100, 0)" rx="2.0" ry="2.0" stroke="none" stroke-width="2.0"/>
   <path d="M211.0,470.0 A15.0,15.0 90.0 0,0 211.0,440.0" fill="none" stroke="rgb(0, 0, 0)" stroke-width="2.0"/>
   <polyline fill="none" points="211,440 197,440 197,470 211,470" stroke="rgb(0, 0, 0)" stroke-linecap="square" stroke-width="2.0"/>
   <ellipse cx="226.0" cy="455.0" fill="rgb(0, 100, 0)" rx="2.0" ry="2.0" stroke="none" stroke-width="2.0"/>
   <ellipse cx="196.0" cy="445.0" fill="rgb(0, 100, 0)" rx="2.0" ry="2.0" stroke="none" stroke-width="2.0"/>
   <ellipse cx="196.0" cy="465.0" fill="rgb(0, 100, 0)" rx="2.0" ry="2.0" stroke="none" stroke-width="2.0"/>
   <ellipse cx="191.0" cy="575.0" fill="none" rx="4.5" ry="4.5" stroke="rgb(0, 0, 0)" stroke-width="2.0"/>
   <path d="M211.0,580.0 A15.0,15.0 90.0 0,0 211.0,550.0" fill="none" stroke="rgb(0, 0, 0)" stroke-width="2.0"/>
   <polyline fill="none" points="211,550 197,550 197,580 211,580" stroke="rgb(0, 0, 0)" stroke-linecap="square" stroke-width="2.0"/>
   <ellipse cx="226.0" cy="565.0" fill="rgb(0, 100, 0)" rx="2.0" ry="2.0" stroke="none" stroke-width="2.0"/>
   <ellipse cx="196.0" cy="555.0" fill="rgb(0, 100, 0)" rx="2.0" ry="2.0" stroke="none" stroke-width="2.0"/>
   <ellipse cx="186.0" cy="575.0" fill="rgb(0, 100, 0)" rx="2.0" ry="2.0" stroke="none" stroke-width="2.0"/>
   <ellipse cx="586.0" cy="390.0" fill="none" rx="4.5" ry="4.5" stroke="rgb(0, 0, 0)" stroke-width="2.0"/>
   <path d="M591.0,370.0 A15.0,15.0 0.0 0,0 561.0,370.0" fill="none" stroke="rgb(0, 0, 0)" stroke-width="2.0"/>
   <polyline fill="none" points="561,370 561,384 591,384 591,370" stroke="rgb(0, 0, 0)" stroke-linecap="square" stroke-width="2.0"/>
   <polyline fill="none" points="551,384 601,384" stroke="rgb(0, 0, 0)" stroke-linecap="square" stroke-width="2.0"/>
   <ellipse cx="576.0" cy="355.0" fill="rgb(0, 100, 0)" rx="2.0" ry="2.0" stroke="none" stroke-width="2.0"/>
   <ellipse cx="556.0" cy="385.0" fill="rgb(0, 100, 0)" rx="2.0" ry="2.0" stroke="none" stroke-width="2.0"/>
   <ellipse cx="566.0" cy="385.0" fill="rgb(0, 100, 0)" rx="2.0" ry="2.0" stroke="none" stroke-width="2.0"/>
   <ellipse cx="586.0" cy="395.0" fill="rgb(0, 100, 0)" rx="2.0" ry="2.0" stroke="none" stroke-width="2.0"/>
   <ellipse cx="596.0" cy="385.0" fill="rgb(0, 100, 0)" rx="2.0" ry="2.0" stroke="none" stroke-width="2.0"/>
   <polyline fill="none" points="226,455 276,455 276,425 276,421" stroke="rgb(0, 100, 0)" stroke-linecap="square" stroke-width="3.0"/>
   <ellipse cx="286.0" cy="415.0" fill="rgb(192, 192, 192)" rx="3.0" ry="3.0" stroke="none" stroke-width="1.0"/>
   <text fill="rgb(128, 128, 128)" font-family="SansSerif" font-size="12" x="296.0" y="350.0">0</text>
   <polygon fill="none" points="266,355 306,335 306,435 266,415" stroke="rgb(0, 0, 0)" stroke-linecap="square" stroke-width="2.0"/>
   <text fill="rgb(0, 0, 0)" font-family="SansSerif" font-size="12" x="272.0" y="392.0">Decd</text>
   <ellipse cx="306.0" cy="345.0" fill="rgb(0, 100, 0)" rx="2.0" ry="2.0" stroke="none" stroke-width="2.0"/>
   <ellipse cx="306.0" cy="355.0" fill="rgb(0, 100, 0)" rx="2.0" ry="2.0" stroke="none" stroke-width="2.0"/>
   <ellipse cx="306.0" cy="365.0" fill="rgb(0, 100, 0)" rx="2.0" ry="2.0" stroke="none" stroke-width="2.0"/>
   <ellipse cx="306.0" cy="375.0" fill="rgb(0, 100, 0)" rx="2.0" ry="2.0" stroke="none" stroke-width="2.0"/>
   <ellipse cx="306.0" cy="385.0" fill="rgb(0, 100, 0)" rx="2.0" ry="2.0" stroke="none" stroke-width="2.0"/>
   <ellipse cx="306.0" cy="395.0" fill="rgb(0, 100, 0)" rx="2.0" ry="2.0" stroke="none" stroke-width="2.0"/>
   <ellipse cx="306.0" cy="405.0" fill="rgb(0, 100, 0)" rx="2.0" ry="2.0" stroke="none" stroke-width="2.0"/>
   <ellipse cx="306.0" cy="415.0" fill="rgb(0, 100, 0)" rx="2.0" ry="2.0" stroke="none" stroke-width="2.0"/>
   <ellipse cx="286.0" cy="425.0" fill="rgb(0, 0, 0)" rx="2.0" ry="2.0" stroke="none" stroke-width="2.0"/>
   <ellipse cx="276.0" cy="425.0" fill="rgb(0, 100, 0)" rx="2.0" ry="2.0" stroke="none" stroke-width="2.0"/>
   <ellipse cx="836.0" cy="415.0" fill="rgb(192, 192, 192)" rx="3.0" ry="3.0" stroke="none" stroke-width="1.0"/>
   <text fill="rgb(128, 128, 128)" font-family="SansSerif" font-size="12" x="819.0" y="350.0">0</text>
   <polygon fill="none" points="816,335 856,355 856,415 816,435" stroke="rgb(0, 0, 0)" stroke-linecap="square" stroke-width="2.0"/>
   <text fill="rgb(0, 0, 0)" font-family="SansSerif" font-size="12" x="824.0" y="392.0">MUX</text>
   <ellipse cx="816.0" cy="345.0" fill="rgb(0, 0, 0)" rx="2.0" ry="2.0" stroke="none" stroke-width="2.0"/>
   <ellipse cx="816.0" cy="355.0" fill="rgb(0, 0, 0)" rx="2.0" ry="2.0" stroke="none" stroke-width="2.0"/>
   <ellipse cx="816.0" cy="365.0" fill="rgb(0, 0, 0)" rx="2.0" ry="2.0" stroke="none" stroke-width="2.0"/>
   <ellipse cx="816.0" cy="375.0" fill="rgb(0, 0, 0)" rx="2.0" ry="2.0" stroke="none" stroke-width="2.0"/>
   <ellipse cx="816.0" cy="385.0" fill="rgb(0, 0, 0)" rx="2.0" ry="2.0" stroke="none" stroke-width="2.0"/>
   <ellipse cx="816.0" cy="395.0" fill="rgb(0, 0, 0)" rx="2.0" ry="2.0" stroke="none" stroke-width="2.0"/>
   <ellipse cx="816.0" cy="405.0" fill="rgb(0, 0, 0)" rx="2.0" ry="2.0" stroke="none" stroke-width="2.0"/>
   <ellipse cx="816.0" cy="415.0" fill="rgb(0, 0, 0)" rx="2.0" ry="2.0" stroke="none" stroke-width="2.0"/>
   <ellipse cx="836.0" cy="425.0" fill="rgb(0, 0, 0)" rx="2.0" ry="2.0" stroke="none" stroke-width="2.0"/>
   <ellipse cx="856.0" cy="385.0" fill="rgb(0, 0, 0)" rx="2.0" ry="2.0" stroke="none" stroke-width="2.0"/>
   <rect fill="rgb(52, 47, 87)" height="41" stroke="none" stroke-linecap="square" stroke-width="1.0" width="90" x="836" y="174"/>
   <polyline fill="none" points="836,174 925,174" stroke="rgb(0, 0, 0)" stroke-linecap="square" stroke-width="2.0"/>
   <polyline fill="none" points="926,174 926,214" stroke="rgb(0, 0, 0)" stroke-linecap="square" stroke-width="2.0"/>
   <polyline fill="none" points="926,215 837,215" stroke="rgb(0, 0, 0)" stroke-linecap="square" stroke-width="2.0"/>
   <polyline fill="none" points="836,215 836,175" stroke="rgb(0, 0, 0)" stroke-linecap="square" stroke-width="2.0"/>
   <text fill="rgb(255, 255, 255)" font-family="Segoe UI" font-size="12" font-style="italic" font-weight="bold" x="846.0" y="198.0">PC7 Control</text>
   <ellipse cx="836.0" cy="185.0" fill="rgb(0, 0, 0)" rx="2.0" ry="2.0" stroke="none" stroke-width="1.0"/>
   <ellipse cx="836.0" cy="205.0" fill="rgb(0, 0, 0)" rx="2.0" ry="2.0" stroke="none" stroke-width="1.0"/>
   <ellipse cx="876.0" cy="215.0" fill="rgb(0, 100, 0)" rx="2.0" ry="2.0" stroke="none" stroke-width="1.0"/>
   <ellipse cx="886.0" cy="215.0" fill="rgb(0, 100, 0)" rx="2.0" ry="2.0" stroke="none" stroke-width="1.0"/>
   <ellipse cx="926.0" cy="185.0" fill="rgb(0, 0, 0)" rx="2.0" ry="2.0" stroke="none" stroke-width="1.0"/>
   <ellipse cx="926.0" cy="205.0" fill="rgb(0, 0, 0)" rx="2.0" ry="2.0" stroke="none" stroke-width="1.0"/>
   <rect fill="rgb(52, 47, 87)" height="50" stroke="none" stroke-linecap="square" stroke-width="1.0" width="101" x="525" y="95"/>
   <polyline fill="none" points="525,95 625,95" stroke="rgb(0, 0, 0)" stroke-linecap="square" stroke-width="2.0"/>
   <polyline fill="none" points="626,95 626,144" stroke="rgb(0, 0, 0)" stroke-linecap="square" stroke-width="2.0"/>
   <polyline fill="none" points="626,145 526,145" stroke="rgb(0, 0, 0)" stroke-linecap="square" stroke-width="2.0"/>
   <polyline fill="none" points="525,145 525,96" stroke="rgb(0, 0, 0)" stroke-linecap="square" stroke-width="2.0"/>
   <text fill="rgb(255, 255, 255)" font-family="Segoe UI" font-size="13" font-style="italic" font-weight="bold" x="550.0" y="124.0">I/O-Port</text>
   <ellipse cx="526.0" cy="105.0" fill="rgb(0, 0, 0)" rx="2.0" ry="2.0" stroke="none" stroke-width="1.0"/>
   <ellipse cx="526.0" cy="115.0" fill="rgb(0, 100, 0)" rx="2.0" ry="2.0" stroke="none" stroke-width="1.0"/>
   <ellipse cx="526.0" cy="125.0" fill="rgb(0, 210, 0)" rx="2.0" ry="2.0" stroke="none" stroke-width="1.0"/>
   <ellipse cx="526.0" cy="135.0" fill="rgb(0, 100, 0)" rx="2.0" ry="2.0" stroke="none" stroke-width="1.0"/>
   <ellipse cx="626.0" cy="105.0" fill="rgb(0, 0, 0)" rx="2.0" ry="2.0" stroke="none" stroke-width="1.0"/>
   <ellipse cx="626.0" cy="125.0" fill="rgb(0, 0, 0)" rx="2.0" ry="2.0" stroke="none" stroke-width="1.0"/>
   <ellipse cx="626.0" cy="135.0" fill="rgb(0, 0, 0)" rx="2.0" ry="2.0" stroke="none" stroke-width="1.0"/>
   <rect fill="rgb(52, 47, 87)" height="50" stroke="none" stroke-linecap="square" stroke-width="1.0" width="101" x="525" y="175"/>
   <polyline fill="none" points="525,175 625,175" stroke="rgb(0, 0, 0)" stroke-linecap="square" stroke-width="2.0"/>
   <polyline fill="none" points="626,175 626,224" stroke="rgb(0, 0, 0)" stroke-linecap="square" stroke-width="2.0"/>
   <polyline fill="none" points="626,225 526,225" stroke="rgb(0, 0, 0)" stroke-linecap="square" stroke-width="2.0"/>
   <polyline fill="none" points="525,225 525,176" stroke="rgb(0, 0, 0)" stroke-linecap="square" stroke-width="2.0"/>
   <text fill="rgb(255, 255, 255)" font-family="Segoe UI" font-size="13" font-style="italic" font-weight="bold" x="550.0" y="204.0">I/O-Port</text>
   <ellipse cx="526.0" cy="185.0" fill="rgb(0, 0, 0)" rx="2.0" ry="2.0" stroke="none" stroke-width="1.0"/>
   <ellipse cx="526.0" cy="195.0" fill="rgb(0, 100, 0)" rx="2.0" ry="2.0" stroke="none" stroke-width="1.0"/>
   <ellipse cx="526.0" cy="205.0" fill="rgb(0, 210, 0)" rx="2.0" ry="2.0" stroke="none" stroke-width="1.0"/>
   <ellipse cx="526.0" cy="215.0" fill="rgb(0, 100, 0)" rx="2.0" ry="2.0" stroke="none" stroke-width="1.0"/>
   <ellipse cx="626.0" cy="185.0" fill="rgb(0, 0, 0)" rx="2.0" ry="2.0" stroke="none" stroke-width="1.0"/>
   <ellipse cx="626.0" cy="205.0" fill="rgb(0, 0, 0)" rx="2.0" ry="2.0" stroke="none" stroke-width="1.0"/>
   <ellipse cx="626.0" cy="215.0" fill="rgb(0, 0, 0)" rx="2.0" ry="2.0" stroke="none" stroke-width="1.0"/>
   <rect fill="rgb(52, 47, 87)" height="50" stroke="none" stroke-linecap="square" stroke-width="1.0" width="101" x="525" y="15"/>
   <polyline fill="none" points="525,15 625,15" stroke="rgb(0, 0, 0)" stroke-linecap="square" stroke-width="2.0"/>
   <polyline fill="none" points="626,15 626,64" stroke="rgb(0, 0, 0)" stroke-linecap="square" stroke-width="2.0"/>
   <polyline fill="none" points="626,65 526,65" stroke="rgb(0, 0, 0)" stroke-linecap="square" stroke-width="2.0"/>
   <polyline fill="none" points="525,65 525,16" stroke="rgb(0, 0, 0)" stroke-linecap="square" stroke-width="2.0"/>
   <text fill="rgb(255, 255, 255)" font-family="Segoe UI" font-size="13" font-style="italic" font-weight="bold" x="550.0" y="44.0">I/O-Port</text>
   <ellipse cx="526.0" cy="25.0" fill="rgb(0, 0, 0)" rx="2.0" ry="2.0" stroke="none" stroke-width="1.0"/>
   <ellipse cx="526.0" cy="35.0" fill="rgb(0, 100, 0)" rx="2.0" ry="2.0" stroke="none" stroke-width="1.0"/>
   <ellipse cx="526.0" cy="45.0" fill="rgb(0, 210, 0)" rx="2.0" ry="2.0" stroke="none" stroke-width="1.0"/>
   <ellipse cx="526.0" cy="55.0" fill="rgb(0, 100, 0)" rx="2.0" ry="2.0" stroke="none" stroke-width="1.0"/>
   <ellipse cx="626.0" cy="25.0" fill="rgb(0, 0, 0)" rx="2.0" ry="2.0" stroke="none" stroke-width="1.0"/>
   <ellipse cx="626.0" cy="45.0" fill="rgb(0, 0, 0)" rx="2.0" ry="2.0" stroke="none" stroke-width="1.0"/>
   <ellipse cx="626.0" cy="55.0" fill="rgb(0, 0, 0)" rx="2.0" ry="2.0" stroke="none" stroke-width="1.0"/>
   <rect fill="rgb(52, 47, 87)" height="60" stroke="none" stroke-linecap="square" stroke-width="1.0" width="100" x="526" y="255"/>
   <polyline fill="none" points="526,255 625,255" stroke="rgb(0, 0, 0)" stroke-linecap="square" stroke-width="2.0"/>
   <polyline fill="none" points="626,255 626,314" stroke="rgb(0, 0, 0)" stroke-linecap="square" stroke-width="2.0"/>
   <polyline fill="none" points="626,315 527,315" stroke="rgb(0, 0, 0)" stroke-linecap="square" stroke-width="2.0"/>
   <polyline fill="none" points="526,315 526,256" stroke="rgb(0, 0, 0)" stroke-linecap="square" stroke-width="2.0"/>
   <text fill="rgb(255, 255, 255)" font-family="Segoe UI" font-size="12" font-style="italic" font-weight="bold" x="542.0" y="287.0">8-Bit Timer</text>
   <ellipse cx="526.0" cy="265.0" fill="rgb(0, 0, 0)" rx="2.0" ry="2.0" stroke="none" stroke-width="1.0"/>
   <ellipse cx="526.0" cy="275.0" fill="rgb(0, 100, 0)" rx="2.0" ry="2.0" stroke="none" stroke-width="1.0"/>
   <ellipse cx="526.0" cy="285.0" fill="rgb(0, 100, 0)" rx="2.0" ry="2.0" stroke="none" stroke-width="1.0"/>
   <ellipse cx="526.0" cy="295.0" fill="rgb(0, 210, 0)" rx="2.0" ry="2.0" stroke="none" stroke-width="1.0"/>
   <ellipse cx="526.0" cy="305.0" fill="rgb(0, 100, 0)" rx="2.0" ry="2.0" stroke="none" stroke-width="1.0"/>
   <ellipse cx="576.0" cy="315.0" fill="rgb(0, 100, 0)" rx="2.0" ry="2.0" stroke="none" stroke-width="1.0"/>
   <ellipse cx="626.0" cy="265.0" fill="rgb(0, 100, 0)" rx="2.0" ry="2.0" stroke="none" stroke-width="1.0"/>
   <ellipse cx="626.0" cy="275.0" fill="rgb(0, 100, 0)" rx="2.0" ry="2.0" stroke="none" stroke-width="1.0"/>
   <ellipse cx="626.0" cy="285.0" fill="rgb(0, 0, 0)" rx="2.0" ry="2.0" stroke="none" stroke-width="1.0"/>
   <ellipse cx="626.0" cy="295.0" fill="rgb(0, 0, 0)" rx="2.0" ry="2.0" stroke="none" stroke-width="1.0"/>
</svg>
